<?xml version="1.0" encoding="utf-8"?>
<!-- Generator: Adobe Illustrator 16.0.0, SVG Export Plug-In . SVG Version: 6.00 Build 0)  -->
<!DOCTYPE svg PUBLIC "-//W3C//DTD SVG 1.1//EN" "http://www.w3.org/Graphics/SVG/1.1/DTD/svg11.dtd">
<svg version="1.1" id="Capa_1" xmlns="http://www.w3.org/2000/svg" xmlns:xlink="http://www.w3.org/1999/xlink" x="0px" y="0px"
	 width="350px" height="350px" viewBox="0 0 350 350" enable-background="new 0 0 350 350" xml:space="preserve">
<g>
	<g>
		<g>
			<circle cx="87.5" cy="87.5" r="7.954"/>
		</g>
	</g>
	<g>
		<g>
			<circle cx="262.5" cy="87.5" r="7.954"/>
		</g>
	</g>
	<g>
		<g>
			<circle cx="87.5" cy="262.5" r="7.954"/>
		</g>
	</g>
	<g>
		<g>
			<circle cx="262.5" cy="262.5" r="7.954"/>
		</g>
	</g>
	<g>
		<g>
			<path d="M342.046,159.091c4.398,0,7.954-3.563,7.954-7.955c0-4.391-3.556-7.954-7.954-7.954h-39.772v-31.818h39.772
				c4.398,0,7.954-3.563,7.954-7.954c0-4.391-3.556-7.955-7.954-7.955h-39.772V87.5c0-21.93-17.842-39.773-39.773-39.773h-7.954
				V7.954c0-4.391-3.556-7.954-7.955-7.954s-7.954,3.563-7.954,7.954v39.773h-31.818V7.954c0-4.391-3.556-7.954-7.955-7.954
				c-4.398,0-7.954,3.563-7.954,7.954v39.773h-31.818V7.954c0-4.391-3.556-7.954-7.955-7.954s-7.954,3.563-7.954,7.954v39.773
				h-31.818V7.954c0-4.391-3.556-7.954-7.955-7.954s-7.954,3.563-7.954,7.954v39.773H87.5c-21.93,0-39.773,17.842-39.773,39.773
				v7.954H7.954C3.555,95.454,0,99.018,0,103.409c0,4.391,3.555,7.955,7.954,7.955h39.773v31.818H7.954
				c-4.399,0-7.954,3.564-7.954,7.955c0,4.391,3.555,7.955,7.954,7.955h39.773v31.817H7.954C3.555,190.909,0,194.473,0,198.863
				s3.555,7.955,7.954,7.955h39.773v31.817H7.954C3.555,238.637,0,242.2,0,246.591s3.555,7.954,7.954,7.954h39.773v7.955
				c0,21.93,17.842,39.773,39.773,39.773h7.954v39.772c0,4.391,3.556,7.954,7.955,7.954s7.954-3.563,7.954-7.954v-39.772h31.818
				v39.772c0,4.391,3.556,7.954,7.955,7.954s7.954-3.563,7.954-7.954v-39.772h31.818v39.772c0,4.391,3.556,7.954,7.954,7.954
				s7.955-3.563,7.955-7.954v-39.772h31.817v39.772c0,4.391,3.556,7.954,7.954,7.954s7.955-3.563,7.955-7.954v-39.772h7.957
				c21.93,0,39.773-17.842,39.773-39.773v-7.954h39.772c4.398,0,7.954-3.563,7.954-7.954s-3.556-7.955-7.954-7.955h-47.728
				c-4.398,0-7.954,3.564-7.954,7.955V262.5c0,13.157-10.707,23.863-23.864,23.863h-175c-13.157,0-23.864-10.707-23.864-23.863v-175
				c0-13.157,10.708-23.864,23.864-23.864h175c13.157,0,23.863,10.708,23.863,23.864v127.273c0,4.391,3.556,7.953,7.955,7.953
				c4.398,0,7.953-3.563,7.953-7.953v-7.955h39.773c4.399,0,7.954-3.563,7.954-7.954s-3.555-7.954-7.954-7.954h-39.773v-31.818
				h39.774V159.091z"/>
		</g>
	</g>
	<g>
		<g>
			<path d="M151.136,127.273c-13.157,0-23.863,10.707-23.863,23.863c0,10.357,6.674,19.107,15.909,22.4v65.1h-23.864
				c-4.383,0-7.947-3.572-7.947-7.955V119.318c0-4.383,3.564-7.954,7.955-7.954h47.72c4.399,0,7.954-3.564,7.954-7.955
				s-3.555-7.954-7.954-7.954h-47.72c-13.157,0-23.864,10.707-23.864,23.863v111.363c0,13.158,10.707,23.864,23.855,23.864h31.818
				c4.399,0,7.954-3.563,7.954-7.954v-73.055c9.235-3.293,15.91-12.043,15.91-22.4C175,137.979,164.293,127.273,151.136,127.273z
				 M151.136,159.091c-4.391,0-7.954-3.572-7.954-7.955s3.563-7.954,7.954-7.954c4.391,0,7.955,3.572,7.955,7.954
				C159.091,155.52,155.527,159.091,151.136,159.091z"/>
		</g>
	</g>
	<g>
		<g>
			<path d="M230.674,95.454h-31.811c-4.398,0-7.954,3.564-7.954,7.955v73.054c-9.235,3.295-15.909,12.045-15.909,22.4
				c0,13.157,10.707,23.863,23.863,23.863c13.157,0,23.863-10.707,23.863-23.863c0-10.357-6.674-19.107-15.908-22.4v-65.099h23.855
				c4.391,0,7.953,3.572,7.953,7.954v111.364c0,4.383-3.563,7.954-7.953,7.954h-47.721c-4.398,0-7.954,3.563-7.954,7.954
				s3.555,7.955,7.954,7.955h47.721c13.156,0,23.863-10.708,23.863-23.864V119.318C254.537,106.162,243.83,95.454,230.674,95.454z
				 M198.863,206.818c-4.391,0-7.954-3.572-7.954-7.955s3.563-7.954,7.954-7.954s7.955,3.571,7.955,7.954
				S203.254,206.818,198.863,206.818z"/>
		</g>
	</g>
</g>
</svg>
