<?xml version="1.0" encoding="utf-8"?>
<!-- Generator: Adobe Illustrator 16.0.0, SVG Export Plug-In . SVG Version: 6.00 Build 0)  -->
<!DOCTYPE svg PUBLIC "-//W3C//DTD SVG 1.1//EN" "http://www.w3.org/Graphics/SVG/1.1/DTD/svg11.dtd">
<svg version="1.1" id="Layer_1" xmlns="http://www.w3.org/2000/svg" xmlns:xlink="http://www.w3.org/1999/xlink" x="0px" y="0px"
	 width="150px" height="150px" viewBox="0 0 150 150" enable-background="new 0 0 150 150" xml:space="preserve">
<g>
	<path d="M88.166,124.25H84v-3.409c0-3.138-2.354-5.682-5.493-5.682H23.962c-3.138,0-5.871,2.544-5.871,5.682v3.409h-3.22
		c-3.138,0-5.871,2.544-5.871,5.682v7.387c0,3.138,2.733,5.682,5.871,5.682h73.295c3.139,0,5.493-2.544,5.493-5.682v-7.387
		C93.659,126.794,91.305,124.25,88.166,124.25z"/>
	<path d="M138.839,120.688L88.545,60.287l13.973-11.635c2.41-2.008,2.858-5.445,0.851-7.857L80.464,13.288
		c-2.008-2.411-5.712-2.884-8.123-0.876L30.425,47.314c-2.412,2.008-2.618,5.737-0.61,8.148l22.905,27.508
		c2.008,2.411,5.47,2.593,7.882,0.585l13.534-11.271l50.294,60.4c2.009,2.41,5.47,2.593,7.882,0.585l5.675-4.727
		C140.399,126.535,140.847,123.098,138.839,120.688z"/>
</g>
</svg>
