<?xml version="1.0" encoding="utf-8"?>
<!-- Generator: Adobe Illustrator 16.0.0, SVG Export Plug-In . SVG Version: 6.00 Build 0)  -->
<!DOCTYPE svg PUBLIC "-//W3C//DTD SVG 1.1//EN" "http://www.w3.org/Graphics/SVG/1.1/DTD/svg11.dtd">
<svg version="1.1" id="Layer_1" xmlns="http://www.w3.org/2000/svg" xmlns:xlink="http://www.w3.org/1999/xlink" x="0px" y="0px"
	 width="350px" height="350px" viewBox="0 0 350 350" enable-background="new 0 0 350 350" xml:space="preserve">
<g transform="translate(-270 -680)">
	<g>
		<path d="M305,829.333v9.333h9.333v112h261.333v-112H585v-9.333H305z M398.333,941.334h-74.667V848h74.667V941.334z
			 M482.333,941.334h-74.667V848h74.667V941.334z M566.333,941.334h-74.667V848h74.667V941.334z"/>
		<rect x="333" y="717.333" width="37.333" height="37.333"/>
		<polygon points="314.333,764 314.333,801.333 323.667,801.333 323.667,820 379.667,820 379.667,801.333 389,801.333 389,764 		"/>
		<rect x="519.666" y="717.333" width="37.334" height="37.333"/>
		<rect x="426.333" y="717.333" width="37.333" height="37.333"/>
		<polygon points="501,764 501,801.333 510.333,801.333 510.333,820 566.333,820 566.333,801.333 575.666,801.333 575.666,764 		"/>
		<polygon points="407.667,764 407.667,801.333 417,801.333 417,820 473,820 473,801.333 482.333,801.333 482.333,764 		"/>
		<rect x="333" y="857.334" width="56" height="74.666"/>
		<rect x="417" y="857.334" width="56" height="74.666"/>
		<rect x="501" y="857.334" width="56" height="74.666"/>
	</g>
</g>
</svg>
