<?xml version="1.0" encoding="UTF-8" ?>
<!DOCTYPE svg PUBLIC "-//W3C//DTD SVG 1.1//EN" "http://www.w3.org/Graphics/SVG/1.1/DTD/svg11.dtd">
<svg width="331pt" height="387pt" viewBox="0 0 331 387" version="1.1" xmlns="http://www.w3.org/2000/svg">
<g id="#ffffffff">
</g>
<g id="#010101ff">
<path fill="#010101" opacity="1.00" d=" M 101.63 35.77 C 114.15 20.01 138.11 16.52 155.72 25.21 C 160.44 27.58 164.63 31.12 167.11 35.85 C 171.05 28.86 178.32 24.40 185.92 22.35 C 200.20 18.37 216.80 20.89 228.08 30.91 C 238.92 40.09 242.53 55.39 240.69 69.04 C 253.78 68.82 265.32 80.27 266.52 93.08 C 267.49 101.26 264.02 109.19 259.35 115.71 C 266.17 120.87 270.21 129.41 269.51 137.98 C 269.11 150.08 260.18 162.36 247.55 163.51 C 251.32 170.64 251.71 179.45 248.63 186.90 C 246.15 192.90 241.15 197.90 234.96 199.99 C 229.17 202.16 222.82 201.60 216.90 200.36 C 219.29 203.88 221.91 207.30 223.71 211.18 C 243.21 221.01 262.80 230.68 282.26 240.58 C 286.29 246.32 289.49 252.61 293.28 258.51 C 294.28 260.55 296.51 262.63 295.24 265.05 C 287.19 291.84 279.19 318.65 271.13 345.45 C 270.24 348.19 269.41 350.98 269.11 353.86 C 201.25 354.22 133.34 353.66 65.44 353.89 C 64.71 349.75 63.35 345.76 62.18 341.74 C 54.30 315.47 46.47 289.18 38.55 262.92 C 42.42 256.29 46.45 249.76 50.32 243.13 C 51.07 241.94 51.79 240.59 53.15 240.00 C 72.31 230.29 91.59 220.82 110.74 211.07 C 112.53 207.23 115.08 203.81 117.42 200.29 C 109.82 202.11 101.20 202.08 94.51 197.55 C 83.48 190.58 80.76 174.62 86.85 163.51 C 71.56 162.15 62.29 145.00 65.39 130.89 C 66.55 124.82 70.21 119.51 75.07 115.79 C 70.98 109.98 67.64 103.24 67.69 95.98 C 67.50 82.21 79.48 68.93 93.50 69.06 C 92.48 57.50 94.20 45.09 101.63 35.77 M 103.65 40.80 C 97.16 50.33 97.23 62.37 98.40 73.37 C 97.84 73.55 96.72 73.89 96.16 74.07 C 87.08 71.90 78.21 78.64 74.34 86.46 C 70.41 94.31 72.42 103.85 77.28 110.82 C 78.47 112.86 80.54 114.51 80.84 116.96 C 78.37 119.49 75.02 121.14 73.12 124.23 C 65.62 134.87 69.80 151.64 81.50 157.41 C 85.08 159.27 89.24 158.75 93.11 158.49 C 93.39 159.11 93.96 160.34 94.24 160.95 C 92.17 163.72 89.88 166.47 89.02 169.90 C 86.44 178.71 89.50 189.45 97.66 194.25 C 104.96 198.33 113.86 197.07 121.40 194.34 C 124.57 189.51 127.79 184.72 130.98 179.91 C 118.55 159.59 114.84 135.31 113.85 111.89 C 127.91 111.08 141.26 104.88 152.37 96.45 C 159.59 90.58 166.55 82.82 167.04 73.05 C 168.42 84.83 177.41 93.80 186.88 99.99 C 196.96 106.40 208.41 111.22 220.45 111.92 C 219.54 135.36 215.79 159.68 203.31 179.99 C 206.60 184.72 209.74 189.56 212.93 194.35 C 220.95 197.25 230.76 198.49 238.14 193.32 C 247.31 186.59 249.00 171.97 241.81 163.19 C 240.50 161.93 239.41 159.49 241.73 158.58 C 245.59 158.72 249.71 159.19 253.23 157.21 C 263.19 152.01 267.60 138.71 263.56 128.40 C 261.68 123.42 257.52 119.92 253.30 116.95 C 254.74 113.63 257.36 111.03 258.91 107.77 C 261.64 102.67 263.02 96.59 261.61 90.89 C 259.85 83.04 253.40 76.60 245.83 74.15 C 242.82 73.04 239.63 74.06 236.54 73.73 C 235.35 70.63 236.79 67.24 236.57 64.00 C 237.18 52.08 232.70 39.30 222.65 32.27 C 212.16 24.73 198.05 23.33 185.86 27.05 C 179.24 29.20 172.54 33.39 170.19 40.29 C 169.22 42.59 170.08 45.59 168.13 47.43 C 165.01 48.43 164.96 44.81 164.66 42.81 C 163.71 35.27 156.83 30.15 150.15 27.69 C 134.13 21.68 113.34 25.90 103.65 40.80 M 132.31 186.03 C 127.25 193.68 122.10 201.28 117.12 208.99 C 124.93 214.07 132.58 219.39 140.40 224.45 C 147.99 218.22 155.54 211.94 163.04 205.60 C 159.72 202.58 155.51 200.74 151.83 198.20 C 145.00 194.66 138.97 189.85 132.31 186.03 M 171.05 205.26 C 178.47 211.93 186.42 217.97 193.88 224.59 C 201.67 219.35 209.45 214.11 217.28 208.94 C 212.16 201.31 207.06 193.68 202.02 186.01 C 191.81 192.61 181.49 199.02 171.05 205.26 M 142.56 228.64 C 141.75 229.19 140.70 230.55 139.70 229.46 C 131.14 223.81 122.63 218.08 114.10 212.39 C 115.45 258.07 116.96 303.75 118.33 349.43 C 150.92 349.48 183.52 349.46 216.11 349.47 C 217.32 303.74 218.86 258.02 220.32 212.30 C 211.45 218.35 202.51 224.29 193.51 230.15 C 184.77 222.70 175.92 215.39 167.07 208.07 C 159.00 215.04 150.69 221.74 142.56 228.64 Z" />
<path fill="#010101" opacity="1.00" d=" M 158.43 220.00 C 159.36 214.12 166.91 210.83 171.85 214.19 C 176.40 216.80 177.25 223.03 174.43 227.25 C 184.75 245.32 195.12 263.37 205.46 281.43 C 206.14 282.51 206.46 283.68 206.43 284.96 C 206.37 297.03 206.42 309.10 206.38 321.17 C 201.98 321.10 197.58 321.12 193.18 321.17 C 192.99 309.10 193.19 297.03 193.09 284.96 C 193.09 282.17 191.80 279.64 190.76 277.13 C 184.22 261.36 177.97 245.47 171.40 229.70 C 169.11 230.68 166.63 230.71 164.20 230.49 C 157.43 247.28 150.60 264.05 143.75 280.80 C 143.34 281.79 143.13 282.83 143.13 283.91 C 142.90 296.32 143.50 308.75 142.79 321.15 C 138.42 321.09 134.05 321.09 129.68 321.13 C 129.56 310.09 129.70 299.06 129.62 288.02 C 129.65 285.62 129.32 283.00 130.80 280.92 C 140.83 263.42 150.93 245.95 160.91 228.42 C 159.14 226.01 157.60 223.09 158.43 220.00 Z" />
</g>
</svg>
