<?xml version="1.0" encoding="utf-8"?>
<!-- Generator: Adobe Illustrator 16.0.0, SVG Export Plug-In . SVG Version: 6.00 Build 0)  -->
<!DOCTYPE svg PUBLIC "-//W3C//DTD SVG 1.1//EN" "http://www.w3.org/Graphics/SVG/1.1/DTD/svg11.dtd">
<svg version="1.1" id="Layer_1" xmlns="http://www.w3.org/2000/svg" xmlns:xlink="http://www.w3.org/1999/xlink" x="0px" y="0px"
	 width="1000px" height="362px" viewBox="0 0 1000 362" enable-background="new 0 0 1000 362" xml:space="preserve">
<g>
	<text transform="matrix(1 0 0 1 218.3765 210.9238)" fill="#00BCD3" font-family="'FujitaRay'" font-size="296.1761">blockchain</text>
</g>
<g>
	<text transform="matrix(1 0 0 1 218.3765 369.5811)" fill="#00BCD3" font-family="'FujitaRay'" font-size="296.1761">lab</text>
</g>
<g>
	<polygon fill="#00BCD3" points="10,45.605 47,24.416 47,274.6 101.727,305.445 154.867,274.639 191.415,295.843 100.707,347.854 
		10,296.135 	"/>
	<polygon fill="#00BCD3" points="50,213.712 50,171.32 101.875,140.931 192,192.98 192,292.348 156,270.936 156,214.145 
		102.073,183.418 	"/>
	<polygon fill="none" stroke="#00BCD3" stroke-width="2" stroke-miterlimit="10" points="141,267.876 103,290.255 65,267.876 
		65,223.116 103,200.739 141,223.116 	"/>
	<g>
		<g>
			<circle fill="#00BCD3" cx="103.625" cy="201.634" r="4.117"/>
			<circle fill="#00BCD3" cx="65.374" cy="223.254" r="4.117"/>
			<circle fill="#00BCD3" cx="65.374" cy="268.155" r="4.117"/>
			<circle fill="#00BCD3" cx="103.625" cy="289.776" r="4.117"/>
			<circle fill="#00BCD3" cx="141.875" cy="268.155" r="4.117"/>
			<circle fill="#00BCD3" cx="141.875" cy="223.254" r="4.117"/>
		</g>
	</g>
</g>
<g display="none">
	<g display="inline">
		<path d="M123.497,231.589l-19.623-11.385c-0.253-0.149-0.57-0.149-0.829,0l-19.623,11.385c-0.254,0.146-0.409,0.421-0.409,0.712
			v23.489c0,0.265,0.124,0.515,0.337,0.669l19.623,14.288c0.015,0.011,0.036,0.017,0.051,0.024c0.021,0.013,0.036,0.033,0.063,0.041
			c0.015,0.008,0.031,0.008,0.041,0.013c0.104,0.046,0.218,0.077,0.332,0.077c0.114,0,0.224-0.031,0.332-0.077
			c0.017-0.005,0.032-0.005,0.042-0.013c0.021-0.008,0.042-0.028,0.062-0.041c0.017-0.008,0.037-0.015,0.053-0.024l19.623-14.288
			c0.212-0.154,0.337-0.404,0.337-0.669v-23.489C123.907,232.004,123.751,231.734,123.497,231.589z M103.459,221.873l17.979,10.428
			l-17.979,10.426L85.48,232.301L103.459,221.873z M84.661,233.73l5.232,3.031l12.743,7.389v24.306L84.661,255.37V233.73
			L84.661,233.73z M122.258,255.37l-17.974,13.091v-24.304l14.091-8.171l3.889-2.256v21.64H122.258z"/>
	</g>
</g>
</svg>
