<?xml version="1.0" encoding="utf-8"?>
<!-- Generator: Adobe Illustrator 16.0.0, SVG Export Plug-In . SVG Version: 6.00 Build 0)  -->
<!DOCTYPE svg PUBLIC "-//W3C//DTD SVG 1.1//EN" "http://www.w3.org/Graphics/SVG/1.1/DTD/svg11.dtd">
<svg version="1.1" id="Capa_1" xmlns="http://www.w3.org/2000/svg" xmlns:xlink="http://www.w3.org/1999/xlink" x="0px" y="0px"
	 width="1280px" height="750px" viewBox="0 0 1280 750" enable-background="new 0 0 1280 750" xml:space="preserve">
<g>
	<g>
		<path fill="#214855" d="M922.246,282.702c-2.465-18.746-18.837-33.607-38.168-33.607c-7.77,0-15.059,2.405-21.163,6.492
			c-3.341,0.574-6.541,1.603-9.547,3.039c-0.308-0.22-0.614-0.443-0.921-0.666c-15.237-12.39-28.945-26.699-42.122-41.204
			c-9.67-10.645-19.172-21.533-28.017-32.88c-3.803-4.879-10.248-8.149-16.79-9.861c-7.779-10.462-15.406-21.029-23.624-31.171
			c-3.845-4.745-7.898-9.367-12.486-13.411c-3.879-3.418-8.612-7.271-13.704-10.304c2.142-4.311,4.149-8.719,6.009-13.29
			c3.675-9.036,0.828-21.628-3.882-29.667c-5.041-8.606-13.385-15.046-23.009-17.693c-4.049-1.114-8.246-1.528-12.401-1.291
			c-0.236-9.607-3.944-19.143-11.107-26.306c-14.881-14.881-39.551-14.768-54.447,0c-7.094,7.033-14.814,13.383-22.672,19.541
			c-17.215,13.162-34.797,25.938-50.949,40.404c-7.089,6.35-13.786,13.156-19.688,20.631c-4.364,5.528-8.757,11.053-12.442,17.066
			c-3.804,6.207-6.48,13.111-9.145,19.841c-3.607,9.109-0.867,21.561,3.881,29.667c5.042,8.606,13.385,15.046,23.009,17.693
			c1.203,0.331,2.42,0.599,3.645,0.809c-0.271,1.834-0.411,3.694-0.411,5.564c0,10.17,4.089,20.036,11.276,27.224
			c7.796,7.795,16.628,10.164,27.224,11.276c9.163,0.961,18.705-0.822,27.786-4.04c1.419,2.221,3.079,4.324,4.988,6.263
			c2.905,2.949,5.646,6.027,8.273,9.213c8.772,11.92,16.625,24.437,24.997,36.62c-24.506,15.181-45.031,36.022-64.123,57.381
			c-18.37,20.552-36.411,41.494-54.063,62.663c-19.01,22.797-37.968,45.75-60.059,65.679c-11.258,10.156-23.195,19.487-34.31,29.823
			c-11.182,10.397-21.928,21.255-32.605,32.165c-15.257,15.589-31.026,30.717-44.768,47.683
			c-11.384,14.057-22.476,28.887-36.36,40.629c-1.824,1.254-3.702,2.412-5.646,3.465c-0.694,0.209-1.393,0.406-2.104,0.577
			c-16.957,4.075-26.859,22.972-22.35,39.363c4.736,17.217,22.417,26.423,39.364,22.35c25.94-6.234,45.41-28.11,61.651-47.889
			c7.119-8.67,13.939-17.595,21.396-25.98c9.162-10.303,19.329-19.823,28.952-29.698c21.38-21.941,43.321-42.773,66.699-62.567
			c22.656-19.181,41.831-42.084,60.782-64.81c16.363-19.623,33.12-38.897,49.872-58.188c15.54-17.894,31.554-35.698,50.017-50.65
			c3.33-2.438,6.738-4.756,10.258-6.926c4.187-2.582,7.64-5.979,10.237-9.867c8.666,6.329,17.654,12.281,26.275,18.694
			c2.436,1.915,4.878,3.822,7.329,5.718c0.004,0.006,0.008,0.011,0.012,0.017c-2.124-1.641-4.248-3.282-6.371-4.922
			c3.191,2.583,6.104,5.392,8.81,8.422c9.146,13.797,14.133,29.757,22.762,43.848c9.396,15.347,23.001,26.575,34.444,40.04
			c0.539,0.777,1.079,1.553,1.6,2.346c5.602,8.538,12.979,14.935,23.009,17.693c11.747,3.23,22.639,0.506,32.114-5.839
			c-0.566,0.438-1.132,0.874-1.698,1.312c7.619-5.291,12.777-9.56,17.562-17.666c2.473-4.189,4.015-8.698,4.718-13.284
			c4.013-0.844,7.898-2.312,11.469-4.402c7.704-4.513,16.367-13.722,17.693-23.009c0.221-1.546,0.561-3.05,0.992-4.527
			c1.651-3.088,3.532-6.043,5.554-8.907c6.319-7.541,13.373-14.45,20.958-20.717c3.908-2.819,7.962-5.445,12.226-7.678
			c0.294-0.09,0.581-0.193,0.877-0.276c3.572-1.003,6.891-2.506,9.913-4.4c14.153-5.732,24.352-19.712,24.352-35.724
			C954.076,301.877,940.145,285.936,922.246,282.702z M588.732,154.453c-0.631,0.457-1.264,0.909-1.902,1.355
			c6.93-7.302,14.511-13.992,22.334-20.367C602.711,142.164,595.921,148.553,588.732,154.453z"/>
		<path fill="#00BBD1" d="M720.128,377.098c-8.098,15.707-6.129,35.486,6.211,48.736c4.935,5.3,11.16,9.27,18.003,11.479
			c8.33,2.692,14.911,9.273,17.603,17.604c2.212,6.841,6.182,13.066,11.479,18.001c7.956,7.41,18.265,11.084,28.636,11.084
			c11.161,0,22.392-4.256,30.824-12.688l120.198-120.196c16.268-16.268,16.989-42.941,1.606-59.458
			c-4.935-5.3-11.161-9.27-18.003-11.481c-8.331-2.692-14.912-9.273-17.604-17.604c-2.212-6.841-6.182-13.066-11.479-18.001
			c-13.249-12.339-33.028-14.306-48.735-6.211l-131.46-131.46c8.097-15.707,6.129-35.486-6.211-48.735
			c-4.935-5.298-11.16-9.27-18.001-11.479c-8.331-2.692-14.911-9.273-17.604-17.604c-2.212-6.841-6.182-13.066-11.479-18.001
			C657.596-4.3,630.922-3.58,614.652,12.69L494.455,132.884c-16.269,16.268-16.99,42.942-1.606,59.458
			c4.937,5.3,11.162,9.271,18.003,11.481c8.33,2.692,14.911,9.274,17.604,17.603c2.21,6.842,6.182,13.066,11.481,18.003
			c7.954,7.408,18.266,11.082,28.636,11.082c6.901,0,13.827-1.631,20.104-4.867l36.976,36.978L282.551,625.725
			c-17.631,17.631-17.631,46.319,0,63.952c8.815,8.815,20.396,13.225,31.977,13.225c11.58,0,23.16-4.407,31.975-13.225
			l343.102-343.103L720.128,377.098z M939.043,306.227L939.043,306.227c7.631,8.193,7.147,21.551-1.078,29.774L817.768,456.196
			c-8.224,8.224-21.582,8.709-29.773,1.079c-2.68-2.496-4.6-5.501-5.71-8.933c-1.27-3.929-3.035-7.63-5.206-11.051l141.98-141.98
			c3.421,2.169,7.122,3.935,11.049,5.205C933.543,301.627,936.549,303.548,939.043,306.227z M893.029,260.213
			c2.68,2.496,4.6,5.5,5.71,8.933c1.27,3.928,3.035,7.63,5.204,11.05l-141.98,141.98c-3.42-2.169-7.122-3.935-11.049-5.204
			c-3.434-1.11-6.439-3.03-8.934-5.708c-7.629-8.19-7.147-21.541,1.07-29.767l60.105-60.106l60.099-60.098
			c4.314-4.315,10.042-6.5,15.695-6.5C884.074,254.793,889.136,256.587,893.029,260.213z M508.491,177.774
			c-7.63-8.192-7.146-21.548,1.079-29.773L629.766,27.805c4.317-4.316,10.043-6.5,15.696-6.5c5.122,0,10.184,1.794,14.079,5.42
			c2.679,2.497,4.6,5.501,5.71,8.934c1.27,3.929,3.035,7.628,5.204,11.049l-141.98,141.981c-3.421-2.169-7.122-3.937-11.051-5.206
			C513.992,182.374,510.987,180.453,508.491,177.774z M554.504,223.787c-2.68-2.495-4.6-5.499-5.708-8.933
			c-1.27-3.928-3.037-7.628-5.206-11.048L685.57,61.825c3.421,2.169,7.122,3.935,11.049,5.205c3.434,1.11,6.439,3.03,8.933,5.708
			l0,0c7.63,8.192,7.146,21.548-1.079,29.773L584.277,222.706C576.054,230.933,562.696,231.417,554.504,223.787z M713.746,123.473
			l128.549,128.549l-54.252,54.252l-54.252,54.252l-128.55-128.549L713.746,123.473z M331.388,674.56
			c-9.297,9.296-24.424,9.298-33.72,0c-9.295-9.297-9.295-24.424,0-33.72l343.101-343.101l33.721,33.72L331.388,674.56z"/>
	</g>
	<g>
		<path fill="#214855" d="M952.932,656.457c-2.485-9.038-8.764-16.093-16.643-20.011c0.047-0.158,0.101-0.315,0.145-0.475
			c4.814-17.506-5.561-32.754-21.383-38.988c0.011-0.338,0.026-0.676,0.026-1.017c0-17.443-14.556-32-32-32H635.589
			c-17.444,0-32,14.557-32,32c0,3.403,0.561,6.693,1.582,9.79c-5.437,1.322-10.28,3.652-14.708,8.081
			c-5.974,5.974-9.373,14.174-9.373,22.627c0,1.134,0.08,2.276,0.222,3.419c-7.405,6.002-12.221,15.245-12.221,25.08
			c0,17.779,14.566,31.558,32,32c58.001,1.474,115.99-1.467,173.991-1.5c51.886-0.03,104.16,14.131,155.5,0.356
			C947.421,691.304,957.533,673.186,952.932,656.457z"/>
		<path fill="#00BBD1" d="M967.652,648.156c0-2.306-0.726-4.597-2.181-6.497l-43.491-56.822v-25.979
			c0-5.903-4.785-10.688-10.688-10.688H612.011c-5.903,0-10.688,4.785-10.688,10.688v25.979l-43.491,56.822
			c-1.455,1.9-2.181,4.191-2.181,6.497l-0.021,45.545c0,5.903,4.785,10.688,10.689,10.688h390.663
			c5.903,0,10.688-4.785,10.688-10.688L967.652,648.156z M622.699,569.549h277.904v8.222H622.699V569.549L622.699,569.549z
			 M617.289,599.147h288.723l29.33,38.32h-347.38L617.289,599.147z M577.008,683.013v-24.168h369.287v24.168H577.008z"/>
	</g>
</g>
<path fill="#00BBD1" d="M796.151,257.54c2.087,2.087,4.823,3.131,7.558,3.131s5.471-1.044,7.558-3.131
	c4.176-4.175,4.176-10.942,0-15.115l-87.923-87.923c-4.173-4.173-10.941-4.173-15.115,0c-4.175,4.175-4.175,10.942,0,15.115
	L796.151,257.54z"/>
</svg>
