<?xml version="1.0" encoding="utf-8"?>
<!-- Generator: Adobe Illustrator 16.0.0, SVG Export Plug-In . SVG Version: 6.00 Build 0)  -->
<!DOCTYPE svg PUBLIC "-//W3C//DTD SVG 1.1//EN" "http://www.w3.org/Graphics/SVG/1.1/DTD/svg11.dtd">
<svg version="1.1" id="Layer_1" xmlns="http://www.w3.org/2000/svg" xmlns:xlink="http://www.w3.org/1999/xlink" x="0px" y="0px"
	 width="350px" height="350px" viewBox="0 0 350 350" enable-background="new 0 0 350 350" xml:space="preserve">
<polyline fill="none" stroke="#1594FF" stroke-width="2" stroke-miterlimit="10" points="330.898,162.06 295.213,105.057 
	320.193,47.136 "/>
<polyline fill="none" stroke="#1594FF" stroke-width="2" stroke-miterlimit="10" points="320.193,195.383 290.514,224.482 
	306.814,283.459 "/>
<polyline fill="none" stroke="#1594FF" stroke-width="2" stroke-miterlimit="10" points="118.548,224.205 184.893,290.234 
	208.32,257.221 "/>
<polyline fill="none" stroke="#1594FF" stroke-width="2" stroke-miterlimit="10" points="75.482,207.825 53.166,315.303 
	96.267,305.579 "/>
<polyline fill="none" stroke="#1594FF" stroke-width="2" stroke-miterlimit="10" points="27.587,112.489 75.776,208.411 
	51.682,243.201 "/>
<polyline fill="none" stroke="#1594FF" stroke-width="2" stroke-miterlimit="10" points="51.898,35.93 116.232,79.613 
	216.846,31.867 197.404,87.022 "/>
<path fill="#0B69AA" d="M39.36,93.997c4.291-2.783,7.023-7.708,12.088-9.288c1.745-0.823,3.624-0.379,5.411,0
	c0.007,2.265,0.13,4.644-0.964,6.711c-1.646,3.819-5.212,6.192-7.831,9.271c-1.037,1.128-0.42,2.776-0.256,4.101
	c1.145,5.187,2.545,10.326,3.393,15.579c0.501,3.303,1.209,6.628,0.905,9.98c-0.074,1.558-1.82,3.021-3.251,1.952
	c-1.747-2.71-2.718-5.814-4.25-8.629c-2.166-3.83-4.586-7.725-8.069-10.493c-1.91,0.51-3.13,2.222-4.62,3.417
	c-2.264,2.172-5.253,3.417-7.453,5.665c0.182,2.477,1.212,4.842,1.203,7.344c-0.156,2.233-2.149,3.796-4.265,4.06
	c-1.103-2.034-2.273-4.026-3.482-6.003c-1.639,0.413-3.287,0.798-4.934,1.178c-0.188-1.944,0.066-3.87,0.79-5.684
	c-2.503-1.085-4.857-2.486-6.908-4.274c1.458-1.447,3.095-2.691,4.874-3.697c2.413,0.677,4.851,1.252,7.295,1.831
	c0.543-0.8,1.088-1.59,1.631-2.389c0.534-0.816,1.055-1.639,1.613-2.43c2.24-2.479,4.587-4.883,6.374-7.724
	c-1.556-1.152-3.12-2.297-4.702-3.417c-0.782-0.552-1.556-1.104-2.331-1.671c-2.257-1.746-4.628-3.393-7.329-4.381
	c-2.076-0.98-4.57-1.408-6.127-3.228c-0.066-1.771,2.001-3.104,3.656-2.881c8.324-0.042,16.231,2.922,24.365,4.241
	C37.268,93.313,38.322,93.625,39.36,93.997z"/>
<path fill="#3AB4D0" d="M312.259,242.433c0.905-1.185,2.559-0.928,3.852-1.278c4.095,6.401,4.514,14.332,3.456,21.662
	c-0.568,2.929-1.318,6.043-3.342,8.322c-1.448,0.551-3.028-0.07-4.501-0.159c-1.404-3.709-2.631-7.529-2.663-11.521l1.266,0.473
	c0.83,2.839,1.012,5.946,2.523,8.535c1.324,1.364,3.229,1.288,3.666-0.784c2.107-6.467,2.699-13.774,0.664-20.342
	c-0.414-2.159-2.413-3.064-4.231-3.789c-0.902,3.217-1.664,6.467-2.666,9.643l-1.222,0.408
	C309.416,249.769,309.621,245.507,312.259,242.433z"/>
<path fill="#0B69AA" d="M204.305,235.171c4.195-6.793,12.687-10.833,20.596-9.109c7.995,1.399,15.315,7.997,16.09,16.31
	c0.343,3.834,0.442,7.963-1.281,11.515c-0.527,0.944-1.071,1.879-1.624,2.808c-3.48,0.032-7.013-0.099-10.293-1.362
	c-4.848,1.44-10.942,2.241-14.543-2.182c-5.122-5.212-2.815-14.599,3.744-17.392c4.318-1.445,9.871-0.766,12.755,3.101
	c3.038,3.895,2.12,9.223,2.397,13.831c1.238-0.215,2.474-0.465,3.701-0.743c4.486-8.249-1.317-18.841-9.841-21.481
	c-7.544-2.52-16.502,1.766-19.352,9.156c-3.521,7.668,0.326,17.716,8.244,20.783c5.146,2.808,10.932,0.703,16.231-0.351
	c-0.078,1.229-0.152,2.453-0.23,3.689c-7.654,3.677-17.58,2.76-23.624-3.514C200.504,253.985,199.201,242.824,204.305,235.171
	 M215.743,242.14c-3.259,4.187,0.664,11.058,5.908,10.523c4.881,0.011,7.852-5.874,5.644-10.02
	c-0.958-2.329-3.589-3.038-5.599-4.142C219.564,239.377,216.817,239.776,215.743,242.14z"/>
<g>
	<g>
		<g id="_x23_1fbce5ff">
			<path fill="#0B69AA" d="M231.894,8.19c1.935-0.061,3.884-0.096,5.829-0.137c0.644,1.902,1.261,3.805,1.858,5.726
				c1.678,0.466,3.408,1.012,5.152,0.59c1.652-0.201,3.303-0.466,4.966-0.438c0.306,2.38-0.046,4.887,0.989,7.128
				c1.043,0.855,2.121,1.667,3.19,2.5c1.777-0.048,3.563-0.077,5.358-0.105c0.529,1.922,1.076,3.839,1.59,5.783
				c-1.431,0.778-2.86,1.563-4.312,2.327c-0.104,1.776-0.19,3.567-0.248,5.351c1.479,0.736,2.977,1.479,4.463,2.228
				c-0.378,2.068-0.916,4.116-1.543,6.129c-1.971-0.015-3.94-0.048-5.912-0.057c-0.861,1.173-1.727,2.339-2.595,3.505
				c0.797,1.708,1.572,3.429,2.369,5.149c-1.664,1.105-3.129,2.866-5.184,3.145c-1.479-0.88-2.749-2.055-4.256-2.88
				c-1.422,0.09-2.784,0.575-4.156,0.91c-0.467,1.881-0.939,3.763-1.41,5.645c-2.013,0.047-4.033,0.075-6.045,0.108
				c-0.513-1.901-1.022-3.796-1.494-5.698c-1.345-0.354-2.652-0.86-4.047-0.952c-1.651,0.888-3.171,2.014-4.727,3.062
				c-1.527-0.952-3.054-1.896-4.589-2.826c0.61-1.832,1.384-3.623,1.903-5.484c-0.466-1.325-1.375-2.463-2.083-3.666
				c-2.09,0.049-4.18,0.092-6.263,0.133c-0.416-1.903-1.617-3.853-1.11-5.817c1.077-1.256,2.686-1.881,4.062-2.756
				c0.008-1.61,0.008-3.214,0.015-4.824c-1.623-0.973-3.229-1.958-4.839-2.951c0.346-1.013,0.693-2.013,1.028-3.027
				c0.04-0.609,0.139-1.833,0.179-2.444c2.141-0.013,4.276,0.016,6.424,0.104c0.881-1.194,2.157-2.221,2.617-3.651
				c-0.505-1.818-1.369-3.497-2.087-5.226c1.528-1.013,2.856-2.534,4.721-2.902c1.812,0.354,3.043,1.95,4.646,2.762
				c1.383-0.202,2.743-0.569,4.111-0.882C230.921,11.898,231.414,10.044,231.894,8.19 M231.491,22.442
				c-4.692,1.479-8.682,5.934-8.892,10.995c-0.346,3.812,1.2,7.816,4.205,10.231c4.43,4.233,12.037,3.963,16.46-0.125
				c5.28-4.499,5.546-13.814,0.01-18.207C240.354,21.964,235.585,21.783,231.491,22.442z"/>
		</g>
		<path fill="#0B69AA" d="M247.606,11.287c1.887,0.855,3.686,1.909,5.409,3.096c-0.771,2.222-1.534,4.45-2.313,6.678
			c-1.046-2.241-0.693-4.748-0.999-7.128c-1.666-0.028-3.316,0.237-4.967,0.438C245.685,13.341,246.647,12.315,247.606,11.287z"/>
	</g>
	<g id="_x23_4fc7e1ff">
		<path fill="#0B69AA" d="M231.837,37.539c-1.438-2.561-1.084-6.509,2.262-7.246c2.973-0.868,5.234,2.228,4.597,4.969
			c0.083,2.041-2.104,2.646-3.497,3.534C234.081,38.366,232.954,37.949,231.837,37.539z"/>
	</g>
</g>
<g id="_x23_e0ebebff">
</g>
<g id="_x23_e3e9e7ff">
</g>
<g id="_x23_f7fffcff">
</g>
<g id="_x23_e0ececff">
</g>
<g id="_x23_d7f1f2ff">
</g>
<g id="_x23_deedf0ff">
</g>
<g id="_x23_e1eae7ff">
</g>
<g id="_x23_d1f1f8ff">
</g>
<g id="_x23_d6f4fcff">
</g>
<g id="_x23_e0ebedff">
</g>
<g id="_x23_c5f6feff">
</g>
<g id="_x23_f9fdffff">
</g>
<g id="_x23_99e6f1ff">
</g>
<g id="_x23_b5f5ffff">
</g>
<g id="_x23_e0eaecff">
</g>
<g>
	<g id="_x23_25b2d1ff">
		<path fill="#0B69AA" d="M282.442,74.907c1.263-1.12,2.315-2.917,4.258-2.737c2.578,3.849,5.355,7.791,9.469,10.138
			c5.324,1.947,9.585-2.645,12.453-6.461c1.058-1.452,2.131-4.755,4.484-3.309c2.359,0.872,1.646,3.796,0.111,5.123
			c-0.574,0.104-1.712,0.316-2.289,0.42c-2.031,2.208-4.08,4.405-6.109,6.622c0.13,0.786,0.264,1.583,0.394,2.375
			c-4.142-0.221-8.29-0.273-12.436-0.213c-0.328-1.103-0.647-2.208-1.021-3.293c-2.063-2.807-4.594-5.347-7.843-6.74
			C283.544,76.354,282.812,75.385,282.442,74.907z"/>
	</g>
	<g id="_x23_1ab8deff">
		<path fill="#0B69AA" d="M273.669,91.714c7.894-1.933,16.08-1.952,24.16-1.94c6.897,0.101,13.875,0.257,20.588,1.985
			c2.304,2.103,4.938,4.268,5.742,7.434c1.78,6.208,1.25,12.736,1.378,19.107c-0.502,2.943-0.899,6.011-2.368,8.666
			c-1.356,2.446-3.799,3.925-5.914,5.634c-0.069,0.264-0.216,0.78-0.283,1.036c-0.193,2.222-0.203,4.446-0.203,6.674
			c-1.534-0.02-3.062-0.025-4.592-0.036c-0.315-2.224-0.647-4.446-0.983-6.663c-9.432,0.581-18.896,0.643-28.319,0.127
			c-0.274,1.942-0.565,3.875-0.827,5.817c-1.439,0.154-2.876,0.291-4.308,0.426c-0.196-2.23-0.427-4.455-0.71-6.67
			c-2.877-0.977-5.497-2.586-7.464-4.914c-2.64-4.439-2.882-9.735-3.02-14.763c-0.039-4.663,0-9.4,1.149-13.942
			C268.596,96.375,271.144,93.889,273.669,91.714 M283.503,99.293c-0.154,0.105-0.473,0.316-0.63,0.421
			c-0.194,7.228-0.425,14.466-0.141,21.682c0.008,2.044,0.771,4.055,2.463,5.289c0.074,0.212,0.231,0.641,0.307,0.845
			c4.893,1.386,10.165,1.344,15.148,0.796c4.628,0.496,9.289-0.071,13.869-0.728c2.719-0.813,5.033-3.301,5.244-6.209
			c0.769-6.246,0.687-12.589-0.104-18.837c-0.364-3.181-3.011-6.414-6.391-6.458c-7.968-0.916-16.013-1.009-24.02-0.744
			C286.636,95.289,284.849,97.328,283.503,99.293z"/>
	</g>
</g>
<g id="_x23_d2f9ffff">
</g>
<g id="_x23_d2f4f8ff">
</g>
<g id="_x23_ccf7fdff">
</g>
<g id="_x23_d8fcfdff">
</g>
<g>
	<g id="_x23_16b0d3ff">
		<path fill="#0B69AA" d="M297.909,9.708c-0.555-2.326,1.43-3.738,3.178-4.687c0.122,0.658,0.367,1.97,0.481,2.627
			c0.192,1.183,0.399,2.387,0.611,3.581l0.177,1.076C300.571,12.167,297.674,12.331,297.909,9.708z"/>
	</g>
	<g>
		<g id="_x23_24a7c6ff">
			<path fill="#0B69AA" d="M296.715,5.641c1.367-1.741,3.819-1.529,5.795-1.63c11.255,0.025,22.499,0.245,33.76,0.118
				c2.168,0.219,5.262-0.374,6.357,2.078c0.943,2.499-0.117,5.178-0.47,7.69c-1.542,0-3.066,0.057-4.587,0.065
				c-12.006-0.065-23.999,0.099-36.002,0.046c-1.775-0.026-4.026-0.055-4.928-1.914C296.101,9.996,296.16,7.727,296.715,5.641
				 M297.909,9.708c-0.235,2.625,2.659,2.461,4.447,2.599l-0.177-1.077c1.096-0.02,2.198-0.038,3.302-0.055
				c0.333-0.666,1.003-1.997,1.331-2.652c-0.778-0.691-1.583-1.341-2.403-1.95c-0.968,0.327-1.909,0.685-2.841,1.076
				c-0.118-0.659-0.365-1.97-0.481-2.627C299.339,5.97,297.354,7.38,297.909,9.708 M314.768,5.349
				c0.92,2.314,1.103,4.765-0.053,7.045c8.668-0.192,17.339-0.33,25.997-0.165c0.204-1.319,0.812-2.661,0.539-4.009
				c-0.791-1.513-2.305-2.854-4.106-2.726C329.688,5.304,322.228,5.658,314.768,5.349 M310.113,6.652
				c-0.435,1.314-1.279,2.79-0.386,4.121c1.348,0.547,2.828,0.309,4.241,0.354c-0.066-1.546-0.313-3.086-0.806-4.554
				C312.144,6.597,311.126,6.624,310.113,6.652z"/>
		</g>
		<g id="_x23_15b2daff">
			<path fill="#0B69AA" d="M314.768,5.349c7.46,0.309,14.918-0.046,22.379,0.146c1.8-0.128,3.314,1.213,4.107,2.726
				c0.273,1.348-0.335,2.688-0.53,4.009c-8.67-0.165-17.34-0.026-26.007,0.165C315.872,10.114,315.688,7.664,314.768,5.349z"/>
		</g>
		<g id="_x23_c0ffffff">
			<path fill="#0B69AA" d="M310.113,6.652c1.013-0.028,2.03-0.055,3.05-0.081c0.493,1.468,0.739,3.008,0.806,4.554
				c-1.413-0.045-2.905,0.194-4.241-0.353C308.838,9.442,309.681,7.965,310.113,6.652z"/>
		</g>
		<g id="_x23_c8fafdff">
			<path fill="#0B69AA" d="M301.574,7.647c0.928-0.391,1.873-0.75,2.844-1.076c0.815,0.608,1.618,1.258,2.396,1.95
				c-0.326,0.656-0.994,1.986-1.33,2.651c-1.103,0.019-2.203,0.038-3.302,0.056C301.971,10.035,301.765,8.829,301.574,7.647z"/>
		</g>
		<g id="_x23_3abce0ff">
			<path fill="#0B69AA" d="M296.671,20.153c0.488-1.688,2.387-1.906,3.869-1.898c10.219-0.19,20.448,0.127,30.658-0.065
				c3.385-0.034,6.778,0.073,10.168,0.073c2.692,2.673,1.907,6.835,0.518,9.962l-0.743-0.016
				c-14.166,0.035-28.334-0.092-42.489,0.137c-0.715-0.731-1.429-1.441-2.158-2.134C296.442,24.199,296.188,22.137,296.671,20.153
				 M313.696,19.894l0.045,1.151c-1.322-0.018-2.646-0.038-3.969-0.057c-0.188,1.115-0.319,2.225-0.387,3.354
				c1.137,1.448,2.943,1.004,4.493,0.703c0.007,0.445,0.023,1.35,0.031,1.802c6.837-0.125,13.673-0.079,20.502,0.012
				c2.341-0.13,5.222,0.136,6.888-1.886c0.037-1.545,0.886-4.768-1.467-4.787C331.143,19.714,322.41,20.16,313.696,19.894
				 M301.887,21.146c-0.212,1.768-0.144,5.037,2.516,4.376c2.36-0.176,1.97-2.946,1.469-4.541
				C304.539,21.035,303.21,21.088,301.887,21.146z"/>
		</g>
		<g id="_x23_2fc4e7ff">
			<path fill="#0B69AA" d="M313.696,19.894c8.718,0.266,17.446-0.18,26.139,0.292c2.357,0.019,1.506,3.242,1.467,4.786
				c-1.665,2.023-4.547,1.757-6.888,1.887c-6.829-0.092-13.658-0.137-20.494-0.013c-0.016-0.452-0.031-1.356-0.038-1.802
				c-0.045-1.342-0.084-2.672-0.137-4.002L313.696,19.894z"/>
		</g>
		<g id="_x23_c9f8fdff">
			<path fill="#0B69AA" d="M301.887,21.146c1.321-0.058,2.654-0.111,3.984-0.164c0.501,1.593,0.892,4.365-1.469,4.541
				C301.743,26.183,301.675,22.913,301.887,21.146z"/>
		</g>
		<g id="_x23_c7faffff">
			<path fill="#0B69AA" d="M309.771,20.988c1.323,0.02,2.647,0.039,3.97,0.057c0.053,1.329,0.093,2.658,0.137,4
				c-1.551,0.301-3.369,0.745-4.495-0.703C309.453,23.213,309.583,22.103,309.771,20.988z"/>
		</g>
		<g id="_x23_51c4e0ff">
			<path fill="#0B69AA" d="M298.503,32.216c14.192,0.11,28.371-0.106,42.56,0.091c3.036,2.342,2.09,6.51,1.369,9.719
				c-6.836,0.327-13.688,0.164-20.522,0.41c0.016,1.685,0.025,3.381,0.054,5.076c0.528,0.202,1.602,0.582,2.137,0.783l0.44,0.602
				c0.059,1.05,0.146,2.105,0.22,3.164c6.052-0.065,12.098-0.046,18.152,0.026c0.088,0.958,0.264,2.854,0.354,3.81
				c-3.567,0.456-7.156,0.631-10.735,0.54c-12.07-0.194-24.146,0.244-36.206-0.22c0.023-1.403,0.045-2.806,0.078-4.22
				c6.068,0.074,12.151,0.065,18.221-0.052c0.053-1.141,0.122-2.29,0.186-3.426c0.906-0.312,1.803-0.62,2.715-0.932
				c0.039-1.612,0.085-3.216,0.131-4.821c6.925-1.858,14.137-1.669,21.207-2.459c1.925-0.019,2.51-2.342,2.562-3.901
				c-0.603-2.343-3.483-2.125-5.37-2.399c-7.254-0.163-14.547-0.666-21.795-0.06c-0.228,0.091-0.684,0.273-0.912,0.365
				c-1.233,0.528-2.478,1-3.613,1.71c-0.304,1.077-0.448,2.19-0.63,3.282c1.656-0.02,3.331-0.045,5.004-0.092
				c0.866,1.141,1.807,2.231,2.82,3.263c-6.562-0.406-13.139,0.031-19.712-0.373C296.101,38.764,295.567,34.806,298.503,32.216
				 M302.631,35.38c-1.285,0.729-0.981,2.642-0.394,3.763c1.155,0.421,2.906,0.783,3.68-0.483
				C307.604,36.892,304.585,33.349,302.631,35.38z"/>
		</g>
		<g id="_x23_43c8ecff">
			<path fill="#0B69AA" d="M314.266,33.938c7.248-0.601,14.541-0.099,21.793,0.064c1.889,0.274,4.77,0.056,5.371,2.399
				c-0.056,1.559-0.637,3.882-2.561,3.901c-7.072,0.791-14.282,0.602-21.208,2.46l-0.723-0.292
				c-1.013-1.031-1.954-2.122-2.821-3.263c-0.313-1.631-0.556-3.262-0.762-4.905C313.581,34.212,314.037,34.03,314.266,33.938z"/>
		</g>
		<g id="_x23_ccf7fcff">
			<path fill="#0B69AA" d="M302.631,35.38c1.954-2.031,4.974,1.513,3.285,3.28c-0.779,1.266-2.524,0.904-3.679,0.483
				C301.649,38.022,301.346,36.11,302.631,35.38z"/>
		</g>
		<g id="_x23_cef3ffff">
			<path fill="#0B69AA" d="M309.75,36.019c1.128-0.711,2.379-1.187,3.606-1.715c0.207,1.643,0.447,3.273,0.761,4.905
				c-1.665,0.046-3.347,0.072-5.004,0.091C309.294,38.205,309.439,37.094,309.75,36.019z"/>
		</g>
	</g>
</g>
<g>
	<g id="_x23_2cc2e8ff">
		<path fill="#0B69AA" d="M100.659,37.595c1.876-0.512,3.779-1.167,5.756-1.067c5.073,0.609,10.183,0.609,15.238-0.136
			c1.752,0.208,3.492,0.55,5.215,0.917c4.841,1.258,9.377,3.439,13.832,5.675c2.021,2.039,3.843,5.299,1.913,8.011
			c-1.265,2.225-4.094,1.671-6.211,1.706c-10.384-7.984-25.057-9.437-36.994-4.248c-3.053,1.337-5.587,3.682-8.757,4.759
			c-2.134,0.135-4.221-1.186-5.207-3.062c0.134-1.868-0.503-4.302,1.194-5.632C90.671,41.135,95.701,39.212,100.659,37.595z"/>
		<path fill="#0B69AA" d="M101.097,59.472c7.042-3.647,15.69-4.487,23.115-1.5c2.366,1.008,5.12,1.923,6.487,4.267
			c2.424,3.656-2.766,9.151-6.536,6.644c-4.213-2.184-9.046-3.718-13.797-2.443c-3.43,0.668-6.206,4.097-9.922,2.958
			c-1.213-1.422-2.434-2.903-3-4.709C97.496,62.364,99.481,60.836,101.097,59.472z"/>
	</g>
	<g id="_x23_2cc1e8ff">
		<path fill="#0B69AA" d="M111.317,76.313c4.372-1.484,10.057,1.489,10.255,6.366c0.572,3.925-2.631,8.057-6.763,7.734
			c-3.171,0.465-5.749-1.789-7.488-4.158C106.656,82.4,108.105,78.576,111.317,76.313z"/>
	</g>
</g>
<g id="_x23_d9edeeff">
</g>
<g id="_x23_fcfffeff">
</g>
<g id="_x23_f5ffffff">
</g>
<g id="_x23_d2f4f9ff">
</g>
<g>
	<path fill="#0B69AA" d="M37.746,24.61c-0.72-3.685,2.346-7.7,6.232-7.344c-1.015,0.391-2.041,0.746-3.075,1.102
		c-0.229,0.398-0.696,1.212-0.923,1.619c-1.136,2.286-1.261,5.243,0.609,7.189c1.592,2.009,4.397,1.553,6.64,1.509
		c1.718-0.746,2.499-2.568,3.565-3.982c-0.492,2.38-1.906,4.651-4.368,5.337C42.667,31.115,38.423,28.456,37.746,24.61z"/>
	<g id="_x23_19b8dfff">
		<path fill="#0B69AA" d="M33.952,6.52c4.251,0.237,8.292-1.831,12.551-1.279c6.158,0.576,11.976,3.837,15.737,8.741
			c4.056,5.59,4.76,13.204,2.549,19.657c-1.321,3.855-4.269,6.768-6.725,9.909c0.483-0.116,1.457-0.363,1.939-0.482
			c-1.703,1.61-3.71,2.83-5.785,3.871c3.345,0.737,6.977,1.676,9.036,4.682c-0.347,0.518-1.04,1.542-1.388,2.058
			c-1.525,0.315-3.041,0.678-4.591,0.882c-10.4,0.915-21.386,1.938-31.387-1.737c1.313-4.074,5.598-5.031,9.273-5.828
			c-4.532-2.278-8.605-5.674-10.977-10.221c-2.575-4.44-2.28-9.768-1.941-14.695c0.527-3.99,2.771-7.428,5.065-10.62
			c0.127-0.593,0.39-1.788,0.525-2.381c0.264,0.075,0.789,0.229,1.051,0.306l0.348,0.213c-0.085,0.363-0.246,1.083-0.329,1.438
			c1.83-0.636,3.583-1.693,3.837-3.794C33.13,6.976,33.537,6.747,33.952,6.52 M39.938,12.227c-5.2,1.973-8.309,7.919-7.141,13.331
			c0.873,5.972,6.825,10.57,12.841,9.817c7.894-0.152,13.424-9.495,10.187-16.565C53.492,12.667,45.936,9.644,39.938,12.227z"/>
	</g>
	<g id="_x23_37abc2ff">
		<path fill="#0B69AA" d="M29.235,9.594c1.16-0.797,2.321-1.602,3.506-2.355c-0.254,2.101-2.008,3.159-3.837,3.794
			C28.988,10.677,29.149,9.957,29.235,9.594z"/>
	</g>
	<g id="_x23_28adcbff">
		<path fill="#0B69AA" d="M41.768,21.136c1.102-0.381,2.194-0.771,3.287-1.168c0.906,0.661,1.83,1.294,2.608,2.102
			c0.552,1.804-0.61,3.329-1.836,4.496c-1.058-0.17-2.15-0.28-3.142-0.711c-1.322-0.653-0.728-2.32-0.917-3.473
			C41.768,22.07,41.768,21.452,41.768,21.136z"/>
	</g>
</g>
<g id="_x23_e0ebecff">
</g>
<g id="_x23_d9eeedff">
</g>
<g id="_x23_d8eff3ff">
</g>
<g id="_x23_f8ffffff">
</g>
<g id="_x23_c8f3ffff">
</g>
<g id="_x23_ccf7feff">
</g>
<g id="_x23_d6f0f3ff">
</g>
<g id="_x23_fdfffaff">
</g>
<g id="_x23_e1ebebff">
</g>
<g id="_x23_e6efedff">
</g>
<g>
	<g id="_x23_2abee6ff">
		<path fill="#0B69AA" d="M300.725,156.473c2.669-4.337,7.015-7.373,10.399-11.15c1.014,0.731,2.056,1.465,3.059,2.211
			c0.252,0.511,0.732,1.511,0.97,2.01c0.052,0.435,0.153,1.329,0.198,1.766c-2.506,2.651-5.191,5.131-7.583,7.891
			c-0.701,0.874-1.602,1.267-2.7,1.204C303.048,159.943,301.98,157.945,300.725,156.473z"/>
	</g>
	<g id="_x23_5cabb3ff">
		<path fill="#0B69AA" d="M315.154,149.547c1.303,0.428,1.368,1.016,0.199,1.766C315.308,150.876,315.212,149.982,315.154,149.547z"
			/>
	</g>
	<g id="_x23_25c1e9ff">
		<path fill="#0B69AA" d="M318.045,153.259c2.339,0.499,3.832,2.471,5.431,4.079c-2.376,3.678-4.789,7.327-7.354,10.88
			c4.417-3.005,8.531-6.425,12.853-9.559c0.719,0.287,2.132,0.866,2.849,1.153c0.72-0.251,2.176-0.77,2.899-1.027
			c1.832,1.176,4.076,2.055,5.238,4.007c0.438,1.651,0.352,3.383,0.493,5.067c1.062,2.597-0.594,4.784-2.225,6.668
			c-2.4,2.891-4.723,5.845-7.008,8.814c3.24-1.913,6.415-3.94,9.576-5.982c1.805,1.26,3.186,2.961,4.097,4.968
			c-3.104,2.849-6.167,5.737-8.943,8.915c-2.264-1.588-4.278-3.479-6.277-5.361c0.031,5.781-1.676,12.167-6.674,15.625
			c-1.562,0.327-3.177,0.176-4.752,0.205c1.792,0.251,3.583,0.534,5.381,0.82c-1.084-0.062-2.158-0.117-3.229-0.178
			c-0.472-0.028-1.386-0.071-1.855-0.098c-3.044-1.805-6.492-3.133-8.86-5.882c0.31-0.276,0.901-0.813,1.201-1.086
			c2.859,1.11,5.405,2.896,8.201,4.165c0.338-4.513-3.008-7.912-5.745-11.056c-3.609-3.644-7.455-7.595-12.714-8.592
			c0.422,1.801,0.901,3.598,1.371,5.395c-0.114,0.622-0.366,1.859-0.479,2.473c-2.127-3.092-4.616-6.668-3.828-10.622
			c3.123-5.441,10.047-7.031,15.91-6.909c-0.088-0.257-0.257-0.784-0.349-1.042c-1.854-1.768-3.63-3.625-5.569-5.303
			C311.192,160.338,314.691,156.865,318.045,153.259z"/>
	</g>
	<g id="_x23_55b9ccff">
		<path fill="#0B69AA" d="M340.796,177.36c2.606-1.485,4.169,1.86,5.883,3.269c-0.602,0.57-1.201,1.14-1.789,1.7
			C343.98,180.32,342.6,178.619,340.796,177.36z"/>
	</g>
	<g id="_x23_2bbee6ff">
		<path fill="#0B69AA" d="M338.813,193.149c3.15-3.686,6.783-6.914,10.384-10.159c1.707,1.804,3.492,3.547,5.346,5.229
			c-3.694,3.74-7.406,7.46-11.167,11.126c-1.632-1.528-3.254-3.068-4.878-4.596C338.574,194.357,338.734,193.554,338.813,193.149z"
			/>
	</g>
	<g id="_x23_35b9d8ff">
		<path fill="#0B69AA" d="M302,185.199c1.439,1.651,2.948,3.257,4.454,4.857c1.114-0.661,2.214-1.395,3.419-1.915
			c0.589,0.64,1.168,1.299,1.723,1.985c-2.966,2.347-5.519,5.224-6.714,8.867c-1.553,1.979-5.235,0.217-4.984-2.302
			c-0.616-3.074,3.047-3.46,5.09-4.331c-0.77-0.992-1.539-1.968-2.269-2.966c-0.421-0.569-0.82-1.148-1.206-1.724
			C301.633,187.058,301.887,185.818,302,185.199z"/>
	</g>
</g>
<g id="_x23_deececff">
</g>
<g id="_x23_dfeaeaff">
</g>
<g id="_x23_feffffff">
</g>
<g id="_x23_dfeaecff">
</g>
<g id="_x23_fefffdff">
</g>
<g id="_x23_e1e7eaff">
</g>
<g id="_x23_e3edebff">
</g>
<g id="_x23_e1ebeaff">
</g>
<g id="_x23_d3f3f9ff">
</g>
<g id="_x23_e8ffffff">
</g>
<g id="_x23_cdf7fcff">
</g>
<g>
	<path fill="#0B69AA" d="M96.785,207.996c1.359-2.027,1.521-5.812,3.937-6.574c2.188,3.422,3.09,7.56,5.781,10.67
		c2.177,2.608,4.166,5.371,5.867,8.318c-0.371-0.362-1.103-1.082-1.464-1.453c-4.185-4.129-8.653-8.266-10.508-14.037
		c-0.883,1.716-1.741,3.462-2.777,5.091c-1.102,0.012-2.167,0.189-3.195,0.523c-1.303,0.789,0.409,1.893,1.255,1.985
		c5.839,1.438,9.279,6.704,13.323,10.697l-1.037-0.722c-1.713-1.121-3.424-3.014-5.565-1.787c0.104-0.561,0.305-1.673,0.399-2.227
		c-3.224-2.445-6.952-4.013-10.583-5.73c-1.056-0.307-1.188-1.453-1.608-2.296C92.675,209.641,94.721,208.812,96.785,207.996z"/>
	<g id="_x23_23b9ddff">
		<path fill="#0B69AA" d="M82.978,182.142c10.033-4.985,23.764-0.608,28.747,9.508c2.262,4.241,2.587,9.179,4.545,13.55
			c1.008,2.761,2.938,5.011,4.442,7.493c0.254,1.357-0.097,2.76-0.172,4.138c-1.189-0.198-2.68,0.104-3.454-1.084
			c-2.168-2.421-3.898-5.229-5.333-8.131c-2.053-4.267-2.519-9.09-4.49-13.389c-2.881-5.231-8.586-8.853-14.606-8.892
			c-7.027-0.361-13.418,4.449-16.557,10.469c-2.711,5.326-2.396,12.076,1.122,16.965c2.673,4.302,7.514,6.688,12.412,7.419
			c5.981,1.408,11.592,4.44,16.052,8.673c0.078,1.398-1.161,2.292-1.854,3.365c-0.475-0.085-1.426-0.246-1.913-0.323
			c-1.91-1.552-3.898-3.038-6.143-4.061c-5.458-2.54-11.734-2.977-16.859-6.275c-3.69-2.272-5.992-6.075-8.275-9.633
			C66.22,200.73,72.003,186.959,82.978,182.142z"/>
	</g>
	<g id="_x23_d0fbfbff">
		<path fill="#0B69AA" d="M76.101,195.803c0.95,3.566-1.55,7.171-0.181,10.708c0.99,3.967,4.755,6.02,7.626,8.511
			c2.598,2.397,6.628,2.309,8.997,5.048c-0.732,0.027-2.188,0.084-2.91,0.115c-4.897-0.729-9.738-3.121-12.411-7.42
			C73.706,207.88,73.391,201.129,76.101,195.803z"/>
	</g>
	<g id="_x23_2cc1e7ff">
		<path fill="#0B69AA" d="M108.319,234.858c4.936-5.799,10.643-10.956,16.215-16.145c1.436,1.54,2.929,3.038,4.545,4.395
			c0.57,4.383-2.577,8.226-1.646,12.648c-1.253,1.123-2.455,2.605-4.305,2.56c-3.462,0.113-6.761,1.854-10.215,1.483
			C111.183,238.577,108.29,237.198,108.319,234.858z"/>
	</g>
</g>
<g id="_x23_ebffffff">
</g>
<g id="_x23_ddecf0ff">
</g>
<g id="_x23_8fe2f0ff">
</g>
<g id="_x23_22c0e7ff">
	<path fill="#0B69AA" d="M297.067,205.64c2.222-1.32,5.394-0.936,6.755,1.428c3.276,4.641,6.758,10.001,6.318,15.912
		c-3.831,3.211-8.691,4.798-12.914,7.383c-0.01,2.224,0.135,4.59-1.038,6.591c1.435,3.918,3.739,7.415,5.661,11.113
		c3.283,1.949,7.264,2.59,10.951,1.459l1.066-0.356c0.884-2.781,1.55-5.632,2.337-8.442c1.594,0.636,3.341,1.429,3.706,3.318
		c1.783,5.742,1.264,12.143-0.58,17.806c-0.382,1.807-2.052,1.876-3.211,0.685c-1.325-2.27-1.482-4.984-2.207-7.469l-1.111-0.414
		c-3.324-0.506-6.977-0.835-9.969,0.99c-2.239,1.511-5.313-0.77-5.258-3.271c-0.407-4.85-3.588-8.804-5.622-13.075
		c-2.223-0.483-4.241-1.533-6.37-2.28c-4.938,0.694-8.542,5.307-13.599,5.614c-1.55-1.108-2.743-2.636-4.311-3.71
		c-1.437,0.314-2.776,1.065-4.258,1.074c-2.311-1.83-3.771-4.618-3.324-7.612c1.202-0.41,2.396-0.83,3.593-1.247
		c-0.477-2.464-0.9-4.951-0.987-7.462C274.212,217.786,285.602,211.633,297.067,205.64 M295.654,233.258
		c-1.392,5.511,1.42,11.436,5.584,15c-1.191-3.86-3.721-7.096-5.173-10.818c0.597-2.601,0.996-5.245,0.423-7.9
		C296.174,230.771,295.88,232.004,295.654,233.258z"/>
</g>
<g id="_x23_179cbdff">
	<path fill="#0B69AA" d="M189.943,59.793c0.315-0.193,0.961-0.601,1.274-0.805l-0.685,1.132c3.698,0.989,7.271,2.635,10.018,5.356
		c5.266,6.022,5.998,14.226,7.642,21.71c0.875,5.221,2.02,10.419,2.422,15.719c-8.145-1.183-16.24-2.723-24.314-4.329
		c-2.881-0.629-5.829-1.249-8.442-2.642c-4.612-2.675-8.394-6.992-9.599-12.261c-2.113-7.574,1.104-16.211,7.742-20.452
		C179.997,60.2,185.08,59.619,189.943,59.793 M184.734,67.211c-4.949,1.209-9.474,5.336-9.579,10.672
		c-0.562,3.391,1.271,6.4,2.829,9.238c3.154,2.46,7.231,4.445,11.313,3.282c6.65-1.22,11.072-8.968,8.673-15.298
		C195.909,69.903,190.409,66.301,184.734,67.211z"/>
</g>
<g id="_x23_3dbeddff">
	<path fill="#0B69AA" d="M19.098,291.912c10.208,1.668,20.104,4.829,30.181,7.141c3.087,0.759,6.174,1.551,9.082,2.867
		c-3.683,14.146-7.434,28.298-10.786,42.538c-2.064-0.093-4.157-0.199-6.146-0.833c-5.532-1.704-11.176-2.99-16.79-4.399
		c-5.408-1.62-11.167-2.23-16.279-4.701c0.284-3.719,1.543-7.264,2.432-10.852C13.785,313.143,15.858,302.376,19.098,291.912
		 M21.426,296.818c-0.493,2.227-0.938,4.459-1.288,6.713c10.719,2.368,21.224,5.646,31.896,8.175
		c0.605-2.348,1.183-4.699,1.732-7.067c-0.236-0.15-0.71-0.452-0.946-0.605c-0.681-0.14-2.026-0.438-2.7-0.579
		c-7.51-1.948-15.057-3.737-22.529-5.834C25.584,297.043,23.49,296.95,21.426,296.818 M17.554,312.081
		c2.954,0.712,5.861,1.638,8.532,3.119c0.361-1.849,0.729-3.698,1.089-5.535c-2.538-0.803-5.084-1.602-7.632-2.393
		C18.869,308.874,18.216,310.474,17.554,312.081 M30.509,310.794c-0.361,1.604-0.711,3.212-1.052,4.818
		c2.964,0.229,5.862,0.938,8.665,1.915c0.208-1.751,0.407-3.497,0.597-5.236C35.992,311.711,33.264,311.188,30.509,310.794
		 M42.706,313.947c-0.957,1.375-1.137,3.089-1.591,4.658c2.935,0.198,5.842,0.834,8.437,2.275c0.446-1.657,0.911-3.327,1.374-4.971
		C48.312,314.86,45.575,313.824,42.706,313.947 M15.177,322.188c2.993,0.228,5.917,0.899,8.779,1.8
		c0.237-1.722,0.474-3.44,0.69-5.163c-2.67-0.654-5.331-1.344-7.981-2.074C16.151,318.551,15.649,320.369,15.177,322.188
		 M26.626,324.356c3.077,0.7,6.118,1.63,8.854,3.228c0.342-1.79,0.786-3.568,0.984-5.379c-2.489-1.26-5.265-1.973-8.039-2.092
		C27.724,321.477,27.203,322.926,26.626,324.356 M40.083,323.39c-1.79,4.62-2.793,9.517-3.901,14.347
		c2.926-0.131,5.927,0.188,8.324,2.025c1.401-4.952,3.097-9.859,3.711-14.989C45.537,324.158,42.868,323.267,40.083,323.39
		 M14.012,326.401c-0.371,1.495-0.769,3.001-1.061,4.528c2.747,0.805,5.55,1.43,8.201,2.529c0.513-1.687,1.024-3.373,1.525-5.06
		C19.807,327.649,16.917,326.979,14.012,326.401 M26.047,329.129c-0.454,1.776-0.899,3.567-1.326,5.356
		c2.841,0.188,5.626,0.867,8.183,2.16c0.53-1.779,0.938-3.589,1.258-5.405C31.435,330.616,28.729,329.927,26.047,329.129z"/>
</g>
<g id="_x23_fbfefdff">
</g>
<g id="_x23_dbededff">
</g>
<g>
	<path fill="#0B69AA" d="M50.854,211.945c2.455-0.207,4.927-0.216,7.382-0.096c0.019,2.382,0.038,4.76,0.046,7.139
		c-2.473-0.021-4.945-0.044-7.418-0.078C50.883,216.59,50.883,214.268,50.854,211.945 M53.233,213.016
		c-1.399,0.819-0.933,2.605-0.868,3.939c1.474,1.583,4.432,0.83,4.339-1.515C57.116,213.512,54.838,212.409,53.233,213.016z"/>
	<path fill="#0B69AA" d="M7.277,242.866c6.644,0,13.297,0.012,19.941-0.021c-0.008,2.129-0.028,4.268-0.02,6.408
		c0,4.499-0.019,8.995,0.064,13.505h-0.112c-6.626-0.094-13.241-0.068-19.867-0.036C6.979,256.109,7.082,249.48,7.277,242.866
		 M10.208,245.598c-0.177,4.742-0.094,9.491-0.076,14.229c4.702,0.182,9.415,0.129,14.118-0.033
		c-0.214-4.632,0.682-9.557-0.419-13.998C19.306,245.404,14.744,245.675,10.208,245.598z"/>
	<path fill="#0B69AA" d="M61.781,245.481c0.867,0.093,1.736,0.185,2.604,0.279c0.121,0.907,0.233,1.811,0.344,2.726
		c-0.878,0.01-1.764,0.02-2.642,0.036C61.996,247.506,61.893,246.487,61.781,245.481z"/>
	<path fill="#0B69AA" d="M13.493,249.296c2.445-0.047,4.888-0.047,7.334-0.02c0,2.353,0,4.699,0,7.055
		c-2.473,0.046-4.945,0.046-7.418-0.021C13.464,253.972,13.502,251.639,13.493,249.296 M14.762,250.025
		c0.047,2.297-0.187,4.973,2.472,5.839c0.748-1.672,1.494-3.342,2.23-5.01C17.897,250.573,16.33,250.296,14.762,250.025z"/>
	<g id="_x23_2a96afff">
		<path fill="#0B69AA" d="M7.314,205.539c6.644,0.028,13.296-0.09,19.94,0.076c-0.111,6.614-0.141,13.241-0.13,19.861
			c-5.758,0.01-11.516,0.027-17.264-0.104c-0.047,2.026-0.083,4.06-0.139,6.095c-0.719-0.199-2.138-0.593-2.855-0.789
			C7.492,222.312,6.829,213.912,7.314,205.539 M10.189,208.274c-0.083,4.574-0.076,9.153-0.047,13.75l0.038,0.715
			c4.59-0.104,9.173-0.158,13.762-0.122c0.487-4.732,0.308-9.49,0.263-14.238C19.53,208.248,14.864,208.227,10.189,208.274z"/>
	</g>
	<g id="_x23_2896b3ff">
		<path fill="#0B69AA" d="M30.038,205.187l0.093-0.019c2.798,0.491,5.654,0.371,8.491,0.351c0.019,0.673,0.057,2.026,0.075,2.708
			c0.738,0.048,2.211,0.14,2.949,0.187c-0.113,1.913-0.215,3.823-0.337,5.747c-1.744-0.034-3.499-0.076-5.244-0.102
			c-0.141,1.801-0.252,3.607-0.551,5.401c-1.969,0.273-3.966,0.234-5.944,0.263c1.241-1.595,2.388-3.254,3.442-4.971
			c-0.69-0.299-2.09-0.917-2.781-1.217C30.159,210.748,30.176,207.969,30.038,205.187 M32.938,208.369
			c0.076,0.89,0.15,1.786,0.224,2.67c1.847,0.046,3.696,0.102,5.543,0.16c-0.028-1.008-0.047-2.018-0.075-3.024
			C36.738,208.227,34.843,208.297,32.938,208.369z"/>
	</g>
	<g id="_x23_2896adff">
		<path fill="#0B69AA" d="M44.705,205.485c6.626-0.028,13.242-0.013,19.857,0.033c0.009,6.635,0.028,13.262,0.038,19.896
			c-6.635-0.027-13.27-0.027-19.896-0.037C44.687,218.745,44.621,212.11,44.705,205.485 M47.541,208.313
			c-0.112,4.749-0.045,9.511,0.047,14.27c4.713-0.095,9.435-0.022,14.158-0.124c-0.038-4.684-0.047-9.377,0-14.07
			C57.014,208.256,52.274,208.304,47.541,208.313z"/>
	</g>
	<g id="_x23_1d9ebfff">
		<path fill="#0B69AA" d="M13.549,211.85c2.407,0,4.806,0.028,7.212,0.066c0.019,2.355,0.046,4.703,0.075,7.066
			c-2.286,0.009-4.583,0.02-6.867,0.009l-0.43-0.67C13.428,216.158,13.436,213.996,13.549,211.85z"/>
	</g>
	<g id="_x23_1aa3cbff">
		<path fill="#0B69AA" d="M53.233,213.016c1.606-0.606,3.883,0.494,3.472,2.425c0.094,2.345-2.865,3.098-4.339,1.515
			C52.301,215.62,51.834,213.835,53.233,213.016z"/>
	</g>
	<g id="_x23_229cbaff">
		<path fill="#0B69AA" d="M38.584,217.161c0.961-0.17,1.922-0.328,2.885-0.489c0.083,2.651,0.27,5.318-0.047,7.96
			c-1.782,0.68-3.668,1.056-5.505,1.558c-0.037-2.193-0.083-4.387-0.149-6.579c0.709,0.028,2.137,0.093,2.847,0.123
			C38.602,219.092,38.593,217.805,38.584,217.161z"/>
	</g>
	<g id="_x23_3b899fff">
		<path fill="#0B69AA" d="M30.204,222.711c0.897-0.025,1.791-0.046,2.688-0.064c0.027,0.931,0.065,1.863,0.094,2.799
			c-0.961-0.01-1.922-0.021-2.883-0.027C30.14,224.51,30.176,223.611,30.204,222.711z"/>
	</g>
	<g id="_x23_249db2ff">
		<path fill="#0B69AA" d="M15.815,227.869c3.882,0.012,7.763-0.01,11.646,0.062c-0.057,0.668-0.168,1.993-0.234,2.667
			c0.344,0.197,1.044,0.582,1.39,0.774l1.186,0.695c-2.034,2.538-5.393,1.875-8.249,1.852c-0.037-0.555-0.102-1.669-0.139-2.227
			c-2.016-0.208-4.031-0.41-6.046-0.628C15.518,229.998,15.666,228.935,15.815,227.869z"/>
	</g>
	<g id="_x23_269bb3ff">
		<path fill="#0B69AA" d="M58.964,227.774c1.866-0.007,3.741-0.007,5.607-0.007c-0.055,3.733,0.151,7.475-0.204,11.196
			c-1.103,1.072-2.184,2.163-3.212,3.313c-0.307,0.056-0.941,0.186-1.25,0.252c-0.811-3.734-1.726-7.448-3.097-11.013
			c0.542-0.228,1.624-0.669,2.164-0.894C58.973,229.916,58.964,228.486,58.964,227.774 M59.673,236.678
			c0.57,0.125,1.708,0.354,2.287,0.469c-0.01-0.738-0.01-2.232-0.01-2.969C59.861,233.228,57.704,234.732,59.673,236.678z"/>
	</g>
	<g id="_x23_1ba1c2ff">
		<path fill="#0B69AA" d="M29.841,241.635c-0.483-7.679,7.073-14.691,14.715-13.406c7.503,0.763,13.204,8.781,11.076,16.123
			c-0.251,1.662-0.84,3.688,0.748,4.898c3.424,3.303,7.177,6.27,10.488,9.694c-0.428,1.459-0.57,3.1-1.559,4.324
			c-1.474,1.9-4.685,2.135-6.354,0.382c-2.81-2.547-4.955-5.701-7.437-8.537c-2.772-2.531-6.588-0.457-9.864-0.821
			C35.262,254.028,29.681,248.027,29.841,241.635 M39.406,234.748c-5.134,2.475-5.041,10.585-0.048,13.187
			c5.152,3.222,12.392-2.151,10.945-8.007C49.661,235.058,43.577,232.35,39.406,234.748z"/>
	</g>
	<g id="_x23_1f9ebbff">
		<path fill="#0B69AA" d="M9.723,231.467c2.501-0.131,6.223-1.085,6.634,2.514c1.736-0.026,3.462-0.056,5.198-0.066
			c-0.047,1.887-0.094,3.783-0.149,5.667c-1.84,0.024-3.677,0.048-5.515,0.076c-0.094-0.705-0.261-2.126-0.346-2.848
			c-1.818,0.023-3.63,0.038-5.44,0.077C9.975,235.072,9.852,233.263,9.723,231.467z"/>
	</g>
	<g id="_x23_6da2afff">
		<path fill="#0B69AA" d="M24.102,237.073c0.794-0.095,2.399-0.271,3.191-0.365c-0.411,1.597-0.821,3.276-2.482,4.021
			C24.568,239.508,24.328,238.284,24.102,237.073z"/>
	</g>
	<g id="_x23_189fcfff">
		<path fill="#0B69AA" d="M14.762,250.025c1.566,0.271,3.135,0.548,4.702,0.829c-0.737,1.671-1.482,3.344-2.23,5.01
			C14.575,254.998,14.809,252.322,14.762,250.025z"/>
	</g>
	<g id="_x23_348c9bff">
		<path fill="#0B69AA" d="M36.28,256.882c0.812,0.195,1.624,0.384,2.444,0.57c-0.186,0.987-0.381,1.987-0.577,2.986l-1.922-1.832
			c-0.066,1.119-0.122,2.242-0.176,3.367l-0.029,0.739c-1.978-0.011-3.956-0.025-5.926-0.054c0.066-0.906,0.131-1.811,0.196-2.71
			c1.287,0.047,2.567,0.104,3.854,0.161C34.917,259.075,35.608,257.982,36.28,256.882z"/>
	</g>
	<g id="_x23_2693b0ff">
		<path fill="#0B69AA" d="M41.981,257.944c1.67-0.101,3.341-0.206,5.011-0.307c0.177,0.433,0.533,1.297,0.709,1.728
			c1.027,0.905,3.911,1.421,2.25,3.144c-3.695,0.374-7.419,0.08-11.133,0.252l-0.111-0.546c-0.094-0.568-0.28-1.707-0.374-2.275
			c0.757-0.01,2.259-0.026,3.007-0.035C41.495,259.41,41.822,258.432,41.981,257.944z"/>
	</g>
</g>
<g id="_x23_46b8d0ff">
	<path fill="#46B8D0" d="M295.525,242.673c0.195-1.085,0.447-2.149,0.722-3.217c0.495,2.297,0.147,4.592-0.368,6.841
		c1.252,3.233,3.449,6.032,4.484,9.378C296.757,252.585,294.318,247.454,295.525,242.673z"/>
</g>
<g id="_x23_62d1eaff">
	<path fill="#0B69AA" d="M302.184,276.484c7.025-0.234,14.074-0.255,21.094,0.161c2.896,0.351,6.278,0.339,8.412,2.666
		c2.103,1.897,2.505,4.852,2.529,7.538c0.009,16.693-0.031,33.393-0.015,50.078c-0.039,3.691-1.745,8.532-5.913,9.123
		c-11.469,1.426-23.125,1.4-34.567-0.156c-3.813-0.459-5.555-4.58-5.457-8.007c-0.039-17.587,0.019-35.176-0.023-52.767
		c-0.263-3.156,1.734-6.231,4.604-7.469C295.866,276.726,299.05,276.653,302.184,276.484 M294.29,292.604
		c0.231,13.051-0.378,26.153,0.438,39.191c11.063,0.043,22.124,0.089,33.186-0.021c-0.071-15.498-0.062-30.99,0-46.479
		c-10.943-0.893-21.957-0.109-32.933-0.432C294.354,287.393,294.166,290,294.29,292.604 M309.647,335.692
		c-2.787,1.146-1.975,6.609,1.382,6.026c3.605,0.612,3.962-3.631,2.726-6.018C312.391,335.66,311.002,335.457,309.647,335.692z"/>
</g>
<g>
	<g>
		<g id="_x23_52cdecff">
			<path fill="#0B69AA" d="M100.72,252.885c1.932-2.106,4.776-3.416,7.578-2.11c6.768,3.204,13.309,6.896,20.137,9.969
				c1.762,0.796,3.501,1.659,5.23,2.545c-0.655,1.09-1.301,2.189-1.912,3.309c-0.692,1.642-0.716,3.44-0.264,5.151
				c0.264,0.248,0.796,0.728,1.056,0.971c1.014,0.2,2.023,0.383,3.046,0.557c0.174,0.585,0.515,1.766,0.691,2.351
				c-2.105,3.225-2.778,7.368-5.833,9.918c-1.162,0.978-1.65,2.448-2.191,3.814c-0.384-1.791-0.821-3.564-1.284-5.317
				c-0.323,0.905-0.63,1.833-0.918,2.766c0.01-2.844-0.332-5.789,0.674-8.512c0.575-2.035,1.3-4.078,1.274-6.208
				c-5.318-3.398-11.307-5.667-17.044-8.288c0.193,8.829-0.621,17.676,0.147,26.484l0.019,0.234c1.467,0.157,3.292-0.36,4.288,1.075
				c1.459,1.279,0.969,3.337,0.98,5.031c-8.723-0.096-17.542-0.849-26.206,0.297c-1.448-2.218-0.524-5.092,1.791-6.201
				c2.944-0.411,5.93-0.32,8.855-0.905c-0.124-4.41-0.098-8.82-0.141-13.218C100.748,268.688,100.737,260.789,100.72,252.885
				 M101.313,253.667c0.209,12.252-0.392,24.527,0.271,36.771c1.153-4.365,0.438-8.891,0.559-13.331
				c0.113-8.103-0.463-16.258,0.558-24.32C102.353,253.006,101.663,253.452,101.313,253.667 M104.179,254.046
				c0.05,1.903-1.091,4.681,1.282,5.572c2.36,1.631,5.748-2.012,4.097-4.29C108.963,252.998,105.925,254.308,104.179,254.046z"/>
		</g>
		<g id="_x23_6ac3d6ff">
			<path fill="#0B69AA" d="M101.313,253.667c0.35-0.218,1.041-0.659,1.389-0.88c-1.021,8.063-0.446,16.217-0.558,24.32
				c-0.121,4.44,0.593,8.966-0.559,13.331C100.921,278.197,101.523,265.922,101.313,253.667z"/>
		</g>
		<g id="_x23_62c7deff">
			<path fill="#0B69AA" d="M133.665,263.285c1.825,0.966,3.623,2.009,5.406,3.087c0.787,3.45-0.69,6.594-2.786,9.246
				c-0.173-0.584-0.515-1.765-0.69-2.35c-1.021-0.174-2.035-0.361-3.045-0.558c-0.265-0.243-0.794-0.724-1.057-0.971
				c1.476-0.104,2.941-0.199,4.429-0.297c-0.141-1.38-0.219-2.777-0.499-4.14c-1.205-0.332-2.446-0.509-3.666-0.716
				C132.364,265.476,133.011,264.378,133.665,263.285z"/>
		</g>
		<g id="_x23_86cad3ff">
			<path fill="#0B69AA" d="M126.978,284.039c0.461,1.754,0.897,3.525,1.285,5.317c-1.66-0.185-3.651-0.516-2.203-2.55
				C126.347,285.869,126.653,284.946,126.978,284.039z"/>
		</g>
	</g>
	<g id="_x23_58cae7ff">
		<path fill="#0B69AA" d="M82.496,300.429c3.476-0.707,7.038-0.716,10.564-0.647c17.333,0.209,34.683-0.226,52.008,0.193
			c2.758,1.647,5.066,4.905,4.096,8.249c-0.603,3.327-3.921,5.456-7.188,5.316c-13.97,0.028-27.942,0.009-41.92,0
			c-6.025-0.094-12.111,0.445-18.074-0.767C78.593,309.477,78.289,303.204,82.496,300.429 M93.229,303.95
			c0.018,1.832,0.043,3.665,0.069,5.507c4.744-0.071,9.483-0.054,14.222,0c0.025-1.842,0.063-3.675,0.117-5.507
			C102.833,303.964,98.03,303.983,93.229,303.95 M121.205,303.955c0.009,1.843,0.017,3.676,0.032,5.517
			c4.77-0.075,9.528-0.07,14.296-0.008c0.016-1.842,0.052-3.675,0.086-5.509C130.818,303.955,126.008,303.964,121.205,303.955
			 M84.26,305.536c-1.292,1.686,0.839,3.065,1.773,4.218c2.052-1.003,2.689-2.917,2.575-5.065
			C87.071,304.673,84.819,303.363,84.26,305.536 M112.647,304.951c-1.142,1.076-0.359,2.62-0.219,3.921
			c1.23-0.103,2.479-0.159,3.703-0.364c0.577-1.118,0.437-2.438,0.176-3.614C115.364,304.114,113.378,303.694,112.647,304.951
			 M140.711,308.521c1.197,0.224,2.419,0.264,3.633,0.351c0.341-1.626,0.882-4.533-1.546-4.631
			C140.39,303.58,139.289,306.967,140.711,308.521z"/>
	</g>
</g>
<g id="_x23_19bee5ff">
	<path fill="#0B69AA" d="M177.727,282.171c0.793-0.926,1.926-2.405,3.234-1.32c5.116,3.775,9.726,8.238,14.587,12.341
		c2.59-1.98,5.173-3.965,7.668-6.055c0.684-2.273,1.424-5.772,4.507-5.51c3.415-0.709,5.431,3.562,3.729,6.201
		c-1.12,1.824-3.439,1.896-5.279,2.509c-2.272,2.417-4.403,4.961-6.566,7.489c4.504,5.179,9.432,9.985,13.654,15.417
		c-6.09,6.31-15.347,7.659-23.699,6.706c2.259,3.3,4.892,6.398,7.949,8.986c5.052,0.915,10.333,0.083,15.475,0.391
		c-0.01,1.636-0.01,3.274-0.01,4.917c-10.819,0.06-21.634,0-32.456,0.011c-0.16-1.598-0.309-3.19-0.457-4.769
		c1.972-0.076,3.957-0.14,5.938-0.18c-0.446-3.945-3.167-7.038-4.813-10.525c-2.618-5.227-6.208-10.11-7.359-15.946
		C172.592,295.82,173.153,287.941,177.727,282.171z"/>
</g>
<text transform="matrix(1 0 0 1 66.7773 175.4707)" fill="#0B69AA" font-family="'NirmalaUI'" font-size="50">AUXIVerse</text>
</svg>
