<?xml version="1.0" encoding="utf-8"?>
<!-- Generator: Adobe Illustrator 16.0.0, SVG Export Plug-In . SVG Version: 6.00 Build 0)  -->
<!DOCTYPE svg PUBLIC "-//W3C//DTD SVG 1.1//EN" "http://www.w3.org/Graphics/SVG/1.1/DTD/svg11.dtd">
<svg version="1.1" id="Layer_1" xmlns="http://www.w3.org/2000/svg" xmlns:xlink="http://www.w3.org/1999/xlink" x="0px" y="0px"
	 width="256px" height="256px" viewBox="0 0 256 256" enable-background="new 0 0 256 256" xml:space="preserve">
<g>
	<g id="_x23_cdd7dbff">
		<path fill="#0FCCD1" d="M93.48,9.614c10.17-4.67,21.859-8.65,33.01-5.21c0.02,13.42,0,26.85,0.01,40.27
			c-8.109,0.05-16.359,0.36-24.18,2.7c-4.91,1.48-9.7,4.29-12.34,8.83c-3.601,6.16-3.641,13.55-3.211,20.46
			c0.271,3.35-2.64,5.56-5.17,7.12c3.09,1.21,6.18,3.46,6.551,7.02c0.729,3.92-2.2,7.25-5.561,8.75c3.801,1.01,7.551,3.89,7.53,8.18
			c0.21,3.82-2.86,6.57-6.14,7.84c2.97,0.75,6.34,1.71,7.72,4.76c2.399,4.24,0.03,9.551-4.03,11.731c4.41,0.42,8.74,3.809,8.45,8.58
			c0.13,3.699-3.08,6.01-5.97,7.59c2.81,0.43,6.02,0.539,8.09,2.779c2.02,1.76,2.199,4.57,2.84,6.99c-1.33,2.57-3.23,4.77-5.6,6.42
			c4.149,0.221,8.81,2.279,9.56,6.84c1.06,3.961-1.86,7.359-5.13,9.131c3.35,1.59,7.14,4.049,6.98,8.27
			c0.35,3.529-2.521,5.869-5.051,7.73c3.2,1.699,6.87,4.08,6.77,8.199c0.391,3.541-2.549,5.859-4.969,7.859
			c2.659,1.561,5.879,3.191,6.459,6.561c1.34,4.68-2.75,9.65-7.529,9.59c-7.36,0.17-14.62-1.609-21.57-3.92
			c-16.79-6.1-32.24-15.93-44.92-28.5c-2.51-2.67-5.859-5.51-5.52-9.57c0-3.139,2.51-5.279,4.869-6.91
			c-0.38-0.398-1.13-1.209-1.5-1.609c-1.33-1.881-2.59-4.051-2.31-6.449c0.03-2.871,2.489-4.701,4.31-6.561
			c-0.699-2.381-2.039-4.82-1.359-7.359c0.609-2.391,2.77-3.861,4.39-5.541c-0.05-1.971-0.34-3.971,0.05-5.91
			c0.69-2.5,3.141-3.779,4.98-5.35c0.21-1.98,0.18-4.01,0.75-5.93c1.06-2.051,3.18-3.221,4.89-4.67c0.05-2.081-0.28-4.25,0.37-6.271
			c1-1.9,2.779-3.2,4.27-4.69c-0.299-2.2-0.939-4.41-0.629-6.64c0.59-2.38,2.75-3.82,4.379-5.46c-0.979-2.31-2.58-4.65-2.09-7.27
			c0.35-2.57,2.521-4.24,4.16-6.02c-1.4-2.22-3.369-4.46-3.061-7.27c0.141-2.46,1.971-4.31,3.221-6.28
			c-0.99-2.47-2.42-5.03-1.83-7.79c0.38-2.17,2.141-3.68,3.4-5.36c-0.891-2.06-2.17-4.09-2.1-6.41c0.329-2.91,2.909-5.14,2.799-8.17
			c0.061-5.94-0.649-12.25,2.23-17.73C70.62,23.194,81.98,15.304,93.48,9.614z"/>
	</g>
	<g id="_x23_afbdc3ff">
		<path fill="#0FCCD1" d="M126.49,4.404c3.539-1.04,7.24-1.7,10.939-1.271c11.41,0.98,22.18,5.75,31.771,11.84
			c8.3,5.51,16.271,12.55,19.97,22.05c2.301,5.65,0.79,11.85,1.51,17.72c0.9,2.28,2.9,4.27,2.57,6.9c0.02,2.1-1.311,3.83-2.25,5.6
			c1.71,1.8,3.83,3.67,3.68,6.4c0.391,2.5-1.029,4.66-2.14,6.76c1.46,1.87,3.431,3.7,3.44,6.27c0.39,2.9-1.61,5.2-3.271,7.32
			c1.771,1.59,3.931,3.15,4.29,5.69c0.77,2.79-0.88,5.29-2.221,7.58c1.811,1.52,4.051,2.97,4.591,5.46
			c0.649,2.29-0.42,4.54-1.03,6.71c1.689,1.36,3.82,2.48,4.67,4.6c0.94,2.021,0.32,4.28,0.18,6.41c1.61,1.16,3.511,2.07,4.641,3.781
			c1.35,1.988,0.88,4.5,1,6.76c1.811,1.289,4.029,2.359,4.91,4.549c1.02,2.111,0.32,4.48,0.14,6.691
			c1.771,1.559,4.021,2.988,4.53,5.479c0.85,2.57-0.551,5.031-1.5,7.34c1.77,1.611,3.99,3.16,4.359,5.721
			c0.66,2.621-0.569,5.18-2.109,7.24c-0.381,0.42-1.15,1.279-1.54,1.699c2.319,1.682,4.87,3.801,4.84,6.941
			c0.34,4.049-3,6.85-5.5,9.5c-12.649,12.559-28.06,22.398-44.81,28.49c-6.99,2.328-14.311,4.139-21.721,3.969
			c-4.77,0.051-8.82-4.91-7.51-9.561c0.59-3.398,3.811-5.068,6.5-6.639c-2.87-1.99-5.84-4.971-4.93-8.82
			c0.41-3.699,3.84-5.631,6.8-7.17c-2.64-1.791-5.53-4.189-5.181-7.75c-0.109-4.221,3.611-6.77,7.07-8.25
			c-3.539-1.779-6.479-5.621-5.05-9.74c1.05-4.311,5.58-6.09,9.601-6.221c-2.59-1.568-4.58-3.859-5.76-6.648
			c0.629-2.361,0.859-5.111,2.85-6.811c2.039-2.18,5.18-2.32,7.939-2.77c-3.15-1.701-6.47-4.561-5.82-8.57
			c0.311-4.701,4.84-7.34,9.11-7.721c-4.26-1.6-7.03-6.549-5.079-10.91c1.159-3.27,4.59-4.56,7.629-5.46
			c-2.97-1.57-5.939-4.15-5.68-7.85c-0.061-4.3,3.73-7.04,7.45-8.17c-3.31-1.56-6.261-4.82-5.521-8.74
			c0.371-3.55,3.471-5.73,6.49-7.02c-2.82-1.7-5.75-4.38-5.09-8.04c0.561-8.71-0.359-19.25-8.17-24.7
			c-9.24-6.16-20.92-5.91-31.58-6.37C126.49,31.253,126.51,17.824,126.49,4.404z"/>
	</g>
</g>
<g>
	<g id="_x23_f5a557ff">
		<path fill="#B3FFF9" d="M102.32,47.374c7.82-2.34,16.07-2.65,24.18-2.7c10.66,0.46,22.34,0.21,31.58,6.37
			c7.811,5.45,8.73,15.99,8.17,24.7c-0.66,3.66,2.27,6.34,5.09,8.04c-3.02,1.29-6.119,3.47-6.49,7.02
			c-0.74,3.92,2.211,7.18,5.521,8.74c-3.72,1.13-7.511,3.87-7.45,8.17c-0.26,3.7,2.71,6.28,5.68,7.85
			c-3.039,0.9-6.47,2.19-7.629,5.46c-1.951,4.361,0.819,9.311,5.079,10.91c-4.271,0.381-8.8,3.02-9.11,7.721
			c-0.649,4.01,2.67,6.869,5.82,8.57c-2.76,0.449-5.9,0.59-7.939,2.77c-1.99,1.699-2.221,4.449-2.85,6.811
			c-7.75,4.389-16.561,6.699-25.461,6.84c-8.89,0.109-17.65-2.42-25.43-6.641c-0.641-2.42-0.82-5.23-2.84-6.99
			c-2.07-2.24-5.28-2.35-8.09-2.779c2.89-1.58,6.1-3.891,5.97-7.59c0.29-4.771-4.04-8.16-8.45-8.58
			c4.061-2.18,6.43-7.491,4.03-11.731c-1.38-3.05-4.75-4.01-7.72-4.76c3.279-1.27,6.35-4.02,6.14-7.84
			c0.021-4.29-3.729-7.17-7.53-8.18c3.36-1.5,6.29-4.83,5.561-8.75c-0.371-3.56-3.461-5.81-6.551-7.02
			c2.53-1.56,5.44-3.77,5.17-7.12c-0.43-6.91-0.39-14.3,3.211-20.46C92.62,51.664,97.41,48.854,102.32,47.374 M97.55,56.654
			c-3.54,1.22-6,4.44-6.739,8.05c-1.75,5.52,0.16,11.36-1.451,16.88c-0.739,2.38,0.891,4.56,1.41,6.8
			c1.211,3.37-0.1,6.88-0.25,10.31c0.621,2.69,2.07,5.15,2.391,7.92c0.29,2.59-0.77,5.12-0.67,7.69c1.1,3.07,3.289,5.92,3.02,9.34
			c0.02,2.82-1.16,5.911,0.721,8.411c2.539,3.658,2.56,8.158,2.77,12.43c7.7,6.52,17.33,11.539,27.65,11.369
			c0.09-34.26,0.31-68.55-0.101-102.81C116.67,53.474,106.7,53.173,97.55,56.654z"/>
	</g>
	<g id="_x23_f5b673ff">
		<path fill="#B3FFF9" d="M97.55,56.654c9.15-3.48,19.12-3.18,28.75-3.61c0.41,34.26,0.19,68.55,0.101,102.81
			c-10.32,0.17-19.95-4.85-27.65-11.369c-0.21-4.271-0.23-8.771-2.77-12.43c-1.881-2.5-0.701-5.591-0.721-8.411
			c0.27-3.42-1.92-6.27-3.02-9.34c-0.1-2.57,0.96-5.1,0.67-7.69c-0.32-2.77-1.77-5.23-2.391-7.92c0.15-3.43,1.461-6.94,0.25-10.31
			c-0.52-2.24-2.149-4.42-1.41-6.8c1.611-5.52-0.299-11.36,1.451-16.88C91.55,61.094,94.01,57.874,97.55,56.654z"/>
	</g>
</g>
<g>
	<g id="_x23_ffffffff">
		<path fill="#FFFFFF" d="M95.48,164.424c2.369-1.65,4.27-3.85,5.6-6.42c7.779,4.221,16.54,6.75,25.43,6.641
			c-0.039,26.689,0,53.369-0.02,80.059c-11.061-0.318-22.19-1.309-32.94-4.049c-5.69-1.57-11.979-3.631-15.18-9.02
			c0.88-2.311,1.771-4.631,2.63-6.951c6.95,2.311,14.21,4.09,21.57,3.92c4.779,0.061,8.869-4.91,7.529-9.59
			c-0.58-3.369-3.8-5-6.459-6.561c2.42-2,5.359-4.318,4.969-7.859c0.101-4.119-3.569-6.5-6.77-8.199
			c2.53-1.861,5.4-4.201,5.051-7.73c0.159-4.221-3.631-6.68-6.98-8.27c3.27-1.771,6.189-5.17,5.13-9.131
			C104.29,166.703,99.63,164.645,95.48,164.424z"/>
	</g>
	<g id="_x23_ebedefff">
		<path fill="#FFFFFF" d="M126.51,164.645c8.9-0.141,17.711-2.451,25.461-6.84c1.18,2.789,3.17,5.08,5.76,6.648
			c-4.021,0.131-8.551,1.91-9.601,6.221c-1.43,4.119,1.511,7.961,5.05,9.74c-3.459,1.48-7.18,4.029-7.07,8.25
			c-0.35,3.561,2.541,5.959,5.181,7.75c-2.96,1.539-6.39,3.471-6.8,7.17c-0.91,3.85,2.06,6.83,4.93,8.82
			c-2.689,1.57-5.91,3.24-6.5,6.639c-1.311,4.65,2.74,9.611,7.51,9.561c7.41,0.17,14.73-1.641,21.721-3.969
			c0.83,2.328,1.709,4.648,2.58,6.969c-4.851,7.83-14.971,9.09-23.211,10.871c-8.27,1.359-16.64,2.238-25.029,2.229
			C126.51,218.014,126.471,191.334,126.51,164.645z"/>
	</g>
</g>
<g>
	<g id="_x23_546e7aff">
		<path fill="#B3FFF9" d="M22.26,191.404c2.94-5.191,7.16-9.471,11.67-13.311c0.37,0.4,1.12,1.211,1.5,1.609
			c-2.359,1.631-4.869,3.771-4.869,6.91c-0.34,4.061,3.01,6.9,5.52,9.57c12.68,12.57,28.13,22.4,44.92,28.5
			c-0.859,2.32-1.75,4.641-2.63,6.951c3.2,5.389,9.489,7.449,15.18,9.02c10.75,2.74,21.88,3.73,32.94,4.049
			c0.01,2.65,0.029,5.301,0.05,7.961h-8.601c-23.66-0.801-47.449-2.359-70.569-7.68c-8.61-2.061-17.32-4.531-24.899-9.24
			c-3.851-2.48-7.851-6.131-7.91-11.061C14.41,213.234,16.38,201.385,22.26,191.404z"/>
	</g>
	<g id="_x23_445a64ff">
		<path fill="#B3FFF9" d="M216.62,179.703c0.39-0.42,1.159-1.279,1.54-1.699c2.619,2.369,5.29,4.709,7.55,7.439
			c8.979,10.881,12.08,25.451,11.78,39.281c0.039,4.389-3.29,7.84-6.641,10.229c-6.619,4.602-14.449,7.021-22.149,9.121
			c-22.81,5.82-46.41,7.449-69.841,8.59H125.54c-0.021-2.66-0.04-5.311-0.05-7.961c8.39,0.01,16.76-0.869,25.029-2.229
			c8.24-1.781,18.36-3.041,23.211-10.871c-0.871-2.32-1.75-4.641-2.58-6.969c16.75-6.092,32.16-15.932,44.81-28.49
			c2.5-2.65,5.84-5.451,5.5-9.5C221.49,183.504,218.939,181.385,216.62,179.703z"/>
	</g>
</g>
</svg>
