<?xml version="1.0" encoding="UTF-8" standalone="no"?>
<!-- Created with Inkscape (http://www.inkscape.org/) -->

<svg
   xmlns:dc="http://purl.org/dc/elements/1.1/"
   xmlns:cc="http://creativecommons.org/ns#"
   xmlns:rdf="http://www.w3.org/1999/02/22-rdf-syntax-ns#"
   xmlns:svg="http://www.w3.org/2000/svg"
   xmlns="http://www.w3.org/2000/svg"
   xmlns:xlink="http://www.w3.org/1999/xlink"
   xmlns:sodipodi="http://sodipodi.sourceforge.net/DTD/sodipodi-0.dtd"
   xmlns:inkscape="http://www.inkscape.org/namespaces/inkscape"
   width="297mm"
   height="210mm"
   id="svg3032"
   version="1.1"
   inkscape:version="0.48.2 r9819"
   sodipodi:docname="fregatte.svg">
  <defs
     id="defs3034">
    <linearGradient
       inkscape:collect="always"
       id="linearGradient3099">
      <stop
         style="stop-color:#5a6567;stop-opacity:1;"
         offset="0"
         id="stop3101" />
      <stop
         style="stop-color:#5a6567;stop-opacity:0"
         offset="1"
         id="stop3103" />
    </linearGradient>
    <linearGradient
       inkscape:collect="always"
       xlink:href="#linearGradient3099"
       id="linearGradient3105"
       x1="239.47229"
       y1="503.83957"
       x2="623.72369"
       y2="511.66547"
       gradientUnits="userSpaceOnUse" />
  </defs>
  <sodipodi:namedview
     inkscape:document-units="mm"
     pagecolor="#ffffff"
     bordercolor="#666666"
     borderopacity="1.0"
     inkscape:pageopacity="0.0"
     inkscape:pageshadow="2"
     inkscape:zoom="0.90354774"
     inkscape:cx="331.14916"
     inkscape:cy="365.01852"
     inkscape:current-layer="layer3"
     id="namedview3036"
     showgrid="false"
     inkscape:window-width="1280"
     inkscape:window-height="998"
     inkscape:window-x="-4"
     inkscape:window-y="-4"
     inkscape:window-maximized="1" />
  <metadata
     id="metadata3038">
    <rdf:RDF>
      <cc:Work
         rdf:about="">
        <dc:format>image/svg+xml</dc:format>
        <dc:type
           rdf:resource="http://purl.org/dc/dcmitype/StillImage" />
        <dc:title></dc:title>
      </cc:Work>
    </rdf:RDF>
  </metadata>
  <g
     inkscape:label="Layer 1"
     inkscape:groupmode="layer"
     id="layer1"
     style="display:none"
     sodipodi:insensitive="true" />
  <g
     inkscape:groupmode="layer"
     id="layer3"
     inkscape:label="Ebene"
     style="display:inline">
    <g
       id="g3107"
       inkscape:export-filename="C:\Documents and Settings\10119522\Desktop\fregatte.png"
       inkscape:export-xdpi="90"
       inkscape:export-ydpi="90">
      <path
         inkscape:connector-curvature="0"
         id="path3065"
         d="m 215.99464,427.53712 0.3913,-2.34777 2.34777,-16.82567 25.04285,-3.13036 4.69554,-17.21696 -20.73862,-4.69554 0,-5.47812 19.17344,-1.95648 13.30402,-61.43326 -14.4779,-5.47812 1.17388,-3.13036 122.08393,7.82589 0,5.47813 -42.25982,0.78259 12.91272,30.52098 16.82567,72.7808 -136.95313,13.30402 z"
         style="fill:#849494;fill-opacity:1;stroke:#000000;stroke-width:1px;stroke-linecap:butt;stroke-linejoin:miter;stroke-opacity:1" />
      <path
         inkscape:connector-curvature="0"
         id="path3067"
         d="m 340.03505,413.8418 0,-15.65178 5.47812,-0.3913 5.47813,-73.56339 -46.56407,-8.60848 3.13036,-3.13036 94.6933,6.26071 -0.78259,5.86942 -42.25982,-0.39129 4.69554,63.78103 17.99955,-2.73907 -5.86942,27.39063 z"
         style="fill:#7d8d8d;fill-opacity:1;stroke:#000000;stroke-width:1px;stroke-linecap:butt;stroke-linejoin:miter;stroke-opacity:1" />
      <path
         inkscape:connector-curvature="0"
         id="path3063"
         d="m 361.16496,409.14627 21.12991,-43.04241 15.65178,-1.56518 4.30424,-13.30402 -0.78259,-3.13036 -10.95625,-3.52165 6.65201,-9.78236 15.65179,-75.51987 -62.21585,-4.69554 0.3913,-6.65201 63.78102,0 3.13036,-16.04308 6.65201,-3.13035 13.30402,1.56518 1.95647,12.17366 7.82589,-2.78259 1.95648,-6.26072 -2.73907,-14.86919 -13.69531,-3.91295 0.39129,-3.52165 18.78215,1.56518 0.39129,-5.47813 8.60848,-0.39129 0.78259,-9.78237 -7.82589,-3.13036 0,-1.17388 2.73906,-2.34777 8.99978,0.3913 -0.78259,-8.99978 -3.13036,-1.17388 0,-5.47813 3.91295,-0.78259 0.3913,-6.26071 0.78258,-49.69442 1.95648,1.56518 0.39129,54.78125 3.52165,0 0.3913,6.65201 -0.78259,5.47812 -2.34777,1.56518 0,3.13036 10.17366,1.17388 0,2.34777 -6.65201,0.78259 2.73907,14.86919 1.95647,1.56518 22.69509,-1.17388 3.52165,2.73906 0.39129,3.91295 -10.95625,2.73906 1.95648,3.52165 -3.52165,5.86942 4.30424,10.56496 1.56518,0.78259 27.39062,3.52165 17.60826,70.04174 -5.08683,19.56473 65.3462,4.30424 10.17367,1.95647 7.0433,6.65201 -4.30424,0.78259 -5.47813,16.82567 20.73862,37.56429 100.56272,2.73906 24.26027,34.82522 12.52143,0 4.30424,12.52143 -318.12254,10.17366 z"
         style="fill:#809090;fill-opacity:1;stroke:#000000;stroke-width:1px;stroke-linecap:butt;stroke-linejoin:miter;stroke-opacity:1" />
      <path
         inkscape:connector-curvature="0"
         id="path3061"
         d="m 178.03906,425.58064 5.86942,-17.60826 6.65201,-0.39129 2.34777,-10.56496 5.86942,0 2.34777,9.78237 7.82589,0.39129 4.69554,17.99956 z"
         style="fill:#a2b5b9;fill-opacity:1;stroke:#000000;stroke-width:1px;stroke-linecap:butt;stroke-linejoin:miter;stroke-opacity:1" />
      <path
         inkscape:connector-curvature="0"
         id="path3053"
         d="m 969.62813,443.5802 -159.64822,1.56517 -331.03527,9.39108 -18.78214,-0.78259 -7.0433,-10.95625 0,-11.73884 -12.52143,-32.86875 -144.77902,15.65178 -3.13036,10.95625 -41.47723,3.13036 -10.17366,-7.82589 -92.34554,7.82589 3.13036,19.56473 -6.26071,39.91206 -57.91161,0 9.391072,37.56428 17.216968,3.91295 491.46607,41.47723 251.21116,13.30402 13.30402,-21.9125 33.65134,-43.04241 45.39017,-50.08572 z"
         style="fill:#454a4d;fill-opacity:1;stroke:#000000;stroke-width:1px;stroke-linecap:butt;stroke-linejoin:miter;stroke-opacity:1" />
      <path
         inkscape:connector-curvature="0"
         id="path3055"
         d="m 151.03973,448.27573 300.51429,-19.56473 1.56518,12.52143 7.0433,12.52143 17.21696,0.78259 340.42634,-9.39108 -147.12678,10.17367 -76.69375,7.0433 -61.82456,9.39107 -59.47678,12.52143 -35.21652,3.91295 -33.65134,3.91294 -112.69286,-1.56518 -145.5616,-3.13035 z"
         style="fill:none;stroke:#000000;stroke-width:1px;stroke-linecap:butt;stroke-linejoin:miter;stroke-opacity:1" />
      <path
         sodipodi:nodetypes="cccccc"
         inkscape:connector-curvature="0"
         id="path3057"
         d="m 235.55938,444.36279 -3.13036,44.60758 39.91205,10e-6 8.60848,-39.12947 -3.91294,-7.82589 z"
         style="fill:#808080;fill-opacity:1;stroke:#000000;stroke-width:1px;stroke-linecap:butt;stroke-linejoin:miter;stroke-opacity:1" />
      <path
         inkscape:connector-curvature="0"
         id="path3059"
         d="m 312.25313,438.88466 55.56383,-3.91295 3.13036,5.47813 -9.39107,46.17277 -3.13036,5.47812 -46.17276,-1.56518 -2.34777,-6.26071 z"
         style="fill:#808080;fill-opacity:1;stroke:#000000;stroke-width:1px;stroke-linecap:butt;stroke-linejoin:miter;stroke-opacity:1" />
      <path
         inkscape:connector-curvature="0"
         id="path3069"
         d="m 690.63505,394.66837 37.95558,-1.17389 12.91272,5.47813 16.82567,41.47723 -70.43304,0 z"
         style="fill:#575d5e;fill-opacity:1;stroke:#000000;stroke-width:1px;stroke-linecap:butt;stroke-linejoin:miter;stroke-opacity:1" />
      <path
         inkscape:connector-curvature="0"
         id="path3071"
         d="m 728.98192,404.84203 68.08527,-2.73907 1.17388,3.52166 -1.56518,1.95647 -47.73794,3.13036 -3.13036,1.95647 -4.69554,-1.17388 -9.39107,1.56517 -4.30424,-4.69553 z"
         style="fill:#222222;fill-opacity:1;stroke:#000000;stroke-width:1px;stroke-linecap:butt;stroke-linejoin:miter;stroke-opacity:1" />
      <path
         inkscape:connector-curvature="0"
         id="path3073"
         d="m 408.12031,346.93042 25.82545,-5.47813 39.12946,-0.78259 129.51853,7.4346 12.52143,3.13036 -5.08683,13.69531 -11.34755,-2.73906 -127.17075,-7.4346 -29.3471,-0.39129 -29.7384,5.47812 z"
         style="fill:#23282b;fill-opacity:1;stroke:#000000;stroke-width:1px;stroke-linecap:butt;stroke-linejoin:miter;stroke-opacity:1" />
      <path
         inkscape:connector-curvature="0"
         id="path3075"
         d="m 439.42388,356.71279 1.95648,41.47723 27.39062,-41.86853 z"
         style="fill:#bbd0d3;fill-opacity:1;stroke:#000000;stroke-width:1px;stroke-linecap:butt;stroke-linejoin:miter;stroke-opacity:1" />
      <path
         inkscape:connector-curvature="0"
         id="path3077"
         d="m 451.16272,239.71569 10.56496,-0.78259 -7.0433,70.43303 -9.78237,0 z"
         style="fill:#99adac;fill-opacity:1;stroke:#000000;stroke-width:1px;stroke-linecap:butt;stroke-linejoin:miter;stroke-opacity:1" />
      <path
         sodipodi:nodetypes="ccccccccccc"
         inkscape:connector-curvature="0"
         id="path3079"
         d="m 498.50938,452.57997 1.56517,-8.99977 5.86942,-41.08594 36.7817,-3.91294 8.1e-4,10.14656 39.51995,-2.32068 36.3904,-1.95647 17.60826,-1.17388 10.56496,-0.78259 3.13035,47.73795 z"
         style="fill:none;stroke:#000000;stroke-width:1px;stroke-linecap:butt;stroke-linejoin:miter;stroke-opacity:1" />
      <path
         inkscape:connector-curvature="0"
         id="path3081"
         d="m 275.47143,317.97462 1.95647,0 11.73884,0 -11.34754,32.08616 z"
         style="fill:#a2b5b9;fill-opacity:1;stroke:#000000;stroke-width:1px;stroke-linecap:butt;stroke-linejoin:miter;stroke-opacity:1" />
      <path
         inkscape:connector-curvature="0"
         id="path3083"
         d="m 477.37947,273.75832 -1.17389,-16.43437 36.7817,2.34776 1.56518,16.82567 z"
         style="fill:#b9b9b9;fill-opacity:1;stroke:#000000;stroke-width:1px;stroke-linecap:butt;stroke-linejoin:miter;stroke-opacity:1" />
      <path
         sodipodi:nodetypes="ccccc"
         inkscape:connector-curvature="0"
         id="path3085"
         d="m 478.94464,285.88845 36.7817,2.34777 0.39129,7.04331 -37.56428,-3.13036 z"
         style="fill:#b3b3b3;fill-opacity:1;stroke:#000000;stroke-width:1px;stroke-linecap:butt;stroke-linejoin:miter;stroke-opacity:1" />
      <path
         inkscape:connector-curvature="0"
         id="path3087"
         d="m 424.16339,262.80207 19.95603,-5.08683 -2.73906,16.43438 -18.78215,4.30424 z"
         style="fill:#a0a0a0;fill-opacity:1;stroke:#000000;stroke-width:1px;stroke-linecap:butt;stroke-linejoin:miter;stroke-opacity:1" />
      <path
         inkscape:connector-curvature="0"
         id="path3089"
         d="m 420.64174,291.36658 19.56473,-5.47813 -1.17388,8.21719 -19.95603,4.30424 z"
         style="fill:#9a9a9a;fill-opacity:1;stroke:#000000;stroke-width:1px;stroke-linecap:butt;stroke-linejoin:miter;stroke-opacity:1" />
      <path
         inkscape:connector-curvature="0"
         id="path3091"
         d="m 87.433122,487.88223 5.533742,20.47485 366.333716,21.58159 128.93619,-3.87362 -8.30062,-61.97791 -59.76441,9.96074 -46.48343,9.40736 -53.6773,6.64049 -16.04785,1.66012 z"
         style="fill:url(#linearGradient3105);fill-opacity:1;stroke:none" />
      <path
         inkscape:connector-curvature="0"
         id="path3097"
         d="m 742.62817,510.29389 9.68404,-0.27669 9.68405,25.7319 22.13497,0.55337 2.76687,9.13068 0.55337,3.59693 -28.22208,-1.10675 z"
         style="fill:#636b6d;fill-opacity:1;stroke:none" />
      <path
         inkscape:connector-curvature="0"
         id="path3095"
         d="m 750.92878,510.29389 4.1503,-0.83006 10.7908,11.34417 1.93681,0 0,-2.76687 1.38344,-0.27669 0.83006,2.49018 3.04356,-10.23742 11.34417,27.39202 -2.2135,0.27669 -9.96074,-2.49018 -14.11104,1.38343 0.83006,-3.87362 z"
         style="fill:#010101;fill-opacity:1;stroke:#000000;stroke-width:1px;stroke-linecap:butt;stroke-linejoin:miter;stroke-opacity:1" />
    </g>
  </g>
</svg>
