<?xml version="1.0" encoding="utf-8"?>
<!-- Generator: Adobe Illustrator 16.0.0, SVG Export Plug-In . SVG Version: 6.00 Build 0)  -->
<!DOCTYPE svg PUBLIC "-//W3C//DTD SVG 1.1//EN" "http://www.w3.org/Graphics/SVG/1.1/DTD/svg11.dtd">
<svg version="1.1" id="Слой_2" xmlns="http://www.w3.org/2000/svg" xmlns:xlink="http://www.w3.org/1999/xlink" x="0px" y="0px"
	 width="500px" height="500px" viewBox="0 0 500 500" enable-background="new 0 0 500 500" xml:space="preserve">
<path d="M497.884,234.5c-0.167-0.458-0.625-0.75-2-0.792v-0.875v-0.625v-16.041l-1.208,16.041h-0.042v1.542
	c-0.25,0-0.542,0.042-0.833,0.042c-3.042,0.208-54.209,5.166-54.209,5.166l-1.25-2.958h-10.833l-13.542,3.792l-0.208-1.25
	l1.583-0.417l-0.333-2.833l1.042-0.417c0,0-0.292-0.542-0.709-1.25h15.625v-0.75h-16.083c-0.375-0.667-0.792-1.333-1.083-1.792
	c-0.75-1.166-3.25-4.5-8.625-4s-6.792,7.209-6.792,7.209l0.333,3.958h3.042v1.542h-8.292v-4.834c0.959-0.583,2.25-1.541,2.292-2.416
	c0.042-0.792-1.208-1.25-2.292-1.542v-1.542h-7.25L383.592,227l-2.291-0.667c0,0-0.25-0.541-0.667-1.166h1.625v-0.209h-1.75
	c-0.583-0.791-1.458-1.625-2.542-1.583c-2,0.125-1.875,3.625-1.875,3.625l-2.958,0.875l-8.625-3.375c0,0-0.125-0.5-0.417-1.042
	h1.917v-0.333h-2.125c-0.417-0.583-1.083-1.167-2.083-1.042c-2.084,0.209-1.25,3.459-1.25,3.459l-4.625,0.625v-0.625h-4l-2.417-2.75
	h-8.833c0,0-0.75-0.75-2.834,0c-2.083,0.75-1.791,2.75-1.791,2.75v3.875h-2.542v-6.625h-3.208l0.166-2.625
	c0,0,2.084-1.167,1.584-2.834c-0.542-1.666-1.792-1.583-1.792-1.583l-2.417,0.375l-1.583,0.583c0,0-1.25,1.25-0.542,3.167
	c0.75,1.875,2.084,1.042,2.084,1.042v1.875h-3.792l-2.75-2.834v-4.416l1.917-4.625h0.833v-3.25h-9.833v-2.417l-1.959,0.458v1.959
	h-11.041v-7.375h0.625c0.292,1.208,0.875,2,1.583,2c1,0,1.792-1.709,1.792-3.792s-0.792-3.792-1.792-3.792
	c-0.708,0-1.333,0.917-1.625,2.209h-6.583v3.375v7.375h-2.208c0-1.459-0.167-4.042-1.084-3.875
	c-0.916,0.166-0.791,2.583-0.625,3.875h-0.291l-6.834-14.709h1.125v-3.166c0,0,0.959,1.25,1.875,1.791
	c0.959,0.542,2.834,0.542,3.167,0c0.333-0.541-1.167-2.833-2.292-4.833c0,0-0.958-0.75-1.25-2.292
	c-0.291-1.541,1.166-2.083,1.166-2.083l2.459,1.167v-0.959l-1.083-1.375l-0.333-1.666h-1.792l0.208,1.041h-1.375
	c0,0-1.583,0.334-2.541,2c-0.959,1.667-0.334,4.209-0.334,4.209h-0.958L281.343,187l-3.084-6.583
	c1.792-0.834,4.334,0.375,4.334,0.375s-1.667-1.792-3.25-2.417c-0.709-0.292-1.459-0.25-2.084-0.167l-0.625-1.333
	c0.584-0.208,1.292-0.375,2-0.375c1.459,0,3.459-1.792,3.459-1.792l-8.042-0.291l-2.083-9.834c0,0.084,1.416,5.209,4.458,4.917
	c3.042-0.333,6.208-1.042,6.208-1.042l-3.458-13.75c0,0-1.25,0.542-2,0.75c-0.75,0.209-1.458,0-1.458,0V154c0,0-1.667,0-3.042,0
	s-2.208,0-2.208,0v1.583l-0.625,3.459v0.75c0,0-2.084-0.209-6.292-0.334s-5.667,0.125-5.458,0.834c0.208,0.75,1.041,2,1.041,2v1.458
	l6.5,3.375c0,0,1.042-0.75,1.375-1.375c0.334-0.625,0.417-1.25,0.417-1.25s1.208,0,2.25-0.042l-1.333,10l-6.5,0.125l-1.042-1.166
	l-0.958,1.166l-2.167-5.041l0,0l-2.25-23.25l-0.625,6.416l-2.083,0.125l1.875,2.084l1.25,12.375l-1.042,7.583h-3.375l0.125,4.208
	l2.083,0.542l0.125,2.542h-3.792v1.875l9.125,0.541l1.875,2.75l1.375-1.791l2.541,0.541l-0.541,2.875
	c-0.334-0.166-0.75-0.25-1.167-0.25c-1.458,0-2.625,1.167-2.625,2.625c0,1.459,1.167,2.625,2.625,2.625c0.083,0,0.125,0,0.208,0l0,0
	h-0.208h-4.625v0.417h4.75l-0.833,4.292h-3.417v0.958h3.25l-0.542,2.833h-3.208v0.75h3.083l-0.25,1.25h-1.791v2.959l0.083,0.333
	h-3.042v1.042h2.084v2.291h0.833v1.792h-5.875v4.625h3.458v1.042c0,0-1.583,0.416-1.666,1.791c-0.084,1.375,0.125,2.292,0.125,4.417
	c0,2.083,1.583,2.292,1.583,2.292l-3.167,2.083v-3.667h-1.25v4.5l-1.291,0.875h-4.625l-0.5-0.083v-1.167h-3.042v-2.541h-8.917
	v-6.084h-2.083v5.375l-8.5-12.625c1.083-0.333,1.833-1.291,1.833-2.458c0-1.417-1.167-2.583-2.583-2.583
	c-0.833,0-1.542,0.375-2,0.958l-0.208-0.292h-4.625v-8.916c0.333,0.708,0.667,1.416,0.958,2.041
	c0.958,2.209,4.417,3.875,6.292,3.292c1.875-0.625,2.833-2.667,3.583-5.5s2.417-8.917,2.417-8.917l-1.792-4.5l-2.042-1.375
	c-3.5-2.416-5.833-6.5-5.833-6.5l0.708-1.041v-2.209c0,0-0.708-0.541-2.583,0.334c-1.875,0.833-4.417,0.625-4.417,0.625v-4.209
	l-1.125-1.083l-0.625,4.958l-1.458,0.542l0.833,3.375l0.625,6.083c0,0-3.583,0.959-4.083,1.292s0,2.833,0,2.833
	s-1.042-1.375-3.375-2.541c-2.292-1.167-9.042,2.416-9.667,5.458c-0.708,3.333,4.708,5.417,8.5,6c4.292,0.625,4.208-0.125,5.25-1.25
	c0.625-0.708,1.75-2.375,2.542-3.583v14.875c-0.458-0.417-1.083-0.667-1.75-0.667c-1.417,0-2.583,1.167-2.583,2.583
	c0,1.417,1.167,2.584,2.583,2.584c0.667,0,1.292-0.25,1.75-0.667v1.917h2.208l-0.208,0.541h-45.75l0.25-3.458l0.958-0.417
	l0.125-0.458l-0.542-0.875l0.542-4.458l0.542-0.125v-2h-6.5l-0.208,1.166h1.25v1l-5.375,17.084h-2.583v3.458l-1.958,4.208v7.25h2
	l2.292,5.792h-11.333v5.75l-11.75,0.542l-1.375-2.542l-7.25,2.958l-1.042-2.416l-1.667-0.417v-1.667L121.342,246v-2.125h-4.958
	l-1.458-5.792l-17.875,0.875v-3.208h2.833v-6.708h-5.25l-0.083-1.375c0,0,1.583-0.834,2.542-2.417c0.958-1.583,0-3.583,0-3.583
	l-3.583-4.417l-2.792-1.583c0,0-4.458,0.541-6.25,3.666c-1.792,3.125,0.958,6.417,0.958,6.417l1.25,1.375h0.75L88.384,229h-5.167
	v6.708h2.958v3.25h-5.667v-4h-0.542v4h-7.583l-0.625-4h-1.667v4h-1.458v-4h-1.375v4H63.8V236h-1.792v2.958h-2.083L54.3,253.583H12.8
	v5.25H2.092v0.834L12.8,271.5h450.625c0,0,10.291-13.542,14.416-18.083c4.084-4.5,13.042-12.5,16.084-14.834
	C496.967,236.292,498.092,235.167,497.884,234.5z M164.634,225.792l-0.125,4.333l-2.167-2.958L164.634,225.792z M162.05,243.667
	l1.125-5.792h1.042l-0.208,5.792H162.05z M295.8,207.708v-7.375h3.084l0.834,7.375H295.8z"/>
</svg>
