<?xml version="1.0" encoding="utf-8"?>
<!-- Generator: Adobe Illustrator 16.0.0, SVG Export Plug-In . SVG Version: 6.00 Build 0)  -->
<!DOCTYPE svg PUBLIC "-//W3C//DTD SVG 1.1//EN" "http://www.w3.org/Graphics/SVG/1.1/DTD/svg11.dtd">
<svg version="1.1" id="Layer_1" xmlns="http://www.w3.org/2000/svg" xmlns:xlink="http://www.w3.org/1999/xlink" x="0px" y="0px"
	 width="150px" height="150px" viewBox="0 0 150 150" enable-background="new 0 0 150 150" xml:space="preserve">
<g display="none">
	<g display="inline">
		<g>
			<polygon fill="#00BBD1" points="113.894,31.206 86.756,27.263 74.62,2.671 62.484,27.263 35.346,31.206 54.983,50.347 
				50.347,77.376 74.62,64.614 98.894,77.376 94.257,50.347 			"/>
		</g>
	</g>
	<g display="inline">
		<g>
			<polygon fill="#214855" points="106.302,32.91 84.41,29.729 74.62,9.892 64.829,29.729 42.938,32.91 58.779,48.352 55.04,70.155 
				74.62,59.86 94.201,70.155 90.461,48.352 			"/>
		</g>
	</g>
	<g display="inline">
		<g>
			<polygon fill="#214855" points="74.62,92.522 30.739,74.917 30.739,99.923 74.876,117.631 118.501,99.909 118.501,74.917 			"/>
		</g>
	</g>
	<g display="inline">
		<g>
			<polygon fill="#00BBD1" points="74.62,123.505 30.739,105.9 30.739,130.905 74.876,148.613 118.501,130.892 118.501,105.9 			"/>
		</g>
	</g>
</g>
<path id="path3809" display="none" fill="#0FCCD1" d="M146.714,56.104c0.282,1.181-5.205,7.853-9.385,11.408
	c-8.056,6.853-16.402,10.322-35.857,14.908c-10.142,2.391-8.771,1.247-12.975,10.825l-1.825,4.161l-7.767,4.286
	c-4.271,2.359-8.474,4.581-9.341,4.939c-0.863,0.359-1.92,1.199-2.347,1.868c-0.422,0.668-2.131,1.657-3.796,2.197
	c-2.553,0.832-3.685,1.788-7.29,6.162c-4.68,5.678-13.555,16.377-16.597,20.01c-1.061,1.269-2.116,2.193-2.341,2.051
	c-0.224-0.142-1.8,0.007-3.501,0.324c-3.309,0.623-15.024,1.198-15.697,0.77c-0.222-0.142,1.355-3.351,3.508-7.131
	c4.948-8.69,16.844-31.261,17.657-33.496c0.442-1.223-1.704,0.374-7.748,5.76c-8.185,7.293-8.47,7.478-13.511,8.67
	c-2.832,0.672-5.499,0.998-5.928,0.726c-0.618-0.394,0.651-2.692,6.191-11.208c5.651-8.688,6.847-10.863,6.321-11.511
	c-0.356-0.439-0.93-2.059-1.27-3.603l-0.624-2.804l-4.628-2.035c-2.546-1.119-5.709-2.396-7.028-2.837
	c-1.32-0.443-3.778-1.438-5.461-2.209c-3.751-1.723-3.471-2.511,1.404-3.912c3.68-1.06,4.222-0.944,15.244,3.256l7.2,2.744
	l1.438-2.259c1.197-1.882,1.253-2.624,0.328-4.441c-0.609-1.2-0.947-2.794-0.748-3.543c0.326-1.224-0.057-1.574-3.815-3.484
	c-9.332-4.743-14.407-7.626-14.146-8.038c0.152-0.238,2.085-1.069,4.296-1.845c3.636-1.277,4.483-1.259,8.828,0.189
	c2.644,0.88,6.429,2.098,8.411,2.702l3.604,1.103l1.403-4.593c1.362-4.465,1.48-4.646,4.155-6.471
	c3.277-2.237,3.866-1.972,8.075,3.635c2.757,3.675,3.199,4.036,4.557,3.734c1.809-0.402,1.213,1.096,13.582-34.115
	c4.359-12.407,4.333-12.372,7.836-10.143c2.734,1.742,2.89,2.069,5.177,10.897l2.36,9.103l3.899,1.972
	c2.146,1.084,5.146,2.533,6.668,3.22c1.994,0.902,3.004,1.777,3.62,3.144c0.806,1.787,1.061,1.908,4.612,2.185
	c2.07,0.161,3.937,0.404,4.153,0.542s3.017,0.288,6.227,0.334c6.908,0.099,15.044,2.029,22.013,5.222
	C141.722,52.156,146.463,55.053,146.714,56.104L146.714,56.104z"/>
<g>
	<path fill="#0B69AA" d="M108.434,20.666c5.893-0.497,11.826-0.521,17.719-0.23c0.044,5.714,0.089,11.423,0.11,17.133
		c-5.937-0.052-11.869-0.108-17.806-0.188C108.504,31.812,108.504,26.239,108.434,20.666 M114.143,23.234
		c-3.355,1.966-2.238,6.253-2.081,9.455c3.537,3.799,10.636,1.992,10.413-3.637C123.464,24.425,117.996,21.779,114.143,23.234z"/>
	<path fill="#0B69AA" d="M3.852,94.874c15.946,0,31.913,0.028,47.857-0.049c-0.019,5.109-0.067,10.241-0.047,15.377
		c0,10.797-0.046,21.588,0.153,32.411h-0.269c-15.902-0.226-31.777-0.164-47.679-0.085C3.137,126.657,3.384,110.748,3.852,94.874
		 M10.886,101.43c-0.424,11.381-0.226,22.778-0.183,34.15c11.285,0.436,22.596,0.309,33.883-0.08
		c-0.513-11.116,1.637-22.938-1.005-33.595C32.722,100.966,21.773,101.614,10.886,101.43z"/>
	<path fill="#0B69AA" d="M134.66,101.148c2.081,0.225,4.167,0.445,6.248,0.67c0.291,2.178,0.561,4.346,0.825,6.544
		c-2.104,0.023-4.233,0.047-6.34,0.084C135.176,106.009,134.927,103.563,134.66,101.148z"/>
	<path fill="#0B69AA" d="M18.771,110.305c5.868-0.112,11.73-0.112,17.602-0.049c0,5.648,0,11.278,0,16.934
		c-5.936,0.109-11.869,0.109-17.803-0.05C18.7,121.529,18.792,115.928,18.771,110.305 M21.816,112.056
		c0.112,5.513-0.449,11.935,5.932,14.011c1.795-4.013,3.586-8.021,5.352-12.023C29.339,113.371,25.579,112.705,21.816,112.056z"/>
	<g id="_x23_2a96afff">
		<path fill="#0B69AA" d="M3.941,5.291c15.945,0.066,31.91-0.215,47.855,0.183C51.53,21.345,51.457,37.25,51.484,53.14
			c-13.818,0.023-27.638,0.063-41.433-0.25c-0.112,4.863-0.199,9.743-0.333,14.627c-1.727-0.478-5.132-1.423-6.852-1.894
			C4.369,45.546,2.777,25.386,3.941,5.291 M10.841,11.853c-0.199,10.978-0.183,21.968-0.113,33l0.091,1.715
			c11.016-0.249,22.015-0.377,33.028-0.291c1.169-11.357,0.739-22.776,0.631-34.171C33.258,11.792,22.06,11.741,10.841,11.853z"/>
	</g>
	<g id="_x23_2896b3ff">
		<path fill="#0B69AA" d="M58.478,4.447L58.7,4.4c6.716,1.179,13.57,0.891,20.379,0.844c0.044,1.613,0.138,4.861,0.181,6.497
			c1.771,0.117,5.306,0.337,7.077,0.45c-0.271,4.591-0.516,9.173-0.811,13.793c-4.186-0.082-8.396-0.183-12.584-0.246
			c-0.339,4.322-0.605,8.658-1.322,12.963c-4.726,0.654-9.519,0.56-14.266,0.63c2.979-3.827,5.731-7.809,8.261-11.929
			c-1.657-0.717-5.017-2.201-6.675-2.92C58.768,17.792,58.808,11.122,58.478,4.447 M65.438,12.083
			c0.183,2.135,0.359,4.285,0.538,6.408c4.432,0.11,8.87,0.244,13.303,0.385c-0.068-2.419-0.112-4.842-0.181-7.259
			C74.557,11.741,70.009,11.909,65.438,12.083z"/>
	</g>
	<g id="_x23_2896adff">
		<path fill="#0B69AA" d="M93.678,5.159c15.902-0.065,31.78-0.028,47.657,0.08c0.019,15.923,0.065,31.827,0.089,47.75
			c-15.923-0.065-31.847-0.065-47.748-0.089C93.636,36.984,93.477,21.059,93.678,5.159 M100.484,11.947
			c-0.268,11.4-0.108,22.828,0.112,34.249c11.311-0.228,22.645-0.054,33.979-0.298c-0.091-11.24-0.112-22.504,0-33.768
			C123.218,11.811,111.842,11.928,100.484,11.947z"/>
	</g>
	<g id="_x23_1d9ebfff">
		<path fill="#0B69AA" d="M18.904,20.436c5.777,0,11.535,0.068,17.31,0.16c0.044,5.653,0.11,11.287,0.179,16.959
			c-5.487,0.021-10.999,0.047-16.481,0.021l-1.031-1.61C18.615,30.776,18.633,25.587,18.904,20.436z"/>
	</g>
	<g id="_x23_1aa3cbff">
		<path fill="#0B69AA" d="M114.143,23.234c3.855-1.453,9.321,1.186,8.335,5.822c0.225,5.627-6.877,7.435-10.413,3.635
			C111.907,29.485,110.787,25.2,114.143,23.234z"/>
	</g>
	<g id="_x23_229cbaff">
		<path fill="#0B69AA" d="M78.987,33.183c2.307-0.408,4.612-0.788,6.924-1.174c0.199,6.363,0.646,12.764-0.113,19.104
			c-4.274,1.634-8.803,2.534-13.211,3.738c-0.089-5.262-0.199-10.528-0.357-15.787c1.701,0.065,5.128,0.223,6.833,0.295
			C79.029,37.816,79.009,34.728,78.987,33.183z"/>
	</g>
	<g id="_x23_3b899fff">
		<path fill="#0B69AA" d="M58.876,46.502c2.153-0.061,4.298-0.11,6.451-0.155c0.064,2.236,0.156,4.472,0.225,6.717
			c-2.306-0.023-4.612-0.049-6.919-0.063C58.723,50.819,58.808,48.663,58.876,46.502z"/>
	</g>
	<g id="_x23_249db2ff">
		<path fill="#0B69AA" d="M24.343,58.882c9.316,0.028,18.631-0.023,27.95,0.15c-0.137,1.603-0.403,4.781-0.561,6.398
			c0.825,0.474,2.505,1.397,3.336,1.858l2.847,1.667c-4.882,6.094-12.943,4.5-19.797,4.446c-0.089-1.331-0.245-4.005-0.334-5.346
			c-4.838-0.497-9.675-0.982-14.51-1.505C23.63,63.991,23.985,61.441,24.343,58.882z"/>
	</g>
	<g id="_x23_269bb3ff">
		<path fill="#0B69AA" d="M127.898,58.652c4.479-0.014,8.979-0.014,13.455-0.014c-0.131,8.958,0.365,17.939-0.487,26.868
			c-2.648,2.574-5.241,5.191-7.711,7.95c-0.736,0.136-2.257,0.448-3,0.604c-1.945-8.96-4.139-17.873-7.43-26.427
			c1.299-0.548,3.896-1.608,5.193-2.147C127.919,63.794,127.898,60.363,127.898,58.652 M129.6,80.022
			c1.369,0.3,4.1,0.851,5.489,1.125c-0.023-1.77-0.023-5.356-0.023-7.125C130.052,71.744,124.875,75.354,129.6,80.022z"/>
	</g>
	<g id="_x23_1ba1c2ff">
		<path fill="#0B69AA" d="M58.004,91.919C56.845,73.49,74.979,56.66,93.321,59.744c18.005,1.833,31.688,21.075,26.58,38.694
			c-0.603,3.989-2.016,8.853,1.795,11.757c8.22,7.926,17.225,15.046,25.172,23.264c-1.029,3.501-1.369,7.44-3.743,10.378
			c-3.536,4.561-11.242,5.123-15.248,0.918c-6.745-6.112-11.892-13.683-17.85-20.488c-6.651-6.075-15.811-1.097-23.671-1.971
			C71.015,121.66,57.621,107.261,58.004,91.919 M80.961,75.391c-12.322,5.939-12.098,25.403-0.117,31.649
			c12.365,7.732,29.741-5.163,26.269-19.218C105.572,76.136,90.971,69.635,80.961,75.391z"/>
	</g>
	<g id="_x23_1f9ebbff">
		<path fill="#0B69AA" d="M9.723,67.516c6.002-0.314,14.934-2.604,15.921,6.033c4.166-0.061,8.309-0.134,12.476-0.157
			c-0.114,4.528-0.226,9.08-0.357,13.601c-4.417,0.057-8.825,0.115-13.236,0.183c-0.226-1.692-0.627-5.102-0.831-6.834
			c-4.363,0.054-8.711,0.089-13.056,0.183C10.328,76.169,10.032,71.829,9.723,67.516z"/>
	</g>
	<g id="_x23_6da2afff">
		<path fill="#0B69AA" d="M44.231,80.972c1.905-0.228,5.757-0.652,7.658-0.877c-0.987,3.832-1.97,7.863-5.957,9.649
			C45.35,86.814,44.774,83.878,44.231,80.972z"/>
	</g>
	<g id="_x23_189fcfff">
		<path fill="#0B69AA" d="M21.816,112.056c3.758,0.649,7.523,1.315,11.284,1.987c-1.769,4.013-3.557,8.025-5.352,12.023
			C21.367,123.99,21.929,117.568,21.816,112.056z"/>
	</g>
	<g id="_x23_348c9bff">
		<path fill="#0B69AA" d="M73.458,128.511c1.949,0.469,3.898,0.921,5.868,1.369c-0.448,2.369-0.917,4.77-1.388,7.164l-4.611-4.396
			c-0.158,2.687-0.293,5.381-0.423,8.081l-0.069,1.774c-4.747-0.025-9.494-0.059-14.223-0.129c0.159-2.175,0.315-4.346,0.471-6.504
			c3.089,0.112,6.16,0.251,9.249,0.387C70.187,133.775,71.845,131.152,73.458,128.511z"/>
	</g>
	<g id="_x23_2693b0ff">
		<path fill="#0B69AA" d="M87.139,131.059c4.008-0.241,8.021-0.492,12.028-0.736c0.424,1.041,1.279,3.113,1.701,4.148
			c2.466,2.171,9.385,3.41,5.4,7.545c-8.869,0.897-17.806,0.192-26.719,0.606l-0.267-1.313c-0.226-1.363-0.673-4.097-0.898-5.46
			c1.816-0.023,5.421-0.062,7.217-0.082C85.974,134.579,86.759,132.23,87.139,131.059z"/>
	</g>
</g>
<g display="none">
	<g display="inline">
		<g id="_x23_2cc2e8ff">
			<path fill="#0B69AA" d="M10.091,21.068c1.6-1.778,3.132-3.722,5.243-4.934c5.652-2.745,10.938-6.145,15.671-10.279
				c1.95-0.95,3.978-1.755,6.004-2.521C42.854,1.414,48.998,0.652,55.094,0c3.446,0.765,7.5,2.925,7.309,7.014
				c0.172,3.144-3.123,4.452-5.289,5.897c-16.054-1.349-32.197,6.911-41.092,20.221c-2.269,3.415-3.33,7.526-5.892,10.75
				c-2.117,1.56-5.155,1.581-7.423,0.297c-1.104-2.021-3.383-4.115-2.512-6.62C2.114,31.375,6.038,26.04,10.091,21.068z"/>
			<path fill="#0B69AA" d="M25.1,43.406c4.857-8.458,13.243-15.081,22.911-16.931c3.118-0.532,6.575-1.418,9.55,0.098
				c4.939,2.167,3.229,11.306-2.34,11.22c-5.811,0.545-11.831,2.174-15.897,6.653c-3.104,2.973-3.693,8.367-8.295,9.662
				c-2.2-0.663-4.449-1.383-6.236-2.874C23.3,48.793,24.335,45.892,25.1,43.406z"/>
		</g>
		<g id="_x23_2cc1e8ff">
			<path fill="#0B69AA" d="M46.876,54.025c3.536-4.443,11.394-5.15,14.845-0.237c3.202,3.679,2.639,10.085-1.851,12.499
				c-2.971,2.591-7.137,1.975-10.512,0.682C46.105,63.423,45.061,58.503,46.876,54.025z"/>
		</g>
	</g>
	<path display="inline" fill="#0B69AA" d="M68.231,81.605c9.2-14.896,27.821-23.755,45.163-19.973
		c17.534,3.066,33.585,17.534,35.285,35.764c0.752,8.408,0.97,17.462-2.81,25.251c-1.154,2.07-2.35,4.12-3.562,6.158
		c-7.632,0.068-15.378-0.219-22.57-2.987c-10.631,3.159-23.993,4.915-31.891-4.786c-11.232-11.427-6.172-32.013,8.21-38.138
		c9.47-3.166,21.646-1.678,27.97,6.8c6.662,8.542,4.649,20.226,5.257,30.331c2.714-0.471,5.425-1.019,8.116-1.629
		c9.836-18.09-2.891-41.315-21.581-47.106c-16.543-5.525-36.187,3.872-42.436,20.079c-7.722,16.814,0.715,38.848,18.078,45.574
		c11.284,6.156,23.972,1.542,35.591-0.771c-0.171,2.695-0.334,5.379-0.505,8.09c-16.783,8.063-38.551,6.052-51.802-7.705
		C59.897,122.861,57.041,98.389,68.231,81.605 M93.314,96.89c-7.146,9.181,1.456,24.248,12.954,23.074
		c10.705,0.023,17.219-12.881,12.377-21.974c-2.101-5.105-7.869-6.66-12.279-9.082C101.693,90.829,95.668,91.703,93.314,96.89z"/>
</g>
<g display="none">
	<g id="_x23_2abee6ff" display="inline">
		<path fill="#0B69AA" d="M14.302,34.364c6.511-10.577,17.108-17.979,25.36-27.19c2.472,1.783,5.013,3.572,7.458,5.392
			c0.615,1.246,1.786,3.684,2.367,4.901c0.126,1.061,0.372,3.241,0.481,4.307c-6.111,6.464-12.658,12.512-18.492,19.243
			c-1.708,2.131-3.905,3.088-6.582,2.936C19.968,42.825,17.365,37.953,14.302,34.364z"/>
	</g>
	<g id="_x23_5cabb3ff" display="inline">
		<path fill="#0B69AA" d="M49.49,17.474c3.177,1.044,3.336,2.478,0.483,4.307C49.864,20.715,49.631,18.535,49.49,17.474z"/>
	</g>
	<g id="_x23_25c1e9ff" display="inline">
		<path fill="#0B69AA" d="M56.54,26.525c5.703,1.217,9.345,6.026,13.243,9.947c-5.794,8.97-11.676,17.868-17.932,26.532
			c10.771-7.328,20.804-15.667,31.342-23.31c1.755,0.699,5.201,2.111,6.949,2.811c1.755-0.612,5.306-1.877,7.067-2.504
			c4.468,2.867,9.94,5.011,12.774,9.771c1.069,4.026,0.857,8.25,1.203,12.356c2.588,6.333-1.448,11.667-5.428,16.262
			c-5.852,7.049-11.517,14.253-17.089,21.492c7.901-4.665,15.644-9.608,23.352-14.586c4.401,3.072,7.771,7.221,9.99,12.114
			c-7.567,6.946-15.038,13.991-21.807,21.74c-5.522-3.872-10.433-8.482-15.308-13.074c0.076,14.098-4.087,29.67-16.275,38.103
			c-3.81,0.798-7.747,0.429-11.588,0.5c4.37,0.612,8.737,1.303,13.122,2.001c-2.643-0.152-5.263-0.286-7.873-0.434
			c-1.152-0.069-3.381-0.174-4.524-0.24c-7.423-4.401-15.832-7.64-21.607-14.344c0.757-0.672,2.198-1.981,2.929-2.648
			c6.973,2.706,13.181,7.063,20,10.157c0.824-11.005-7.335-19.294-14.01-26.96c-8.799-8.888-18.18-18.523-31.004-20.952
			c1.029,4.392,2.198,8.773,3.344,13.155c-0.279,1.515-0.893,4.534-1.169,6.029c-5.187-7.539-11.254-16.26-9.335-25.902
			c7.616-13.268,24.502-17.145,38.798-16.848c-0.214-0.627-0.626-1.912-0.851-2.541c-4.52-4.312-8.852-8.84-13.581-12.932
			C39.829,43.789,48.361,35.32,56.54,26.525z"/>
	</g>
	<g id="_x23_55b9ccff" display="inline">
		<path fill="#0B69AA" d="M112.02,85.297c6.356-3.62,10.166,4.539,14.346,7.973c-1.467,1.391-2.929,2.782-4.362,4.146
			C119.785,92.518,116.418,88.369,112.02,85.297z"/>
	</g>
	<g id="_x23_2bbee6ff" display="inline">
		<path fill="#0B69AA" d="M107.183,123.8c7.683-8.987,16.542-16.86,25.324-24.771c4.163,4.398,8.517,8.649,13.036,12.75
			c-9.009,9.121-18.061,18.194-27.231,27.134c-3.979-3.729-7.936-7.482-11.896-11.209C106.602,126.748,106.992,124.79,107.183,123.8
			z"/>
	</g>
	<g id="_x23_35b9d8ff" display="inline">
		<path fill="#0B69AA" d="M17.413,104.415c3.51,4.024,7.189,7.942,10.862,11.845c2.717-1.614,5.398-3.402,8.337-4.672
			c1.436,1.563,2.849,3.167,4.201,4.842c-7.232,5.722-13.458,12.738-16.373,21.623c-3.786,4.827-12.767,0.528-12.152-5.613
			c-1.502-7.497,7.43-8.439,12.412-10.563c-1.879-2.418-3.753-4.797-5.535-7.23c-1.026-1.389-2-2.801-2.938-4.206
			C16.517,108.949,17.136,105.925,17.413,104.415z"/>
	</g>
</g>
<g display="none">
	<path display="inline" fill="#0E96CC" d="M88.858,126.648H84.48v-3.582c0-3.298-2.475-5.971-5.772-5.971H21.39
		c-3.298,0-6.169,2.673-6.169,5.971v3.582h-3.384c-3.297,0-6.169,2.673-6.169,5.971v7.762c0,3.298,2.872,5.971,6.169,5.971h77.022
		c3.298,0,5.772-2.673,5.772-5.971v-7.762C94.631,129.321,92.156,126.648,88.858,126.648z"/>
	<path display="inline" fill="#0E96CC" d="M142.107,122.906L89.256,59.434l14.684-12.227c2.532-2.11,3.004-5.722,0.894-8.256
		L80.765,10.045c-2.11-2.534-6.002-3.031-8.536-0.921L28.181,45.801c-2.535,2.11-2.751,6.028-0.642,8.563l24.069,28.907
		c2.11,2.533,5.749,2.725,8.283,0.614l14.223-11.843l52.852,63.471c2.11,2.533,5.748,2.725,8.282,0.615l5.964-4.967
		C143.747,129.05,144.218,125.438,142.107,122.906z"/>
</g>
<path display="none" fill="#0FCCD1" d="M146.397,69.467h-3.866l-18.839-0.591l1.563-0.722l-0.11-0.277h-0.647l0.129-0.472h1.609
	l1.813-0.832l1.166-0.343l0.055-1.655l-2.784-0.305l-0.054-1.267l2.728-0.333h-2.756l0.084-1.868l2.754-0.212l-2.7-0.371
	c0,0-0.702-0.416-0.757-0.018l-1.564,0.055c0,0-0.286-0.647-0.397,0l-0.342,0.056l-0.398-0.185l-0.231-1.878h-0.545l-0.158,0.157
	l-1.563,0.102l-0.231-0.259h-1.535l-0.102,0.213l-0.759-0.111l-1.11-0.157l-0.934-0.416h-3.607l0.129,0.286l-4.65-0.11l0.111-1.193
	l-0.343-0.528l-0.111-5.271l0.23-0.444h0.204l0.147-0.629h-2.034l0.13,0.473h0.342l0.231,0.462l-0.056,4.522l-4.577,0.148
	l-0.287-0.944l2.211,0.185l0.111-5.956h-5.53l-0.103,1.174l-0.23,0.287l-0.176-0.37l-1.11-0.074l-0.055,0.343l-0.397,0.056
	l-0.112,1.332l-0.461,0.046l-0.057-3.034l-4.994,0.546l-0.176,3.3L88.9,52.642c0,0,0.287-2.284-0.629-2.754h0.656l-0.083-1.11
	l-2.442-3.006h-2.237l0.018-1.795c0,0-0.286-0.5-1.849-0.369l-4.521,0.397c0,0-0.823-0.074-0.759,0.564L75.37,44.81l-0.111-0.462
	h-0.731v0.314l-1.248-0.056l-0.629,0.397l-1.166,0.056l-0.241,0.278l-9.562-0.278c0,0-0.305,0.231-0.019,0.703l9.35,0.341
	l0.499,0.343l0.37,0.703l-2.839-0.342c0,0-0.628,0.397-0.174,1.11l0.396,0.055c0,0-0.342,0.703,0.759,0.934l0.519,0.111
	c0,0-0.574,0.823-0.462,1.396l1.424,0.343c0,0-0.259,0.398,0,1.221l-0.563,1.221l1.044,0.231l0.231-0.399l0.286,0.056l-0.174,0.822
	l-0.288,1.914l-2.783,0.231l-0.112,0.99l-9.932,0.231c0,0-1.046-0.176-0.99,0.934l-0.056,3.126l-0.397,0.056l-0.49,0.86
	l-9.637,1.923l-0.916,2.184h-1.332c0,0-1.064,0.276-0.758,1.174l-1.018-0.027c-0.656-1.452-2.728-1.747-2.728-1.747l-4.882,0.018
	c-1.591-0.277-2.803,1.582-2.803,1.582c-1.248-0.203-1.71,0.129-1.876,0.398L9.69,68.406c-0.204-0.232-0.37-0.306-0.37-0.306H6.916
	l0.592-0.944H5.926H3.803l-0.316,1.406l-1.165,0.091c-1.618,2.47,0.444,3.423,0.444,3.423h3.847
	c0.602,0.628,2.183,0.472,2.183,0.472c0.277-0.019,0.648-0.314,0.935-0.472h21.844c0.397,0.314,0.943,0.472,0.943,0.472h1.591
	l8.23-0.389v0.389l5.384,1.433l5.862,0.787h0.943l1.684,0.545c0,0-4.227,0.49-9.747,1.137v0.056h-1.11v0.073
	c-0.786,0.111-1.739,0.213-2.839,0.334V76.83h-1.424v0.241c-1.109,0.129-2.21,0.239-3.486,0.36v-0.286h-0.943v0.37
	c-0.472,0.046-0.943,0.083-1.424,0.129v-0.342h-1.11v0.435c-0.314,0.027-0.628,0.046-0.943,0.073v-0.5h-1.268v0.593
	c-1.267,0.083-2.367,0.13-3.486,0.147v-0.258h-1.267v0.258c-0.158,0-0.333-0.018-0.528-0.018l-0.602,1.072l-4.624,0.416l-5.9,1.943
	l-1.738,1.746l-1.073,1.693c0,0-0.833,2.007-0.333,3.273h2.599l0.721,0.73c0,0,0.083,0.602-0.241,0.86l0.241,1.461
	c0,0,0.657,0.074,0.416,0.647c0,0,0.417,1.405,1.582,2.487c0,0,0.657,0.074,0.657,0.491l1.666,1.322c0,0,0.823-0.157,0.823,0.471
	L26,98.434c0,0,13.048,4.236,17.792,4.236c0,0,9.164-0.26,14.334-0.907c3.329,1.951,8.786,5.022,11.245,5.688l7.899,1.525
	c0,0,2.284,0.434,7.851-1.239l48.127-9.331c0,0,1.073-0.129,0.906-0.758c0,0,0-0.528,1.109-0.232c0,0,1.221-0.463,0.823-1.221
	c0,0,0-0.935,0.703-0.518c0,0,1.045-0.464,0.935-1.221c0,0-0.287-0.759,0.629-0.573c0,0,0.99-0.343,0.878-1.277
	c0,0-0.176-0.935,0.703-0.573c0,0,0.934-0.629,0.823-1.046c0,0-0.463-0.988,0.629-0.821c0,0,0.935-0.288,0.878-1.167l0.704-0.879
	c0,0,0.822-0.935,0.758-1.164c0,0,0.397-0.519,0.397-0.935c0-0.398,0.703-1.562,0.287-2.033c-0.417-0.474,0.436-0.76,0.131-1.166
	c-0.306-0.397,0.545-1.711,0.073-1.813c-0.473-0.102-0.148-1.268-0.491-1.322c-0.343-0.056-0.147-0.62-0.147-0.62l3.044-0.361v-3.07
	c0,0,0.184-0.646-0.751-0.702l0.159-1.849c0,0,1.653-0.055,1.653-1.924C148.034,71.159,148.089,69.467,146.397,69.467z
	 M124.026,60.922h1.424v1.582h-1.424V60.922z M36.17,98.903l-1.267-0.462v-1.12l-0.852-0.176l-0.444,0.887l-1.249-0.156v-1.385
	l-0.823-0.334l-0.305,1.008l-1.461-0.5l0.343-0.989l-0.906-0.463l-0.657,0.989l-0.989-0.305l1.998-2.201l5.484,0.805l0.37,0.416
	c-0.084,1.333,0.749,3.69,0.749,3.69L36.17,98.903L36.17,98.903z M48.202,99.551H47.73v-1.146l-0.185-0.231
	c0.277-0.176,0.62-1.563,0.62-1.563c0.49,0.832,1.507,1.461,1.507,1.461C49.395,100.253,48.202,99.551,48.202,99.551z
	 M123.073,60.922h0.473v1.582h-0.473V60.922z"/>
</svg>
