<?xml version="1.0" encoding="utf-8"?>
<!-- Generator: Adobe Illustrator 16.0.0, SVG Export Plug-In . SVG Version: 6.00 Build 0)  -->
<!DOCTYPE svg PUBLIC "-//W3C//DTD SVG 1.1//EN" "http://www.w3.org/Graphics/SVG/1.1/DTD/svg11.dtd">
<svg version="1.1" id="Слой_1" xmlns="http://www.w3.org/2000/svg" xmlns:xlink="http://www.w3.org/1999/xlink" x="0px" y="0px"
	 width="150px" height="150px" viewBox="0 0 150 150" enable-background="new 0 0 150 150" xml:space="preserve">
<path d="M148.037,81.094h-3.943l-19.217-0.604l1.595-0.735l-0.113-0.283h-0.66l0.132-0.481h1.642l1.849-0.849l1.189-0.349
	l0.057-1.689l-2.84-0.311L127.67,74.5l2.783-0.34h-2.812l0.085-1.905l2.811-0.218l-2.754-0.377c0,0-0.717-0.424-0.773-0.019
	l-1.595,0.057c0,0-0.292-0.661-0.405,0l-0.35,0.057l-0.405-0.188l-0.235-1.916h-0.557l-0.161,0.161l-1.595,0.104l-0.235-0.265
	h-1.565l-0.104,0.218l-0.773-0.113l-1.132-0.161l-0.953-0.424h-3.68l0.133,0.293l-4.746-0.113l0.113-1.218l-0.349-0.538
	l-0.113-5.377l0.235-0.453h0.208l0.151-0.641h-2.076l0.133,0.48h0.349l0.235,0.473l-0.057,4.612l-4.669,0.151l-0.292-0.963
	l2.254,0.189l0.113-6.076h-5.642l-0.104,1.198l-0.235,0.292l-0.18-0.377l-1.133-0.075l-0.057,0.349l-0.405,0.057l-0.112,1.359
	l-0.473,0.047l-0.057-3.095l-5.094,0.557l-0.18,3.368l-1.83,0.264c0,0,0.293-2.33-0.642-2.811h0.67L89.33,59.99l-2.49-3.066h-2.283
	l0.02-1.83c0,0-0.293-0.509-1.888-0.377l-4.612,0.406c0,0-0.84-0.076-0.774,0.575l-1.717,0.245l-0.113-0.472h-0.745v0.321
	l-1.274-0.057l-0.641,0.405l-1.189,0.057l-0.245,0.282l-9.755-0.282c0,0-0.311,0.235-0.019,0.717l9.538,0.349l0.509,0.35
	l0.377,0.717l-2.896-0.35c0,0-0.641,0.406-0.179,1.133l0.406,0.057c0,0-0.349,0.717,0.773,0.953l0.528,0.113
	c0,0-0.584,0.84-0.472,1.424l1.453,0.35c0,0-0.264,0.405,0,1.245L71.066,64.5l1.066,0.236l0.236-0.406l0.292,0.057l-0.179,0.84
	l-0.292,1.953l-2.839,0.235l-0.113,1.009L59.104,68.66c0,0-1.066-0.18-1.009,0.953l-0.057,3.188l-0.406,0.057l-0.5,0.878
	l-9.83,1.962l-0.934,2.226h-1.359c0,0-1.085,0.283-0.773,1.199l-1.038-0.029c-0.67-1.48-2.783-1.782-2.783-1.782l-4.981,0.019
	c-1.623-0.283-2.858,1.613-2.858,1.613c-1.274-0.207-1.746,0.133-1.916,0.406L8.585,80.01c-0.208-0.236-0.377-0.312-0.377-0.312
	H5.755l0.604-0.962H4.745H2.576L2.255,80.17l-1.189,0.094c-1.651,2.52,0.453,3.491,0.453,3.491h3.924
	c0.613,0.642,2.227,0.481,2.227,0.481c0.283-0.02,0.66-0.321,0.953-0.481h22.283c0.406,0.321,0.962,0.481,0.962,0.481h1.623
	l8.396-0.396v0.396l5.491,1.462l5.981,0.802h0.962l1.717,0.557c0,0-4.311,0.5-9.943,1.16v0.057h-1.132v0.076
	c-0.802,0.113-1.774,0.217-2.896,0.339v-0.085h-1.453v0.246c-1.132,0.131-2.255,0.244-3.557,0.367v-0.293h-0.962v0.378
	c-0.481,0.048-0.962,0.085-1.453,0.132v-0.349h-1.132v0.443c-0.321,0.028-0.641,0.048-0.962,0.075v-0.51h-1.292v0.604
	c-1.292,0.085-2.415,0.132-3.557,0.151v-0.265h-1.292v0.265c-0.161,0-0.34-0.02-0.538-0.02l-0.613,1.094l-4.717,0.426l-6.019,1.98
	l-1.774,1.783l-1.094,1.727c0,0-0.849,2.047-0.339,3.34h2.651l0.736,0.744c0,0,0.085,0.613-0.246,0.878l0.246,1.491
	c0,0,0.67,0.075,0.424,0.66c0,0,0.425,1.434,1.613,2.537c0,0,0.67,0.076,0.67,0.5l1.698,1.35c0,0,0.839-0.16,0.839,0.48l5.273,1.821
	c0,0,13.312,4.321,18.151,4.321c0,0,9.349-0.265,14.623-0.926c3.396,1.991,8.962,5.123,11.472,5.803l8.057,1.557
	c0,0,2.33,0.443,8.009-1.265l49.095-9.519c0,0,1.094-0.133,0.924-0.773c0,0,0-0.538,1.133-0.236c0,0,1.244-0.472,0.84-1.245
	c0,0,0-0.952,0.717-0.528c0,0,1.065-0.472,0.952-1.245c0,0-0.292-0.773,0.642-0.585c0,0,1.01-0.35,0.896-1.302
	c0,0-0.18-0.953,0.717-0.585c0,0,0.953-0.642,0.84-1.066c0,0-0.472-1.01,0.641-0.84c0,0,0.953-0.292,0.896-1.188l0.717-0.896
	c0,0,0.84-0.953,0.774-1.189c0,0,0.405-0.527,0.405-0.953c0-0.404,0.717-1.594,0.293-2.074c-0.425-0.482,0.443-0.774,0.132-1.189
	c-0.312-0.405,0.557-1.745,0.075-1.849c-0.48-0.104-0.15-1.292-0.5-1.349c-0.349-0.057-0.15-0.633-0.15-0.633l3.104-0.367v-3.133
	c0,0,0.188-0.66-0.764-0.717l0.16-1.887c0,0,1.688-0.057,1.688-1.963C149.707,82.82,149.764,81.094,148.037,81.094z M125.217,72.377
	h1.453v1.613h-1.453V72.377z M35.594,111.123l-1.292-0.473v-1.141l-0.868-0.18l-0.453,0.906l-1.273-0.16v-1.416l-0.839-0.34
	l-0.312,1.029l-1.491-0.51l0.349-1.01l-0.924-0.472l-0.67,1.01l-1.009-0.312l2.038-2.245l5.594,0.82l0.377,0.425
	c-0.085,1.358,0.764,3.764,0.764,3.764L35.594,111.123L35.594,111.123z M47.868,111.783h-0.481v-1.17l-0.188-0.236
	c0.283-0.179,0.632-1.594,0.632-1.594c0.5,0.849,1.538,1.49,1.538,1.49C49.085,112.5,47.868,111.783,47.868,111.783z
	 M124.245,72.377h0.481v1.613h-0.481V72.377z"/>
</svg>
