<?xml version="1.0" encoding="utf-8"?>
<!-- Generator: Adobe Illustrator 16.0.0, SVG Export Plug-In . SVG Version: 6.00 Build 0)  -->
<!DOCTYPE svg PUBLIC "-//W3C//DTD SVG 1.1//EN" "http://www.w3.org/Graphics/SVG/1.1/DTD/svg11.dtd">
<svg version="1.1" id="Layer_1" xmlns="http://www.w3.org/2000/svg" xmlns:xlink="http://www.w3.org/1999/xlink" x="0px" y="0px"
	 width="500px" height="500px" viewBox="0 0 500 500" enable-background="new 0 0 500 500" xml:space="preserve">
<polygon fill="none" stroke="#B3FFF9" stroke-width="20" stroke-miterlimit="10" points="434,338.313 251,443.624 68,338.313 
	68,127.688 251,22.375 434,127.688 "/>
<rect x="7" y="394" fill="#B3FFF9" width="483" height="92"/>
<g display="none">
	<g display="inline">
		<path fill="#B3FFF9" d="M247.947,422.992c-1.458,0-2.918-0.283-4.291-0.851c-1.571-0.646-38.874-16.124-76.776-41.275
			c-52.998-35.173-79.873-70.886-79.873-106.149V69.443c0-3.838,1.954-7.414,5.186-9.486c3.231-2.07,7.297-2.357,10.784-0.754
			c11.134,5.11,23.042,7.703,35.389,7.703c32.659,0,62.807-19.099,76.801-48.654c1.864-3.936,5.829-6.447,10.184-6.447h45.19
			c4.355,0,8.322,2.512,10.184,6.447c5.107,10.785,12.297,20.225,21.366,28.054c4.712,4.067,5.233,11.184,1.168,15.894
			s-11.183,5.232-15.893,1.168c-9.62-8.304-17.565-18.045-23.688-29.025H232.21c-18.868,33.693-54.947,55.1-93.844,55.1
			c-9.859,0-19.503-1.311-28.822-3.905v189.182c0,53.649,96.072,106.47,138.402,124.772
			c42.328-18.305,138.402-71.123,138.402-124.772V85.539c-9.32,2.594-18.961,3.904-28.822,3.904c-6.223,0-11.268-5.046-11.268-11.27
			c0-6.222,5.045-11.269,11.268-11.269c12.348,0,24.254-2.591,35.391-7.703c3.488-1.604,7.554-1.316,10.783,0.755
			c3.23,2.072,5.187,5.648,5.187,9.486v205.272c0,35.265-26.875,70.978-79.873,106.15c-37.901,25.151-75.206,40.631-76.776,41.275
			C250.865,422.709,249.406,422.992,247.947,422.992z"/>
		<path fill="#B3FFF9" d="M247.947,355.308c-1.748,0-3.496-0.405-5.096-1.22c-10.891-5.521-27.244-14.365-43.312-25.122
			c-35.028-23.45-49.511-43.073-51.272-52.749c-0.121-0.666-0.182-1.34-0.182-2.017V137.554c0-5.631,4.156-10.396,9.733-11.164
			c30.676-4.216,59.903-18.46,82.297-40.104c4.369-4.221,11.293-4.221,15.662,0c22.395,21.645,51.623,35.888,82.297,40.104
			c5.576,0.769,9.732,5.533,9.732,11.164v136.645c0,0.678-0.06,1.352-0.18,2.017c-1.764,9.678-16.246,29.301-51.273,52.751
			c-16.068,10.756-32.42,19.601-43.312,25.121C251.443,354.901,249.696,355.308,247.947,355.308z M170.623,272.327
			c2.292,4.688,13.229,19.018,41.456,37.912c12.813,8.578,25.889,15.896,35.87,21.123c9.982-5.227,23.057-12.545,35.871-21.123
			c28.225-18.896,39.162-33.226,41.453-37.912V147.081c-28.351-5.641-55.223-18.671-77.325-37.486
			c-22.101,18.815-48.975,31.846-77.325,37.486V272.327L170.623,272.327z"/>
	</g>
</g>
<g display="none">
	<line display="inline" fill="none" stroke="#B3FFF9" stroke-miterlimit="10" x1="77.09" y1="133.852" x2="243.5" y2="236"/>
	<line display="inline" fill="none" stroke="#B3FFF9" stroke-miterlimit="10" x1="429.441" y1="130" x2="243.5" y2="236"/>
	<line display="inline" fill="none" stroke="#B3FFF9" stroke-miterlimit="10" x1="243.5" y1="236" x2="243.5" y2="394"/>
</g>
<path fill="#0FCCD1" d="M490.009,328.148c-0.162-0.446-0.607-0.731-1.948-0.771v-0.854v-0.608v-15.628l-1.178,15.628h-0.041v1.502
	c-0.242,0-0.526,0.041-0.811,0.041c-2.964,0.203-52.815,5.034-52.815,5.034l-1.218-2.883h-10.554l-13.194,3.694l-0.202-1.219
	l1.542-0.406l-0.324-2.76l1.016-0.406c0,0-0.284-0.527-0.69-1.219h15.224v-0.729h-15.67c-0.364-0.65-0.771-1.301-1.055-1.747
	c-0.73-1.137-3.166-4.385-8.402-3.896c-5.236,0.487-6.617,7.023-6.617,7.023l0.324,3.855h2.964v1.503h-8.079v-4.71
	c0.935-0.567,2.191-1.502,2.232-2.354c0.04-0.771-1.177-1.217-2.232-1.502v-1.503h-7.063l-2.559-2.396l-2.231-0.648
	c0,0-0.244-0.527-0.648-1.138h1.582v-0.203h-1.704c-0.568-0.771-1.421-1.583-2.478-1.542c-1.947,0.122-1.826,3.531-1.826,3.531
	l-2.883,0.854l-8.402-3.288c0,0-0.122-0.487-0.406-1.016h1.867v-0.323h-2.07c-0.406-0.568-1.055-1.139-2.029-1.017
	c-2.029,0.203-1.218,3.37-1.218,3.37l-4.506,0.609v-0.609h-3.897l-2.354-2.679h-8.605c0,0-0.73-0.731-2.762,0
	c-2.029,0.729-1.744,2.679-1.744,2.679v3.775h-2.478v-6.454h-3.125l0.161-2.56c0,0,2.031-1.137,1.544-2.761
	c-0.527-1.623-1.746-1.542-1.746-1.542l-2.354,0.365l-1.541,0.568c0,0-1.22,1.217-0.529,3.085c0.73,1.826,2.031,1.016,2.031,1.016
	v1.827h-3.694l-2.679-2.763v-4.303l1.867-4.506h0.812v-3.166h-9.581v-2.354l-1.908,0.445v1.909h-10.762v-7.186h0.609
	c0.284,1.178,0.852,1.947,1.542,1.947c0.976,0,1.746-1.665,1.746-3.693c0-2.029-0.771-3.694-1.746-3.694
	c-0.69,0-1.298,0.895-1.583,2.152h-6.412v3.288v7.186h-2.152c0-1.422-0.162-3.938-1.057-3.775c-0.893,0.161-0.771,2.518-0.609,3.775
	h-0.282l-6.657-14.331h1.096v-3.085c0,0,0.936,1.218,1.826,1.746c0.934,0.527,2.762,0.527,3.086,0
	c0.324-0.528-1.137-2.761-2.232-4.71c0,0-0.934-0.729-1.219-2.232c-0.283-1.502,1.137-2.028,1.137-2.028l2.396,1.137v-0.935
	l-1.057-1.34l-0.324-1.624h-1.746l0.203,1.016h-1.341c0,0-1.542,0.325-2.476,1.948c-0.935,1.625-0.326,4.102-0.326,4.102h-0.934
	l-0.812,0.202l-3.005-6.413c1.746-0.813,4.224,0.364,4.224,0.364s-1.624-1.745-3.166-2.354c-0.69-0.284-1.422-0.244-2.03-0.162
	l-0.609-1.299c0.568-0.203,1.26-0.366,1.949-0.366c1.42,0,3.369-1.745,3.369-1.745l-7.834-0.283l-2.029-9.58
	c0,0.081,1.379,5.074,4.343,4.79c2.964-0.325,6.048-1.017,6.048-1.017l-3.368-13.396c0,0-1.218,0.528-1.948,0.73
	c-0.73,0.203-1.42,0-1.42,0v-1.421c0,0-1.625,0-2.965,0s-2.15,0-2.15,0v1.543l-0.609,3.369v0.731c0,0-2.029-0.203-6.13-0.325
	s-5.521,0.122-5.317,0.812c0.202,0.731,1.016,1.948,1.016,1.948v1.422l6.332,3.288c0,0,1.016-0.73,1.34-1.34
	s0.406-1.219,0.406-1.219s1.178,0,2.191-0.04l-1.299,9.743l-6.333,0.121l-1.015-1.137l-0.935,1.137l-2.11-4.911l0,0l-2.192-22.652
	l-0.608,6.252l-2.029,0.121l1.826,2.03l1.219,12.057l-1.016,7.388h-3.288l0.121,4.101l2.029,0.528l0.122,2.478h-3.693v1.825
	l8.891,0.527l1.828,2.68l1.34-1.744l2.476,0.526l-0.528,2.801c-0.324-0.161-0.729-0.243-1.137-0.243
	c-1.42,0-2.559,1.137-2.559,2.558s1.139,2.558,2.559,2.558c0.081,0,0.121,0,0.203,0l0,0h-0.203h-4.507v0.406h4.628l-0.811,4.183
	h-3.33v0.934h3.166l-0.526,2.761h-3.127v0.729h3.005l-0.243,1.218h-1.746v2.883l0.082,0.325h-2.964v1.016h2.03v2.23h0.812v1.747
	h-5.725v4.506h3.369v1.016c0,0-1.543,0.404-1.623,1.744c-0.082,1.341,0.121,2.233,0.121,4.305c0,2.028,1.543,2.231,1.543,2.231
	l-3.086,2.029v-3.572h-1.217v4.385l-1.259,0.854h-4.507l-0.487-0.082v-1.137h-2.963v-2.477h-8.688v-5.928h-2.029v5.237l-8.281-12.3
	c1.055-0.325,1.785-1.259,1.785-2.396c0-1.38-1.137-2.517-2.516-2.517c-0.813,0-1.502,0.365-1.949,0.934l-0.203-0.284h-4.506v-8.687
	c0.324,0.688,0.649,1.38,0.934,1.987c0.934,2.151,4.303,3.775,6.13,3.207c1.827-0.608,2.761-2.599,3.491-5.357
	s2.354-8.688,2.354-8.688l-1.745-4.385l-1.99-1.34c-3.41-2.354-5.683-6.332-5.683-6.332l0.69-1.015v-2.152
	c0,0-0.69-0.526-2.518,0.325c-1.826,0.813-4.303,0.608-4.303,0.608v-4.101l-1.096-1.056l-0.609,4.831l-1.422,0.527l0.813,3.288
	l0.609,5.927c0,0-3.491,0.936-3.979,1.26c-0.488,0.323,0,2.76,0,2.76s-1.015-1.34-3.289-2.477c-2.231-1.138-8.809,2.354-9.416,5.317
	c-0.691,3.248,4.586,5.278,8.28,5.846c4.182,0.608,4.101-0.122,5.114-1.219c0.609-0.688,1.705-2.313,2.477-3.49v14.493
	c-0.445-0.407-1.055-0.649-1.705-0.649c-1.379,0-2.516,1.137-2.516,2.517c0,1.381,1.137,2.518,2.516,2.518
	c0.65,0,1.26-0.242,1.705-0.648v1.867h2.152l-0.203,0.525h-44.574l0.244-3.368l0.935-0.405l0.121-0.446l-0.527-0.853l0.527-4.345
	l0.528-0.121v-1.947h-6.333l-0.203,1.136h1.218v0.974l-5.236,16.646h-2.518v3.37l-1.908,4.1v7.063h1.949l2.232,5.644h-11.041v5.603
	l-11.448,0.528l-1.339-2.477l-7.064,2.882l-1.015-2.354l-1.624-0.405v-1.625l-2.15-0.08v-2.071h-4.832l-1.421-5.644l-17.415,0.854
	v-3.126h2.76v-6.535h-5.114l-0.081-1.34c0,0,1.543-0.813,2.477-2.355s0-3.489,0-3.489l-3.491-4.305l-2.72-1.542
	c0,0-4.344,0.526-6.09,3.571c-1.746,3.045,0.934,6.252,0.934,6.252l1.218,1.34h0.731l0.934,1.826H86.01v6.536h2.881v3.167H83.37
	v-3.897h-0.528v3.897h-7.387l-0.609-3.897h-1.624v3.897h-1.421v-3.897h-1.34v3.897h-3.369v-2.883h-1.746v2.883h-2.029l-5.48,14.248
	H17.403v5.115H6.971v0.813l10.433,11.528h439.033c0,0,10.027-13.194,14.047-17.617c3.979-4.385,12.707-12.179,15.67-14.453
	C489.115,329.895,490.212,328.798,490.009,328.148z M165.332,319.664l-0.123,4.222l-2.11-2.882L165.332,319.664z M162.814,337.079
	l1.096-5.644h1.016l-0.203,5.644H162.814z M293.123,302.045v-7.186h3.005l0.813,7.186H293.123z"/>
<path fill="#0FCCD1" d="M242.104,191.286h-6.229l-30.354-0.953l2.519-1.163l-0.179-0.447h-1.043l0.209-0.76h2.592l2.921-1.341
	l1.878-0.552l0.089-2.667l-4.485-0.491l-0.089-2.042l4.396-0.537h-4.441l0.135-3.01l4.439-0.342l-4.35-0.597
	c0,0-1.133-0.67-1.222-0.029l-2.519,0.089c0,0-0.462-1.043-0.641,0l-0.551,0.09l-0.641-0.298l-0.373-3.026h-0.879l-0.254,0.253
	l-2.519,0.164l-0.372-0.417h-2.474l-0.163,0.343l-1.223-0.179l-1.789-0.253l-1.503-0.67h-5.813l0.208,0.461l-7.494-0.178l0.18-1.923
	l-0.553-0.85l-0.179-8.493l0.372-0.716h0.328l0.238-1.013h-3.277l0.209,0.761h0.551l0.373,0.745l-0.09,7.287l-7.376,0.238
	l-0.462-1.521l3.561,0.298l0.181-9.596h-8.911l-0.165,1.892l-0.372,0.461l-0.283-0.596l-1.788-0.119l-0.089,0.552l-0.641,0.091
	l-0.18,2.145l-0.744,0.075l-0.09-4.889l-8.047,0.88l-0.283,5.318l-2.891,0.417c0,0,0.463-3.68-1.013-4.439h1.058l-0.134-1.788
	l-3.935-4.843h-3.605l0.029-2.892c0,0-0.462-0.805-2.979-0.595l-7.286,0.64c0,0-1.326-0.119-1.223,0.909l-2.712,0.388l-0.179-0.744
	h-1.178v0.507l-2.011-0.09l-1.013,0.64l-1.878,0.09l-0.388,0.447l-15.407-0.447c0,0-0.492,0.372-0.03,1.133l15.065,0.55l0.804,0.553
	l0.596,1.132l-4.574-0.551c0,0-1.013,0.64-0.281,1.789l0.639,0.089c0,0-0.551,1.132,1.223,1.505l0.835,0.179
	c0,0-0.925,1.326-0.745,2.25l2.294,0.552c0,0-0.417,0.642,0,1.968l-0.908,1.967l1.683,0.373l0.373-0.643l0.461,0.09l-0.281,1.325
	l-0.463,3.084l-4.484,0.373l-0.18,1.596l-16.002,0.372c0,0-1.686-0.283-1.596,1.505l-0.09,5.037l-0.641,0.09l-0.789,1.386
	l-15.527,3.099l-1.475,3.518h-2.146c0,0-1.714,0.446-1.222,1.892l-1.64-0.044c-1.058-2.34-4.396-2.815-4.396-2.815l-7.867,0.029
	c-2.563-0.447-4.516,2.548-4.516,2.548c-2.011-0.327-2.756,0.208-3.023,0.642l-34.869,1.042c-0.328-0.373-0.596-0.492-0.596-0.492
	h-3.875l0.954-1.521h-2.548H12.35l-0.508,2.266l-1.877,0.147c-2.607,3.979,0.715,5.515,0.715,5.515h6.198
	c0.97,1.013,3.517,0.76,3.517,0.76c0.447-0.03,1.044-0.506,1.506-0.76h35.195c0.64,0.506,1.52,0.76,1.52,0.76h2.563l13.262-0.626
	v0.626l8.674,2.309l9.445,1.268h1.52l2.713,0.879c0,0-6.81,0.79-15.705,1.832v0.09H79.3v0.119c-1.267,0.179-2.802,0.343-4.575,0.537
	v-0.134H72.43v0.387c-1.787,0.209-3.561,0.387-5.617,0.581v-0.461h-1.52v0.596c-0.76,0.074-1.52,0.134-2.295,0.208v-0.551h-1.789
	v0.701c-0.506,0.044-1.012,0.073-1.519,0.118v-0.805h-2.042v0.954c-2.041,0.134-3.814,0.209-5.617,0.238v-0.416H49.99v0.416
	c-0.254,0-0.537-0.029-0.85-0.029l-0.969,1.729l-7.45,0.67l-9.507,3.13l-2.801,2.815l-1.729,2.728c0,0-1.341,3.232-0.536,5.274
	h4.188l1.162,1.177c0,0,0.134,0.969-0.388,1.386l0.388,2.354c0,0,1.059,0.119,0.67,1.043c0,0,0.671,2.265,2.549,4.008
	c0,0,1.058,0.119,1.058,0.791l2.683,2.131c0,0,1.326-0.253,1.326,0.759l8.33,2.876c0,0,21.023,6.825,28.668,6.825
	c0,0,14.766-0.418,23.096-1.461c5.364,3.144,14.156,8.092,18.119,9.165l12.727,2.457c0,0,3.68,0.7,12.649-1.996l77.544-15.034
	c0,0,1.729-0.208,1.46-1.222c0,0,0-0.851,1.788-0.374c0,0,1.967-0.746,1.326-1.968c0,0,0-1.505,1.133-0.833
	c0,0,1.684-0.746,1.506-1.967c0,0-0.462-1.222,1.012-0.924c0,0,1.596-0.551,1.417-2.057c0,0-0.284-1.505,1.132-0.924
	c0,0,1.504-1.013,1.326-1.685c0,0-0.746-1.593,1.014-1.325c0,0,1.505-0.462,1.414-1.878l1.135-1.416c0,0,1.324-1.506,1.221-1.877
	c0,0,0.641-0.835,0.641-1.505c0-0.641,1.132-2.517,0.462-3.277c-0.671-0.762,0.701-1.224,0.21-1.878
	c-0.492-0.641,0.879-2.757,0.119-2.92c-0.762-0.164-0.24-2.042-0.791-2.131c-0.553-0.09-0.238-0.999-0.238-0.999l4.903-0.582v-4.947
	c0,0,0.298-1.042-1.208-1.132l0.255-2.979c0,0,2.665-0.089,2.665-3.1C244.741,194.013,244.829,191.286,242.104,191.286z
	 M206.059,177.518h2.294v2.549h-2.294V177.518z M64.501,238.715l-2.041-0.745v-1.803l-1.372-0.284l-0.715,1.43l-2.012-0.253v-2.232
	l-1.326-0.537l-0.491,1.623l-2.354-0.804l0.552-1.595l-1.46-0.746l-1.059,1.595l-1.594-0.492l3.219-3.546l8.836,1.296l0.596,0.671
	c-0.135,2.146,1.207,5.946,1.207,5.946L64.501,238.715L64.501,238.715z M83.887,239.759h-0.76v-1.848l-0.298-0.373
	c0.446-0.282,0.998-2.519,0.998-2.519c0.79,1.341,2.429,2.354,2.429,2.354C85.81,240.891,83.887,239.759,83.887,239.759z
	 M204.523,177.518h0.761v2.549h-0.761V177.518z"/>
<path id="path3809" fill="#0FCCD1" d="M490.711,147.587c0.361,1.509-6.653,10.037-11.995,14.581
	c-10.296,8.759-20.964,13.194-45.83,19.054c-12.963,3.056-11.211,1.594-16.584,13.837l-2.333,5.318l-9.927,5.479
	c-5.458,3.015-10.83,5.854-11.938,6.313c-1.104,0.459-2.455,1.532-3,2.387c-0.541,0.854-2.725,2.118-4.853,2.809
	c-3.263,1.063-4.71,2.286-9.317,7.875c-5.982,7.257-17.326,20.933-21.213,25.577c-1.357,1.62-2.705,2.802-2.992,2.62
	c-0.287-0.181-2.301,0.008-4.475,0.415c-4.229,0.797-19.203,1.531-20.063,0.983c-0.284-0.181,1.732-4.282,4.484-9.114
	c6.324-11.108,21.529-39.955,22.568-42.813c0.566-1.562-2.178,0.479-9.902,7.362c-10.462,9.322-10.826,9.557-17.269,11.082
	c-3.62,0.858-7.028,1.275-7.577,0.928c-0.79-0.504,0.832-3.443,7.913-14.327c7.223-11.103,8.751-13.885,8.079-14.712
	c-0.455-0.562-1.188-2.632-1.623-4.604l-0.797-3.584l-5.916-2.601c-3.254-1.431-7.297-3.063-8.983-3.627
	c-1.688-0.565-4.829-1.836-6.981-2.823c-4.795-2.201-4.436-3.208,1.795-5c4.703-1.354,5.397-1.206,19.484,4.161l9.203,3.508
	l1.839-2.887c1.53-2.405,1.601-3.354,0.419-5.676c-0.779-1.534-1.21-3.572-0.955-4.529c0.416-1.564-0.074-2.012-4.877-4.453
	c-11.927-6.062-18.414-9.747-18.08-10.273c0.194-0.304,2.666-1.366,5.491-2.359c4.646-1.632,5.729-1.609,11.283,0.242
	c3.379,1.125,8.218,2.681,10.751,3.453l4.605,1.41l1.793-5.871c1.742-5.707,1.892-5.938,5.311-8.271
	c4.188-2.859,4.941-2.521,10.32,4.646c3.525,4.698,4.089,5.159,5.824,4.773c2.313-0.514,1.551,1.401,17.36-43.604
	c5.571-15.858,5.537-15.813,10.015-12.964c3.495,2.226,3.693,2.644,6.617,13.928l3.016,11.635l4.985,2.52
	c2.742,1.386,6.577,3.238,8.522,4.116c2.549,1.153,3.839,2.272,4.627,4.018c1.029,2.284,1.355,2.438,5.896,2.792
	c2.645,0.205,5.031,0.516,5.308,0.692c0.276,0.176,3.856,0.368,7.958,0.427c8.83,0.126,19.229,2.594,28.135,6.675
	C484.33,142.541,490.39,146.244,490.711,147.587L490.711,147.587z"/>
<g>
	<text transform="matrix(1 0 0 1 87.9502 467.4551)" fill="#011A34" font-family="'Georgia'" font-size="78.5543">AuxDelta</text>
</g>
</svg>
