<?xml version="1.0" encoding="utf-8"?>
<!-- Generator: Adobe Illustrator 16.0.0, SVG Export Plug-In . SVG Version: 6.00 Build 0)  -->
<!DOCTYPE svg PUBLIC "-//W3C//DTD SVG 1.1//EN" "http://www.w3.org/Graphics/SVG/1.1/DTD/svg11.dtd">
<svg version="1.1"
	 id="svg2" inkscape:version="0.47 r22583" xmlns:sodipodi="http://sodipodi.sourceforge.net/DTD/sodipodi-0.dtd" xmlns:svg="http://www.w3.org/2000/svg" xmlns:inkscape="http://www.inkscape.org/namespaces/inkscape" xmlns:rdf="http://www.w3.org/1999/02/22-rdf-syntax-ns#" xmlns:cc="http://creativecommons.org/ns#" xmlns:dc="http://purl.org/dc/elements/1.1/" sodipodi:docname="GreatWolfLodge.svg"
	 xmlns="http://www.w3.org/2000/svg" xmlns:xlink="http://www.w3.org/1999/xlink" x="0px" y="0px" width="1080px" height="1080px"
	 viewBox="0 0 1080 1080" enable-background="new 0 0 1080 1080" xml:space="preserve">
<defs>
	
	
		<inkscape:perspective  inkscape:vp_x="0 : 526.18109 : 1" inkscape:vp_z="744.09448 : 526.18109 : 1" inkscape:vp_y="0 : 1000 : 0" sodipodi:type="inkscape:persp3d" inkscape:persp3d-origin="372.04724 : 350.78739 : 1" id="perspective10">
		</inkscape:perspective>
	
		<inkscape:perspective  inkscape:vp_x="0 : 0.5 : 1" inkscape:vp_z="1 : 0.5 : 1" inkscape:vp_y="0 : 1000 : 0" sodipodi:type="inkscape:persp3d" inkscape:persp3d-origin="0.5 : 0.33333333 : 1" id="perspective2820">
		</inkscape:perspective>
	
		<inkscape:perspective  inkscape:vp_x="0 : 0.5 : 1" inkscape:vp_z="1 : 0.5 : 1" inkscape:vp_y="0 : 1000 : 0" sodipodi:type="inkscape:persp3d" inkscape:persp3d-origin="0.5 : 0.33333333 : 1" id="perspective3151">
		</inkscape:perspective>
	
		<inkscape:perspective  inkscape:vp_x="0 : 0.5 : 1" inkscape:vp_z="1 : 0.5 : 1" inkscape:vp_y="0 : 1000 : 0" sodipodi:type="inkscape:persp3d" inkscape:persp3d-origin="0.5 : 0.33333333 : 1" id="perspective3151-7">
		</inkscape:perspective>
	
		<inkscape:perspective  inkscape:vp_x="0 : 0.5 : 1" inkscape:vp_z="1 : 0.5 : 1" inkscape:vp_y="0 : 1000 : 0" sodipodi:type="inkscape:persp3d" inkscape:persp3d-origin="0.5 : 0.33333333 : 1" id="perspective3151-0">
		</inkscape:perspective>
	
		<inkscape:perspective  inkscape:vp_x="0 : 0.5 : 1" inkscape:vp_z="1 : 0.5 : 1" inkscape:vp_y="0 : 1000 : 0" sodipodi:type="inkscape:persp3d" inkscape:persp3d-origin="0.5 : 0.33333333 : 1" id="perspective3191">
		</inkscape:perspective>
	
		<inkscape:perspective  inkscape:vp_x="0 : 0.5 : 1" inkscape:vp_z="1 : 0.5 : 1" inkscape:vp_y="0 : 1000 : 0" sodipodi:type="inkscape:persp3d" inkscape:persp3d-origin="0.5 : 0.33333333 : 1" id="perspective3256">
		</inkscape:perspective>
	
		<inkscape:perspective  inkscape:vp_x="0 : 0.5 : 1" inkscape:vp_z="1 : 0.5 : 1" inkscape:vp_y="0 : 1000 : 0" sodipodi:type="inkscape:persp3d" inkscape:persp3d-origin="0.5 : 0.33333333 : 1" id="perspective3563">
		</inkscape:perspective>
	
		<inkscape:perspective  inkscape:vp_x="0 : 0.5 : 1" inkscape:vp_z="1 : 0.5 : 1" inkscape:vp_y="0 : 1000 : 0" sodipodi:type="inkscape:persp3d" inkscape:persp3d-origin="0.5 : 0.33333333 : 1" id="perspective3588">
		</inkscape:perspective>
	
		<inkscape:perspective  inkscape:vp_x="0 : 0.5 : 1" inkscape:vp_z="1 : 0.5 : 1" inkscape:vp_y="0 : 1000 : 0" sodipodi:type="inkscape:persp3d" inkscape:persp3d-origin="0.5 : 0.33333333 : 1" id="perspective3612">
		</inkscape:perspective>
	
		<inkscape:perspective  inkscape:vp_x="0 : 0.5 : 1" inkscape:vp_z="1 : 0.5 : 1" inkscape:vp_y="0 : 1000 : 0" sodipodi:type="inkscape:persp3d" inkscape:persp3d-origin="0.5 : 0.33333333 : 1" id="perspective3634">
		</inkscape:perspective>
	
		<inkscape:perspective  inkscape:vp_x="0 : 0.5 : 1" inkscape:vp_z="1 : 0.5 : 1" inkscape:vp_y="0 : 1000 : 0" sodipodi:type="inkscape:persp3d" inkscape:persp3d-origin="0.5 : 0.33333333 : 1" id="perspective3725">
		</inkscape:perspective>
	
		<inkscape:perspective  inkscape:vp_x="0 : 0.5 : 1" inkscape:vp_z="1 : 0.5 : 1" inkscape:vp_y="0 : 1000 : 0" sodipodi:type="inkscape:persp3d" inkscape:persp3d-origin="0.5 : 0.33333333 : 1" id="perspective3749">
		</inkscape:perspective>
</defs>
<sodipodi:namedview  units="in" borderlayer="false" inkscape:cx="384.32732" pagecolor="#ffffff" showgrid="false" bordercolor="#666666" id="base" inkscape:zoom="0.1724537" borderopacity="1.0" inkscape:cy="868.26414" inkscape:showpageshadow="false" inkscape:window-x="1276" inkscape:window-height="1002" inkscape:document-units="in" inkscape:current-layer="layer1" inkscape:window-y="92" inkscape:pageopacity="0.0" inkscape:window-maximized="1" inkscape:pageshadow="2" inkscape:window-width="1280">
	</sodipodi:namedview>
<path id="path3809" d="M41.913,579.364c-3.723-3.846-3.222-31.362,1.147-63.012c5.191-37.602,18.766-76.733,36.725-105.861
	c8.339-13.525,15.162-25.63,15.162-26.898s3.95-9.726,8.777-18.793c8.291-15.575,8.465-16.963,3.142-25.087
	c-4.063-6.202-5.04-12.749-3.501-23.478c1.173-8.183,3.096-24.573,4.274-36.423l2.141-21.544l-31.76-34.063
	c-30.809-33.043-31.76-34.559-31.76-50.617c0-20.562-0.221-20.541,63.217-5.755c180.023,41.959,172.176,40.467,178.669,33.974
	c4.871-4.871,4.534-7.671-3.484-28.974c-12.231-32.496-11.771-35.67,6.287-43.411c14.74-6.318,15.802-6.322,38.085-0.144
	l22.922,6.356l4.979-17.991c2.739-9.895,7.722-28.945,11.073-42.334c5.509-22.011,7.684-25.594,22.688-37.385
	c9.128-7.172,17.743-13.041,19.146-13.041c2.414,0,0.966,28.881-4.037,80.479c-2.015,20.778-1.571,23.311,4.409,25.208
	c3.657,1.161,9.424,6.807,12.814,12.548c5.137,8.695,8.379,10.438,19.427,10.438h13.261l7.687-37.385
	c11.766-57.218,12.727-59.797,26.94-72.356c18.824-16.632,22.862-15.719,20.078,4.542c-1.248,9.085-3.631,21.996-5.295,28.691
	c-1.665,6.694-4.74,23.309-6.834,36.921l-3.808,24.75l10.061,10.06c5.533,5.533,10.784,12.233,11.67,14.888
	c1.305,3.915,13.587,4.709,64.904,4.2c50.312-0.5,63.296,0.31,63.296,3.945c0,2.516-8.456,12.793-18.792,22.839
	c-18.397,17.881-19.916,18.583-72.161,33.39c-38.574,10.932-50.959,15.659-44.675,17.053
	c11.511,2.553,137.445,12.867,186.924,15.309c21.518,1.062,39.124,2.999,39.124,4.305c0,3.947-33.562,51.377-44.959,63.539
	c-5.858,6.251-10.659,12.443-10.668,13.76c-0.01,1.317-6.667,3.265-14.796,4.329c-23.271,3.044-91.578,11.667-127.747,16.126
	c-27.858,3.435-34.869,5.622-45.133,14.082c-6.683,5.509-15.358,10.017-19.279,10.017c-3.92,0-10.238,2.179-14.041,4.842
	c-3.802,2.663-24.268,14.313-45.479,25.89l-38.565,21.048l-22.24-3.438c-51.206-7.916-42.78-10.603-79.738,25.416
	c-70.899,69.097-107.599,94.744-157.658,110.178C88.571,578.497,46.097,583.686,41.913,579.364L41.913,579.364z"/>
<g>
	<path id="path3820" fill="#738C73" d="M566.716,779.104c-9.433,0.056-19.101,0.811-24.914,2.365
		c-7.879,2.107-8.018,2.464-1.748,4.917c6.021,2.355,6.09,2.678,0.573,2.896c-10.604,0.417-38.458,16.433-50.63,29.113
		l-11.625,12.112l12.543,4.143c6.929,2.287,17.555,10.184,23.78,17.675l11.268,13.546l10.479-11.209
		c5.763-6.174,21.015-23.981,33.9-39.563c12.887-15.582,23.438-30.056,23.438-32.167
		C593.779,780.42,580.501,779.022,566.716,779.104L566.716,779.104z M547.579,787.791l11.625,11.195
		c6.39,6.155,10.849,11.943,9.92,12.873c-0.93,0.928-6.15-4.111-11.611-11.195L547.579,787.791z M455.279,844.742
		c-0.951-0.074-2.404,1.103-4.258,3.999c-7.064,11.044-16.65,40.991-17.774,55.532c-1.037,13.416-0.106,15.863,7.511,19.781
		c10.941,5.628,27.305,5.81,38.703,0.43c9.417-4.443,30.849-34.115,30.849-42.701c0-6.851-28.655-36.611-35.249-36.611
		c-5.284,0-25.27,39.025-28.941,56.507c-1.104,5.261-3.411,9.562-5.117,9.562c-3.973,0,4.994-38.747,12.185-52.65
		C457.029,851.157,457.371,844.906,455.279,844.742z M488.091,891.73c0.252,0,0.487,0.101,0.688,0.301
		c1.071,1.071,0,3.877-2.379,6.236c-3.435,3.408-3.837,3.006-1.95-1.949C485.511,893.531,486.998,891.732,488.091,891.73
		L488.091,891.73z"/>
	
		<path id="path3755" sodipodi:nodetypes="cccccsssssscccccccccccccsssssssccccscccccscccccccccsccccccsccccssccscssssssssscccccsscccsscccccscsccssssssssscccccssscccscccccccsscccscccsccsccccccsscsccsccsccssc" fill="#738C73" d="
		M750.563,524.341c-31.706,22.518-32.283,21.604-49.096,106.104c-7.75,31.438-9.188,40.257,9.188,26.806
		c-12.691,11.417-23.92,19.859-25.659,12.271c0-3.053-28.461,11.167-40.352,18.635c10.093-9.568,42.677-32.873,44.838-36.912
		c6.913-12.917,7.186-20.65,4.544-21.616c-24.546-8.972-55.495-10.533-21.086,3.741c7.414,3.076,15.264,4.838,12.629,5.763
		c-7.575,2.659-35.832-9.728-33.729-15.209c1.153-3.006,2.604-4.991,0.1-4.988c-2.837,0.003-5.978,2.427-14.836,6.394l-13.876,6.221
		l8.343,22.477c4.591,12.362,10.554,24.389,9.948,26.906l-5.892,16.169l20.341,5.935l153.336,27.135l15.065-29.687
		c-4.104,16.003-5.81,15.532-12.973,31.521c38.934-10.198,78.031-19.854,117.041-30.06c10.786-2.784,20.997-9.257,32.855-20.828
		l17.201-16.785h-14.908c-10.495,0-16.62,2.002-20.685,6.78c-4.872,5.728-12.241,7.167-47.16,9.202
		c-28.222,1.646-40.665,1.266-39.147-1.189c1.224-1.98,19.464-4.729,40.538-6.106c21.073-1.377,39.185-3.888,40.236-5.591
		c2.295-3.713-78.582-4.142-83.899-0.444c-2.021,1.405-5.787,8.042-8.372,14.736c-3.42,8.86-16.062,30.561-23.838,41.756
		c5.625-11.688,15.144-35.388,15.639-38.545c5.567-12.629,1.409-19.893-7.238-25.587c4.347-2.083,10.262,5.098,13.016,14.735
		c8.27-7.251,12.574-17.265,10.105-21.917c-2.918-5.499-12.504-16.626-17.517-16.485c-1.234,1.972-2.232,4.14-7.081,10.665
		c2.46-4.809,1.9-7.151,3.727-13.689l13.79-98.735c-24.718,10.979-27.715,41.979-34.475,73.679
		c-6.114,29.567-10.043,56.998-10.436,60.062c-0.584,4.563,3.989,4.948,10.034,0.487c-8.992,10.665-17.281,18.671-18.592,14.063
		c-0.983-6.165-4.415-3.619-21.631,15.982l-16.628,14.593c15.785-19.933,39.766-36.44,44.824-61.896
		c-6.645,0.325-18.713-2.571-25.286-2.795l-71.772,52.335c24.837-26.442,47.596-40.002,53.195-49.611
		c-0.829-1.548-8.085-8.777-7.684-11.826c3.281,2.429,8.01,3.747,9.303,7.898c0.932,2.989,5.963-3.863,7.368-4.788
		c0.25-12.679-11.636-15.26-15.481-16.283c-2.615,0.243-7.315,3.725-13.001,8.657c5.066-7.698,5.203-14.511,5.203-23.164
		L750.563,524.341L750.563,524.341z M401.288,651.775c-5.18,0.057-4.914,3.536-4.888,11.61c0.038,11.794,3.432,16.69,33.901,48.823
		l33.872,35.722c1.725,7.68-25.134,70.395-13.087,73.837c2.068-2.71,4.059-3.451,7.167-4.214c-3.536,1.319-1.549,6.865,0.659,9.073
		c3.323,3.324,8.605,5.122,12.112,0.989c1.682-1.981-1.623-9.769-7.324-11.224c3.253-1.259,9.258,3.272,10.966,7.324
		c0.676,9.625,10.989-10.684,21.272-20.44c8.668-8.225,27.05-16.923,39.434-20.828c12.385-3.905,25.685-9.891,29.558-13.316
		c15.433-13.651,58.147-42.558,61.323-41.499c1.858,0.619-8.586,9.703-23.207,20.197c-14.621,10.495-29.163,20.992-32.311,23.322
		c-4.84,3.584-3.566,4.263,8.199,4.401c18.627,0.219,24.092,4.09,21.33,15.094c-1.218,4.854-4.177,10.89-6.565,13.417
		c-2.388,2.527-10.283,11.993-17.545,21.029c-7.262,9.035-15.16,18.418-17.56,20.856c-6.194,6.292-19.204,22.386-30.948,37.9
		c-4.092-25.65-27.976-43.589-52.25-48.508l-11.224,2.752l13.833,5.376c25.748,9.036,34.305,27.486,42.516,49.941
		c-4.098,5.591-7.786,10.801-10.607,15.051c-15.373,23.16-33.047,32.78-53.281,28.984c-21.844-4.098-25.477-7.457-25.701-23.724
		l-0.216-14.649l-10.535,20.856c-5.802,11.477-11.904,25.285-13.547,30.676c-2.872,9.431-2.595,9.718,6.996,7.611
		c25.589-5.62,58.176,14.902,71.457,44.996l7.598,17.201l9.374-9.374c27.491-13.201,45.821-42.464,73.967-54.586
		c-40.217,44.843-96.682,89.146-158.482,97.316c-5.191-0.027,4.291-4.816,22.348-11.295c42.65-15.304,44.685-16.702,41.928-28.999
		c-1.242-5.542-5.185-13.919-8.758-18.606c-5.774-7.575-7.214-7.976-12.916-3.641c-5.494,4.179-5.788,4.174-2.063,0
		c9.861-11.059,3.399-10.918-8.615,0.187c-7.132,6.591-10.273,8.735-6.967,4.759c6.785-8.159,7.961-13.507,2.179-9.934
		c-2.111,1.305-1.229-1.598,1.95-6.451c6.306-9.623,7.411-8.58-15.869-14.993c-5.475-1.509-13.615,17.317-27.594,63.817
		c-4.887,16.256-10.292,19.563-10.292,6.307c0-9.192,8.527-52.102,12.313-61.954c1.286-3.347,0.801-6.077-1.09-6.077
		c-5.334,0-11.629,29.778-13.775,65.207l-1.949,32.167l15.295-0.043c80.799-3.587,144.178-61.99,200.124-114.418
		c34.254-32.765,37.742-37.259,37.8-48.637c0.035-6.896-1.535-13.675-3.483-15.08c-2.049-1.479,22.45-28.485,58.142-64.104
		c33.919-33.851,62.327-60.875,63.129-60.047c0.801,0.828-23.47,27.326-53.927,58.887c-54.283,48.674-101.64,96.207,3.426,101.56
		c2.859-8.842,3.613-14.107,3.14-10.736c-0.809,5.512-0.917,10.034-0.244,10.034c2.045,0,46.759-23.49,67.114-35.249
		c67.761-39.143,55.835-35.784,179.11-50.199l48.68-5.705l14.851-14.32c8.162-7.884,21.179-23.769,28.927-35.292l14.076-20.957
		l-32.396-2.121c-17.823-1.173-58.231-4.754-89.792-7.955c-31.56-3.202-80.298-8.091-108.311-10.866
		c-28.014-2.774-58.532-6.53-67.817-8.343c-59.355-10.623-118.483-22.254-177.317-35.478c-34.97-8.704-66.814-15.524-102.993-23.537
		c-27.257-6.358-54.252-12.814-59.99-14.349C412.644,653.758,405.317,651.73,401.288,651.775L401.288,651.775z M536.392,691.095
		c-20.828,16.786-44.707,37.841-69.121,48.78c-1.014-1.014,13.837-13.34,32.998-27.394
		C511.795,704.027,526.47,696.215,536.392,691.095z M892.934,762.523c1.725-0.238-2.68,7.556-12.644,21.058
		c-7.349,9.959-17.007,24.224-21.473,31.693l-8.128,13.574c37.52-1.96,75.088-3.317,112.526-6.564
		c10.52-1.067,25.273-0.608,32.797,1.018l-145.022,11.41c-35.783,13.909-71.442,28.151-106.018,44.882
		c-23.531,11.882-29.348,13.439-46.057,12.327c-15.2-1.013-16.604-0.718-6.838,1.405c10.173,2.211,15.695,4.164,18.319,7.41
		c-3.691-3.892-17.442-5.758-32.769-6.766c-3.656-0.24-18.302,0.681-20.526,0.659c-4.638-3.178,19.27-2.978,23.136-5.39
		c-31.521-3.072-3.257-4.013,12.786-2.336c20.495,2.142,24.884-0.852,58.943-16.93c46.222-20.004,86.819-36.986,98.794-43.605
		c0-6.434,20.058-40.093,32.324-54.241C888.654,765.704,891.898,762.666,892.934,762.523L892.934,762.523z M569.633,925.148
		c5.707,0,5.07,5.465-1.391,11.926c-5.832,5.832-15.395,7.398-15.395,2.523C552.848,935.421,564.778,925.148,569.633,925.148
		L569.633,925.148z"/>
</g>
</svg>
