<?xml version="1.0" encoding="utf-8"?>
<!-- Generator: Adobe Illustrator 16.0.0, SVG Export Plug-In . SVG Version: 6.00 Build 0)  -->
<!DOCTYPE svg PUBLIC "-//W3C//DTD SVG 1.1//EN" "http://www.w3.org/Graphics/SVG/1.1/DTD/svg11.dtd">
<svg version="1.1" id="Layer_1" xmlns="http://www.w3.org/2000/svg" xmlns:xlink="http://www.w3.org/1999/xlink" x="0px" y="0px"
	 width="1280px" height="750px" viewBox="0 0 1280 750" enable-background="new 0 0 1280 750" xml:space="preserve">
<g>
	<g>
		<polygon fill="#00BBD1" points="841.832,146.64 702.369,126.375 640,0 577.631,126.375 438.168,146.64 539.086,245.008 
			515.262,383.908 640,318.328 764.738,383.908 740.916,245.008 		"/>
	</g>
</g>
<g>
	<g>
		<polygon fill="#214855" points="802.815,155.399 690.313,139.052 640,37.107 589.688,139.052 477.185,155.399 558.594,234.752 
			539.375,346.801 640,293.898 740.625,346.801 721.407,234.752 		"/>
	</g>
</g>
<g>
	<g>
		<polygon fill="#214855" points="640,461.746 414.494,371.275 414.494,499.78 641.315,590.78 865.506,499.711 865.506,371.275 		
			"/>
	</g>
</g>
<g>
	<g>
		<polygon fill="#00BBD1" points="640,620.968 414.494,530.496 414.494,659.001 641.315,750 865.506,658.932 865.506,530.496 		"/>
	</g>
</g>
</svg>
