<?xml version="1.0" encoding="utf-8"?>
<!-- Generator: Adobe Illustrator 16.0.0, SVG Export Plug-In . SVG Version: 6.00 Build 0)  -->
<!DOCTYPE svg PUBLIC "-//W3C//DTD SVG 1.1//EN" "http://www.w3.org/Graphics/SVG/1.1/DTD/svg11.dtd">
<svg version="1.1" id="Layer_1" xmlns="http://www.w3.org/2000/svg" xmlns:xlink="http://www.w3.org/1999/xlink" x="0px" y="0px"
	 width="1439.227px" height="521px" viewBox="0 0 1439.227 521" enable-background="new 0 0 1439.227 521" xml:space="preserve">
<polygon fill="#00BCD3" points="61,75.32 110.289,47.093 110.289,380.368 183.19,421.459 253.979,380.42 302.666,408.666 
	181.833,477.951 61,409.055 "/>
<polygon fill="#00BCD3" points="123.921,286.652 123.93,228.836 183.389,195.305 303.445,264.642 303.445,391.5 255.489,364.783 
	255.489,292.835 183.652,251.903 "/>
<g>
	<text transform="matrix(1 0 0 1 338.5825 295.5439)" fill="#00BCD3" font-family="'FujitaRay'" font-size="394.5416">blockchain</text>
</g>
<g>
	<text transform="matrix(1 0 0 1 338.5825 506.8945)" fill="#00BCD3" font-family="'FujitaRay'" font-size="394.5416">lab</text>
</g>
<polygon fill="none" stroke="#00BCD3" stroke-width="2" stroke-miterlimit="10" points="234,368.411 183,398.223 132,368.411 
	132,308.786 183,278.978 234,308.786 "/>
<g>
	<g>
		<circle fill="#00BCD3" cx="183.719" cy="280.169" r="5.485"/>
		<circle fill="#00BCD3" cx="132.765" cy="308.97" r="5.484"/>
		<circle fill="#00BCD3" cx="132.765" cy="368.783" r="5.484"/>
		<circle fill="#00BCD3" cx="183.719" cy="397.585" r="5.485"/>
		<circle fill="#00BCD3" cx="234.673" cy="368.783" r="5.485"/>
		<circle fill="#00BCD3" cx="234.673" cy="308.97" r="5.485"/>
	</g>
</g>
<g display="none">
	<g display="inline">
		<path d="M123.497,231.589l-19.623-11.385c-0.253-0.149-0.57-0.149-0.829,0l-19.623,11.385c-0.254,0.146-0.409,0.421-0.409,0.712
			v23.489c0,0.265,0.124,0.514,0.337,0.669l19.623,14.288c0.015,0.011,0.036,0.017,0.051,0.025c0.021,0.012,0.036,0.032,0.063,0.041
			c0.015,0.007,0.031,0.007,0.041,0.012c0.104,0.046,0.218,0.078,0.332,0.078c0.114,0,0.224-0.032,0.332-0.078
			c0.017-0.005,0.032-0.005,0.042-0.012c0.021-0.009,0.042-0.029,0.062-0.041c0.017-0.009,0.037-0.015,0.053-0.025l19.623-14.288
			c0.212-0.155,0.337-0.404,0.337-0.669v-23.489C123.907,232.004,123.751,231.735,123.497,231.589z M103.459,221.873l17.979,10.428
			l-17.979,10.425L85.48,232.301L103.459,221.873z M84.661,233.73l5.232,3.032l12.743,7.389v24.305L84.661,255.37V233.73
			L84.661,233.73z M122.258,255.37l-17.974,13.091v-24.304l14.091-8.171l3.889-2.256v21.64H122.258z"/>
	</g>
</g>
</svg>
