<?xml version="1.0" encoding="utf-8"?>
<!-- Generator: Adobe Illustrator 16.0.0, SVG Export Plug-In . SVG Version: 6.00 Build 0)  -->
<!DOCTYPE svg PUBLIC "-//W3C//DTD SVG 1.1//EN" "http://www.w3.org/Graphics/SVG/1.1/DTD/svg11.dtd">
<svg version="1.1" id="Layer_1" xmlns="http://www.w3.org/2000/svg" xmlns:xlink="http://www.w3.org/1999/xlink" x="0px" y="0px"
	 width="150px" height="150px" viewBox="0 0 150 150" enable-background="new 0 0 150 150" xml:space="preserve">
<g display="none">
	<g display="inline">
		<g>
			<polygon fill="#00BBD1" points="113.894,31.206 86.756,27.263 74.62,2.671 62.484,27.263 35.346,31.206 54.983,50.347 
				50.347,77.376 74.62,64.614 98.894,77.376 94.257,50.347 			"/>
		</g>
	</g>
	<g display="inline">
		<g>
			<polygon fill="#214855" points="106.302,32.91 84.41,29.729 74.62,9.892 64.829,29.729 42.938,32.91 58.779,48.352 55.04,70.155 
				74.62,59.86 94.201,70.155 90.461,48.352 			"/>
		</g>
	</g>
	<g display="inline">
		<g>
			<polygon fill="#214855" points="74.62,92.522 30.739,74.917 30.739,99.923 74.876,117.631 118.501,99.909 118.501,74.917 			"/>
		</g>
	</g>
	<g display="inline">
		<g>
			<polygon fill="#00BBD1" points="74.62,123.505 30.739,105.9 30.739,130.905 74.876,148.613 118.501,130.892 118.501,105.9 			"/>
		</g>
	</g>
</g>
<path id="path3809" fill="#0FCCD1" d="M146.714,56.104c0.282,1.181-5.205,7.853-9.385,11.408
	c-8.056,6.853-16.402,10.322-35.857,14.908c-10.142,2.391-8.771,1.247-12.975,10.825l-1.825,4.161l-7.767,4.286
	c-4.271,2.359-8.474,4.581-9.341,4.939c-0.863,0.359-1.92,1.199-2.347,1.868c-0.422,0.668-2.131,1.657-3.796,2.197
	c-2.553,0.832-3.685,1.788-7.29,6.162c-4.68,5.678-13.555,16.377-16.597,20.01c-1.061,1.269-2.116,2.193-2.341,2.051
	c-0.224-0.142-1.8,0.007-3.501,0.324c-3.309,0.623-15.024,1.198-15.697,0.77c-0.222-0.142,1.355-3.351,3.508-7.131
	c4.948-8.69,16.844-31.261,17.657-33.496c0.442-1.223-1.704,0.374-7.748,5.76c-8.185,7.293-8.47,7.478-13.511,8.67
	c-2.832,0.672-5.499,0.998-5.928,0.726c-0.618-0.394,0.651-2.692,6.191-11.208c5.651-8.688,6.847-10.863,6.321-11.511
	c-0.356-0.439-0.93-2.059-1.27-3.603l-0.624-2.804l-4.628-2.035c-2.546-1.119-5.709-2.396-7.028-2.837
	c-1.32-0.443-3.778-1.438-5.461-2.209c-3.751-1.723-3.471-2.511,1.404-3.912c3.68-1.06,4.222-0.944,15.244,3.256l7.2,2.744
	l1.438-2.259c1.197-1.882,1.253-2.624,0.328-4.441c-0.609-1.2-0.947-2.794-0.748-3.543c0.326-1.224-0.057-1.574-3.815-3.484
	c-9.332-4.743-14.407-7.626-14.146-8.038c0.152-0.238,2.085-1.069,4.296-1.845c3.636-1.277,4.483-1.259,8.828,0.189
	c2.644,0.88,6.429,2.098,8.411,2.702l3.604,1.103l1.403-4.593c1.362-4.465,1.48-4.646,4.155-6.471
	c3.277-2.237,3.866-1.972,8.075,3.635c2.757,3.675,3.199,4.036,4.557,3.734c1.809-0.402,1.213,1.096,13.582-34.115
	c4.359-12.407,4.333-12.372,7.836-10.143c2.734,1.742,2.89,2.069,5.177,10.897l2.36,9.103l3.899,1.972
	c2.146,1.084,5.146,2.533,6.668,3.22c1.994,0.902,3.004,1.777,3.62,3.144c0.806,1.787,1.061,1.908,4.612,2.185
	c2.07,0.161,3.937,0.404,4.153,0.542s3.017,0.288,6.227,0.334c6.908,0.099,15.044,2.029,22.013,5.222
	C141.722,52.156,146.463,55.053,146.714,56.104L146.714,56.104z"/>
</svg>
